999
DXF file: D:\work\0903PRICETAG\0-pt-pcb.dxf
999
Pro/ENGINEER 2018190 by Parametric Technology Corporation
  0
SECTION
  2
HEADER
  9
$ACADVER
  1
AC1018
  9
$DWGCODEPAGE
  3
ANSI_936
  9
$EXTMAX
 10
297.0
 20
210.0
 30
0.0
  9
$EXTMIN
 10
0.0
 20
0.0
 30
0.0
  9
$LIMMIN
 10
0.0
 20
0.0
  9
$LIMMAX
 10
297.0
 20
210.0
  9
$VIEWCTR
 10
148.5
 20
105.0
  9
$VIEWSIZE
 40
210.0
  9
$CLAYER
  8
0
  9
$LTSCALE
 40
16.335
  9
$CELTYPE
  6
BYLAYER
  9
$DIMSCALE
 40
1.0
  9
$DIMASZ
 40
3.0
  9
$DIMEXO
 40
0.0
  9
$DIMDLI
 40
11.286
  9
$DIMEXE
 40
2.5
  9
$DIMCEN
 40
2.673
  9
$DIMLFAC
 40
1.0
  9
$DIMBLK
  1
_FILLED
  9
$DIMALT
 70
0
  9
$DIMALTF
 40
0.0393700787
  9
$DIMTXT
 40
3.0
  9
$DIMTOL
 70
1
  9
$DIMLIM
 70
0
  9
$DIMTFAC
 40
1.0
  9
$DIMTP
 40
0.01
  9
$DIMTM
 40
0.01
  9
$DIMGAP
 40
0.625
  9
$DIMDSEP
 70
46
  9
$AUNITS
 70
0
  9
$PDMODE
 70
3
  9
$PDSIZE
 40
5.0
  9
$HANDSEED
  5
37B
  9
$TILEMODE
 70
1
  9
$MEASUREMENT
 70
1
  9
$INSUNITS
 70
4
  0
ENDSEC
  0
SECTION
  2
CLASSES
  0
CLASS
  1
ACDBDICTIONARYWDFLT
  2
AcDbDictionaryWithDefault
  3
AutoCAD 2000
 90
0
 91
1
280
0
281
0
  0
CLASS
  1
ACDBPLACEHOLDER
  2
AcDbPlaceHolder
  3
AutoCAD 2000
 90
0
 91
1
280
0
281
0
  0
CLASS
  1
LAYOUT
  2
AcDbLayout
  3
AutoCAD 2000
 90
0
 91
0
280
0
281
0
  0
CLASS
  1
TABLESTYLE
  2
AcDbTableStyle
  3
ObjectDBX Classes
 90
2047
 91
1
280
0
281
0
  0
CLASS
  1
ACAD_TABLE
  2
AcDbTable
  3
ObjectDBX Classes
 90
1025
 91
3
280
0
281
1
  0
ENDSEC
  0
SECTION
  2
TABLES
  0
TABLE
  2
VPORT
  5
8
100
AcDbSymbolTable
 70
2
  0
VPORT
  5
1F4
100
AcDbSymbolTableRecord
100
AcDbViewportTableRecord
  2
*ACTIVE
 70
0
 10
0.0
 20
0.0
 11
1.0
 21
1.0
 12
148.5
 22
105.0
 13
0.0
 23
0.0
 14
1.0
 24
1.0
 15
0.0
 25
0.0
 16
0.0
 26
0.0
 36
1.0
 17
0.0
 27
0.0
 37
0.0
 40
210.0
 41
1.4142857143
 42
50.0
 43
0.0
 44
0.0
 50
0.0
 51
0.0
 71
0
 72
100
 73
1
 74
1
 75
0
 76
0
 77
0
 78
0
  0
ENDTAB
  0
TABLE
  2
LTYPE
  5
5
100
AcDbSymbolTable
 70
6
  0
LTYPE
  5
14
100
AcDbSymbolTableRecord
100
AcDbLinetypeTableRecord
  2
BYBLOCK
 70
0
  3

 72
65
 73
0
 40
0.0
  0
LTYPE
  5
15
100
AcDbSymbolTableRecord
100
AcDbLinetypeTableRecord
  2
BYLAYER
 70
0
  3

 72
65
 73
0
 40
0.0
  0
LTYPE
  5
16
100
AcDbSymbolTableRecord
100
AcDbLinetypeTableRecord
  2
CONTINUOUS
 70
64
  3
Solid line
 72
65
 73
0
 40
0.0
  0
LTYPE
  5
1F5
100
AcDbSymbolTableRecord
100
AcDbLinetypeTableRecord
  2
CENTER
 70
64
  3
____ _ ____ _ ____ _ ____ _ ____ _ ____ _ ____
 72
65
 73
4
 40
0.6
 49
0.375
 74
0
 49
-0.075
 74
0
 49
0.075
 74
0
 49
-0.075
 74
0
  0
LTYPE
  5
1F6
100
AcDbSymbolTableRecord
100
AcDbLinetypeTableRecord
  2
HIDDEN
 70
64
  3
- - - - - - - - - - - - - - - - - - - -
 72
65
 73
2
 40
0.2
 49
0.1
 74
0
 49
-0.1
 74
0
  0
LTYPE
  5
1F7
100
AcDbSymbolTableRecord
100
AcDbLinetypeTableRecord
  2
PHANTOM
 70
64
  3
_____ _ _ _____ _ _ _____ _ _ _____
 72
65
 73
6
 40
0.8
 49
0.45
 74
0
 49
-0.05
 74
0
 49
0.1
 74
0
 49
-0.05
 74
0
 49
0.1
 74
0
 49
-0.05
 74
0
  0
LTYPE
  5
1F8
100
AcDbSymbolTableRecord
100
AcDbLinetypeTableRecord
  2
DOT
 70
64
  3
. . . . . . . . . . . . . . . . . . . .
 72
65
 73
2
 40
0.2
 49
0.1
 74
0
 49
-0.1
 74
0
  0
LTYPE
  5
1F9
100
AcDbSymbolTableRecord
100
AcDbLinetypeTableRecord
  2
DASHED
 70
64
  3
- - - - - - - - - - - - - - - - - - - -
 72
65
 73
2
 40
0.2
 49
0.1
 74
0
 49
-0.1
 74
0
  0
ENDTAB
  0
TABLE
  2
LAYER
  5
2
100
AcDbSymbolTable
 70
36
  0
LAYER
  5
10
100
AcDbSymbolTableRecord
100
AcDbLayerTableRecord
  2
0
 70
0
 62
7
  6
CONTINUOUS
370
-3
390
F
  0
LAYER
  5
1FA
100
AcDbSymbolTableRecord
100
AcDbLayerTableRecord
  2
DEFAULT_1
 70
0
 62
7
  6
CENTER
370
-3
390
F
  0
LAYER
  5
1FB
100
AcDbSymbolTableRecord
100
AcDbLayerTableRecord
  2
DEFAULT_2
 70
0
 62
253
  6
HIDDEN
370
-3
390
F
  0
LAYER
  5
1FC
100
AcDbSymbolTableRecord
100
AcDbLayerTableRecord
  2
DEFAULT_3
 70
0
 62
7
  6
PHANTOM
370
-3
390
F
  0
LAYER
  5
1FD
100
AcDbSymbolTableRecord
100
AcDbLayerTableRecord
  2
01___PRT_ALL_DTM_PLN
 70
0
 62
7
  6
CONTINUOUS
370
-3
390
F
  0
LAYER
  5
1FE
100
AcDbSymbolTableRecord
100
AcDbLayerTableRecord
  2
01___PRT_DEF_DTM_PLN
 70
0
 62
7
  6
CONTINUOUS
370
-3
390
F
  0
LAYER
  5
1FF
100
AcDbSymbolTableRecord
100
AcDbLayerTableRecord
  2
02___PRT_ALL_AXES
 70
0
 62
7
  6
CONTINUOUS
370
-3
390
F
  0
LAYER
  5
200
100
AcDbSymbolTableRecord
100
AcDbLayerTableRecord
  2
03___PRT_ALL_CURVES
 70
0
 62
7
  6
CONTINUOUS
370
-3
390
F
  0
LAYER
  5
201
100
AcDbSymbolTableRecord
100
AcDbLayerTableRecord
  2
04___PRT_ALL_DTM_PNT
 70
0
 62
7
  6
CONTINUOUS
370
-3
390
F
  0
LAYER
  5
202
100
AcDbSymbolTableRecord
100
AcDbLayerTableRecord
  2
05___PRT_ALL_DTM_CSYS
 70
0
 62
7
  6
CONTINUOUS
370
-3
390
F
  0
LAYER
  5
203
100
AcDbSymbolTableRecord
100
AcDbLayerTableRecord
  2
05___PRT_DEF_DTM_CSYS
 70
0
 62
7
  6
CONTINUOUS
370
-3
390
F
  0
LAYER
  5
204
100
AcDbSymbolTableRecord
100
AcDbLayerTableRecord
  2
06___PRT_ALL_SURFS
 70
0
 62
7
  6
CONTINUOUS
370
-3
390
F
  0
LAYER
  5
205
100
AcDbSymbolTableRecord
100
AcDbLayerTableRecord
  2
0-PT-PCBFORMAT
 70
0
 62
7
  6
CONTINUOUS
370
-3
390
F
  0
LAYER
  5
206
100
AcDbSymbolTableRecord
100
AcDbLayerTableRecord
  2
0-PT-PCBDIM
 70
0
 62
7
  6
CONTINUOUS
370
-3
390
F
  0
LAYER
  5
207
100
AcDbSymbolTableRecord
100
AcDbLayerTableRecord
  2
0-PT-PCBSOLIDLINE
 70
0
 62
7
  6
CONTINUOUS
370
-3
390
F
  0
ENDTAB
  0
TABLE
  2
STYLE
  5
3
100
AcDbSymbolTable
 70
1
  0
STYLE
  5
11
100
AcDbSymbolTableRecord
100
AcDbTextStyleTableRecord
  2
STANDARD
 70
0
 40
0.0
 41
1.0
 50
0.0
 71
0
 42
0.2
  3
tahoma.ttf
  4

  0
STYLE
  5
208
100
AcDbSymbolTableRecord
100
AcDbTextStyleTableRecord
  2
TEXTSTYLE_1
 70
0
 40
0.0
 41
0.8
 50
0.0
 71
0
 42
0.2
  3
gdt
  4

  0
STYLE
  5
209
100
AcDbSymbolTableRecord
100
AcDbTextStyleTableRecord
  2
TEXTSTYLE_2
 70
0
 40
0.0
 41
1.0
 50
0.0
 71
0
 42
0.2
  3
tahoma.ttf
  4

  0
STYLE
  5
20A
100
AcDbSymbolTableRecord
100
AcDbTextStyleTableRecord
  2
TEXTSTYLE_3
 70
0
 40
0.0
 41
1.0
 50
0.0
 71
0
 42
0.2
  3
tahoma.ttf
  4

  0
ENDTAB
  0
TABLE
  2
VIEW
  5
6
100
AcDbSymbolTable
 70
0
  0
ENDTAB
  0
TABLE
  2
UCS
  5
7
100
AcDbSymbolTable
 70
0
  0
ENDTAB
  0
TABLE
  2
APPID
  5
9
100
AcDbSymbolTable
 70
1
  0
APPID
  5
20B
100
AcDbSymbolTableRecord
100
AcDbRegAppTableRecord
  2
ACAD
 70
0
  0
ENDTAB
  0
TABLE
  2
BLOCK_RECORD
  5
1
100
AcDbSymbolTable
 70
0
  0
BLOCK_RECORD
  5
20C
100
AcDbSymbolTableRecord
100
AcDbBlockTableRecord
  2
*Model_Space
  0
BLOCK_RECORD
  5
20D
100
AcDbSymbolTableRecord
100
AcDbBlockTableRecord
  2
*Paper_Space
  0
BLOCK_RECORD
  5
20E
100
AcDbSymbolTableRecord
100
AcDbBlockTableRecord
  2
_FILLED
  0
BLOCK_RECORD
  5
20F
100
AcDbSymbolTableRecord
100
AcDbBlockTableRecord
  2
*D0
  0
BLOCK_RECORD
  5
210
100
AcDbSymbolTableRecord
100
AcDbBlockTableRecord
  2
*D1
  0
BLOCK_RECORD
  5
211
100
AcDbSymbolTableRecord
100
AcDbBlockTableRecord
  2
*D2
  0
BLOCK_RECORD
  5
212
100
AcDbSymbolTableRecord
100
AcDbBlockTableRecord
  2
THIRD_ANGLE_BL1
  0
BLOCK_RECORD
  5
213
100
AcDbSymbolTableRecord
100
AcDbBlockTableRecord
  2
WHALE_LOGO_BL0
  0
BLOCK_RECORD
  5
214
100
AcDbSymbolTableRecord
100
AcDbBlockTableRecord
  2
*T1
  0
BLOCK_RECORD
  5
215
100
AcDbSymbolTableRecord
100
AcDbBlockTableRecord
  2
*T2
  0
BLOCK_RECORD
  5
216
100
AcDbSymbolTableRecord
100
AcDbBlockTableRecord
  2
*T3
  0
ENDTAB
  0
TABLE
  2
DIMSTYLE
  5
A
100
AcDbSymbolTable
 70
1
100
AcDbDimStyleTable
 71
0
  0
DIMSTYLE
105
217
100
AcDbSymbolTableRecord
100
AcDbDimStyleTableRecord
  2
STANDARD
 70
0
  3

  4

 40
1.0
 41
3.0
 42
0.0
 43
0.38
 44
2.5
 45
0.0
 46
0.0
 47
0.01
 48
0.01
140
3.0
141
0.09
142
0.0
143
25.4
144
1.0
145
0.0
146
1.0
147
0.625
 71
1.0
 72
0.0
 73
0
 74
0
 75
0
 76
0
 77
1
 78
0
 79
0
170
0
171
1
172
0
173
0
174
0
175
0
176
0
177
0
178
0
270
2
179
2
271
2
272
2
273
2
274
2
275
0
280
0
281
0
282
0
283
1
284
0
285
0
286
0
287
3
288
0
340
11
278
46
341
20E
342
20E
343
20E
344
20E
  0
DIMSTYLE
105
218
100
AcDbSymbolTableRecord
100
AcDbDimStyleTableRecord
  2
DIMSTYLE_1
 70
0
  3

  4

 40
1.0
 41
3.0
 42
0.0
 43
0.38
 44
2.5
 45
0.0
 46
0.0
 47
0.01
 48
0.01
140
3.0
141
0.09
142
0.0
143
25.4
144
1.0
145
0.0
146
1.0
147
0.75
 71
0.0
 72
0.0
 73
0
 74
0
 75
0
 76
0
 77
1
 78
0
 79
0
170
0
171
1
172
0
173
0
174
0
175
0
176
0
177
0
178
0
270
2
179
2
271
2
272
2
273
2
274
2
275
0
280
0
281
0
282
0
283
1
284
0
285
0
286
0
287
3
288
0
340
11
278
46
341
20E
342
20E
343
20E
344
20E
  0
ENDTAB
  0
ENDSEC
  0
SECTION
  2
BLOCKS
  0
BLOCK
  5
20
100
AcDbEntity
  8
0
100
AcDbBlockBegin
  2
*Model_Space
 70
0
 10
0.0
 20
0.0
 30
0.0
  3
*Model_Space
  1

  0
ENDBLK
  5
21
100
AcDbEntity
  8
0
100
AcDbBlockEnd
  0
BLOCK
  5
1C
100
AcDbEntity
  8
0
100
AcDbBlockBegin
  2
*Paper_Space
 70
0
 10
0.0
 20
0.0
 30
0.0
  3
*Paper_Space
  1

  0
ENDBLK
  5
1D
100
AcDbEntity
  8
0
100
AcDbBlockEnd
  0
BLOCK
  5
219
100
AcDbEntity
  8
0-PT-PCBSOLIDLINE
100
AcDbBlockBegin
 62
2
  6
CONTINUOUS
  2
THIRD_ANGLE_BL1
 70
64
 10
114.5363362499
 20
21.0987949667
  3
THIRD_ANGLE_BL1
  1

  0
LINE
  5
21A
100
AcDbEntity
  8
0-PT-PCBSOLIDLINE
100
AcDbLine
 62
2
  6
CENTER
 10
107.8692836924
 20
15.3883550319
 11
107.8692836924
 21
26.8092349015
  0
LINE
  5
21B
100
AcDbEntity
  8
0-PT-PCBSOLIDLINE
100
AcDbLine
 62
7
  6
CONTINUOUS
 10
115.8745114532
 20
23.0472967572
 11
115.8745114532
 21
19.0694133066
  0
LINE
  5
21C
100
AcDbEntity
  8
0-PT-PCBSOLIDLINE
100
AcDbLine
 62
7
  6
CONTINUOUS
 10
124.0793450093
 20
25.1892387627
 11
124.0793450093
 21
16.927471301
  0
LINE
  5
21D
100
AcDbEntity
  8
0-PT-PCBSOLIDLINE
100
AcDbLine
 62
7
  6
CONTINUOUS
 10
115.8745114532
 20
19.0694133066
 11
124.0793450093
 21
16.927471301
  0
LINE
  5
21E
100
AcDbEntity
  8
0-PT-PCBSOLIDLINE
100
AcDbLine
 62
2
  6
CENTER
 10
103.0092836924
 20
21.0583550319
 11
126.0633888073
 21
21.0583550319
  0
LINE
  5
21F
100
AcDbEntity
  8
0-PT-PCBSOLIDLINE
100
AcDbLine
 62
7
  6
CONTINUOUS
 10
124.0793450093
 20
25.1892387627
 11
115.8745114532
 21
23.0472967572
  0
CIRCLE
  5
220
100
AcDbEntity
  8
0-PT-PCBSOLIDLINE
100
AcDbCircle
 62
7
  6
CONTINUOUS
 10
107.87493147
 20
21.0588473795
 40
4.1303913833
  0
CIRCLE
  5
221
100
AcDbEntity
  8
0-PT-PCBSOLIDLINE
100
AcDbCircle
 62
7
  6
CONTINUOUS
 10
107.87493147
 20
21.0588473795
 40
1.9884573984
  0
ENDBLK
  5
222
100
AcDbEntity
  8
0
  6
BYBLOCK
 62
0
100
AcDbBlockEnd
  0
BLOCK
  5
223
100
AcDbEntity
  8
0-PT-PCBFORMAT
100
AcDbBlockBegin
 62
2
  6
CONTINUOUS
  2
WHALE_LOGO_BL0
 70
64
 10
154.9382688431
 20
36.7971964157
  3
WHALE_LOGO_BL0
  1

  0
CIRCLE
  5
224
100
AcDbEntity
  8
0-PT-PCBFORMAT
100
AcDbCircle
 62
7
420
8437759
  6
CONTINUOUS
 10
153.1931045839
 20
40.9556598938
 40
0.3478260266
  0
SPLINE
  5
225
100
AcDbEntity
  8
0-PT-PCBFORMAT
100
AcDbSpline
 62
7
420
8437759
  6
CONTINUOUS
 70
0
 71
3
 72
8
 73
4
 74
0
 42
0.0000001
 43
0.0000001
 44
0.0000000001
 40
0.0
 40
0.0
 40
0.0
 40
0.0
 40
1.0
 40
1.0
 40
1.0
 40
1.0
 10
159.4808681844
 20
35.0507180926
 30
0.0
 10
159.2318820583
 20
35.2962803732
 30
0.0
 10
159.0306923078
 20
35.7566221438
 30
0.0
 10
159.035549332
 20
35.9453905896
 30
0.0
  0
LINE
  5
226
100
AcDbEntity
  8
0-PT-PCBFORMAT
100
AcDbLine
 62
7
420
8437759
  6
CONTINUOUS
 10
159.035549332
 20
35.9453905896
 11
159.0343070742
 21
35.9401440871
  0
SPLINE
  5
227
100
AcDbEntity
  8
0-PT-PCBFORMAT
100
AcDbSpline
 62
7
420
8437759
  6
CONTINUOUS
 70
0
 71
3
 72
8
 73
4
 74
0
 42
0.0000001
 43
0.0000001
 44
0.0000000001
 40
0.0
 40
0.0
 40
0.0
 40
0.0
 40
1.0
 40
1.0
 40
1.0
 40
1.0
 10
159.0343070742
 20
35.9401440871
 30
0.0
 10
159.0405285454
 20
36.6057409476
 30
0.0
 10
158.9632234571
 20
37.3765275095
 30
0.0
 10
158.7865988444
 20
38.0151179921
 30
0.0
  0
LINE
  5
228
100
AcDbEntity
  8
0-PT-PCBFORMAT
100
AcDbLine
 62
7
420
8437759
  6
CONTINUOUS
 10
158.7865988444
 20
38.0151179921
 11
158.7867312161
 21
38.0150238045
  0
LINE
  5
229
100
AcDbEntity
  8
0-PT-PCBFORMAT
100
AcDbLine
 62
7
420
8437759
  6
CONTINUOUS
 10
158.7867312161
 20
38.0150238045
 11
158.7846998192
 21
38.0219796842
  0
ARC
  5
22A
100
AcDbEntity
  8
0-PT-PCBFORMAT
100
AcDbCircle
 62
7
420
8437759
  6
CONTINUOUS
 10
154.2426256572
 20
36.7598016549
 40
4.7141840302
100
AcDbArc
 50
15.5298580721
 51
17.2723599835
  0
SPLINE
  5
22B
100
AcDbEntity
  8
0-PT-PCBFORMAT
100
AcDbSpline
 62
7
420
8437759
  6
CONTINUOUS
 70
0
 71
3
 72
8
 73
4
 74
0
 42
0.0000001
 43
0.0000001
 44
0.0000000001
 40
0.0
 40
0.0
 40
0.0
 40
0.0
 40
1.0
 40
1.0
 40
1.0
 40
1.0
 10
158.744219527
 20
38.1595100895
 30
0.0
 10
158.1162047817
 20
40.2568700899
 30
0.0
 10
157.3856426781
 20
40.8690524131
 30
0.0
 10
157.4835112049
 20
41.2397708881
 30
0.0
  0
SPLINE
  5
22C
100
AcDbEntity
  8
0-PT-PCBFORMAT
100
AcDbSpline
 62
7
420
8437759
  6
CONTINUOUS
 70
0
 71
3
 72
8
 73
4
 74
0
 42
0.0000001
 43
0.0000001
 44
0.0000000001
 40
0.0
 40
0.0
 40
0.0
 40
0.0
 40
1.0
 40
1.0
 40
1.0
 40
1.0
 10
157.4835112049
 20
41.2397708881
 30
0.0
 10
157.5766550793
 20
41.5925949967
 30
0.0
 10
157.926024795
 20
41.5012585055
 30
0.0
 10
157.9841919863
 20
41.7138233148
 30
0.0
  0
SPLINE
  5
22D
100
AcDbEntity
  8
0-PT-PCBFORMAT
100
AcDbSpline
 62
7
420
8437759
  6
CONTINUOUS
 70
0
 71
3
 72
8
 73
4
 74
0
 42
0.0000001
 43
0.0000001
 44
0.0000000001
 40
0.0
 40
0.0
 40
0.0
 40
0.0
 40
1.0
 40
1.0
 40
1.0
 40
1.0
 10
157.9841919863
 20
41.7138233148
 30
0.0
 10
157.9909200339
 20
41.738411363
 30
0.0
 10
157.9689641466
 20
41.7612556682
 30
0.0
 10
157.944078262
 20
41.7557456951
 30
0.0
  0
SPLINE
  5
22E
100
AcDbEntity
  8
0-PT-PCBFORMAT
100
AcDbSpline
 62
7
420
8437759
  6
CONTINUOUS
 70
0
 71
3
 72
8
 73
4
 74
0
 42
0.0000001
 43
0.0000001
 44
0.0000000001
 40
0.0
 40
0.0
 40
0.0
 40
0.0
 40
1.0
 40
1.0
 40
1.0
 40
1.0
 10
157.944078262
 20
41.7557456951
 30
0.0
 10
157.5015163053
 20
41.6577524334
 30
0.0
 10
157.2180855286
 20
41.6717443795
 30
0.0
 10
157.0196399459
 20
41.2489630863
 30
0.0
  0
SPLINE
  5
22F
100
AcDbEntity
  8
0-PT-PCBFORMAT
100
AcDbSpline
 62
7
420
8437759
  6
CONTINUOUS
 70
0
 71
3
 72
8
 73
4
 74
0
 42
0.0000001
 43
0.0000001
 44
0.0000000001
 40
0.0
 40
0.0
 40
0.0
 40
0.0
 40
1.0
 40
1.0
 40
1.0
 40
1.0
 10
157.0196399459
 20
41.2489630863
 30
0.0
 10
156.3564117757
 20
41.4983246899
 30
0.0
 10
156.2420018743
 20
40.7676302146
 30
0.0
 10
155.7371106537
 20
40.8376904964
 30
0.0
  0
SPLINE
  5
230
100
AcDbEntity
  8
0-PT-PCBFORMAT
100
AcDbSpline
 62
7
420
8437759
  6
CONTINUOUS
 70
0
 71
3
 72
8
 73
4
 74
0
 42
0.0000001
 43
0.0000001
 44
0.0000000001
 40
0.0
 40
0.0
 40
0.0
 40
0.0
 40
1.0
 40
1.0
 40
1.0
 40
1.0
 10
155.7371106537
 20
40.8376904964
 30
0.0
 10
155.4911334388
 20
40.8718233097
 30
0.0
 10
155.9372007006
 20
40.5308617442
 30
0.0
 10
156.23589241
 20
40.5887069159
 30
0.0
  0
SPLINE
  5
231
100
AcDbEntity
  8
0-PT-PCBFORMAT
100
AcDbSpline
 62
7
420
8437759
  6
CONTINUOUS
 70
0
 71
3
 72
8
 73
4
 74
0
 42
0.0000001
 43
0.0000001
 44
0.0000000001
 40
0.0
 40
0.0
 40
0.0
 40
0.0
 40
1.0
 40
1.0
 40
1.0
 40
1.0
 10
156.23589241
 20
40.5887069159
 30
0.0
 10
156.9713802692
 20
40.7271702873
 30
0.0
 10
157.5263385496
 20
40.726591161
 30
0.0
 10
157.4417581077
 20
40.0562454649
 30
0.0
  0
SPLINE
  5
232
100
AcDbEntity
  8
0-PT-PCBFORMAT
100
AcDbSpline
 62
7
420
8437759
  6
CONTINUOUS
 70
0
 71
3
 72
8
 73
4
 74
0
 42
0.0000001
 43
0.0000001
 44
0.0000000001
 40
0.0
 40
0.0
 40
0.0
 40
0.0
 40
1.0
 40
1.0
 40
1.0
 40
1.0
 10
157.4417581077
 20
40.0562454649
 30
0.0
 10
157.3996562618
 20
39.722585982
 30
0.0
 10
156.9035041208
 20
39.6542108941
 30
0.0
 10
156.5440843364
 20
39.6975346328
 30
0.0
  0
ARC
  5
233
100
AcDbEntity
  8
0-PT-PCBFORMAT
100
AcDbCircle
 62
7
420
8437759
  6
CONTINUOUS
 10
155.2872701128
 20
33.0176388899
 40
6.7971015241
100
AcDbArc
 50
79.3444391407
 51
80.647906608
  0
LINE
  5
234
100
AcDbEntity
  8
0-PT-PCBFORMAT
100
AcDbLine
 62
7
420
8437759
  6
CONTINUOUS
 10
156.3918059388
 20
39.7243959108
 11
156.3908538806
 21
39.7246122877
  0
LINE
  5
235
100
AcDbEntity
  8
0-PT-PCBFORMAT
100
AcDbLine
 62
7
420
8437759
  6
CONTINUOUS
 10
156.3908538806
 20
39.7246122877
 11
156.3909607963
 21
39.7245359194
  0
SPLINE
  5
236
100
AcDbEntity
  8
0-PT-PCBFORMAT
100
AcDbSpline
 62
7
420
8437759
  6
CONTINUOUS
 70
0
 71
3
 72
8
 73
4
 74
0
 42
0.0000001
 43
0.0000001
 44
0.0000000001
 40
0.0
 40
0.0
 40
0.0
 40
0.0
 40
1.0
 40
1.0
 40
1.0
 40
1.0
 10
156.3909607963
 20
39.7245359194
 30
0.0
 10
155.9068672104
 20
39.8042376995
 30
0.0
 10
155.4033913491
 20
39.8351032223
 30
0.0
 10
154.9383287445
 20
39.8322852319
 30
0.0
  0
LINE
  5
237
100
AcDbEntity
  8
0-PT-PCBFORMAT
100
AcDbLine
 62
7
420
8437759
  6
CONTINUOUS
 10
154.9383287445
 20
39.8322852319
 11
154.9382116464
 21
39.831860115
  0
LINE
  5
238
100
AcDbEntity
  8
0-PT-PCBFORMAT
100
AcDbLine
 62
7
420
8437759
  6
CONTINUOUS
 10
154.9382116464
 20
39.831860115
 11
154.9382116464
 21
39.8322852319
  0
SPLINE
  5
239
100
AcDbEntity
  8
0-PT-PCBFORMAT
100
AcDbSpline
 62
7
420
8437759
  6
CONTINUOUS
 70
0
 71
3
 72
8
 73
4
 74
0
 42
0.0000001
 43
0.0000001
 44
0.0000000001
 40
0.0
 40
0.0
 40
0.0
 40
0.0
 40
1.0
 40
1.0
 40
1.0
 40
1.0
 10
154.9382116464
 20
39.8322852319
 30
0.0
 10
153.4792715728
 20
39.8411235902
 30
0.0
 10
151.6419520105
 20
39.5193253778
 30
0.0
 10
151.2128461489
 20
38.3937685883
 30
0.0
  0
SPLINE
  5
23A
100
AcDbEntity
  8
0-PT-PCBFORMAT
100
AcDbSpline
 62
7
420
8437759
  6
CONTINUOUS
 70
0
 71
3
 72
8
 73
4
 74
0
 42
0.0000001
 43
0.0000001
 44
0.0000000001
 40
0.0
 40
0.0
 40
0.0
 40
0.0
 40
1.0
 40
1.0
 40
1.0
 40
1.0
 10
151.2128461489
 20
38.3937685883
 30
0.0
 10
150.9488587423
 20
37.7013282691
 30
0.0
 10
150.8347186756
 20
36.7439319387
 30
0.0
 10
150.8422294983
 20
35.9401440871
 30
0.0
  0
LINE
  5
23B
100
AcDbEntity
  8
0-PT-PCBFORMAT
100
AcDbLine
 62
7
420
8437759
  6
CONTINUOUS
 10
150.8422294983
 20
35.9401440871
 11
150.8409872406
 21
35.9453905896
  0
SPLINE
  5
23C
100
AcDbEntity
  8
0-PT-PCBFORMAT
100
AcDbSpline
 62
7
420
8437759
  6
CONTINUOUS
 70
0
 71
3
 72
8
 73
4
 74
0
 42
0.0000001
 43
0.0000001
 44
0.0000000001
 40
0.0
 40
0.0
 40
0.0
 40
0.0
 40
1.0
 40
1.0
 40
1.0
 40
1.0
 10
150.8409872406
 20
35.9453905896
 30
0.0
 10
150.8458455375
 20
35.7566221438
 30
0.0
 10
150.6446570598
 20
35.2962803732
 30
0.0
 10
150.3956696609
 20
35.0507180926
 30
0.0
  0
SPLINE
  5
23D
100
AcDbEntity
  8
0-PT-PCBFORMAT
100
AcDbSpline
 62
7
420
8437759
  6
CONTINUOUS
 70
0
 71
3
 72
8
 73
4
 74
0
 42
0.0000001
 43
0.0000001
 44
0.0000000001
 40
0.0
 40
0.0
 40
0.0
 40
0.0
 40
1.0
 40
1.0
 40
1.0
 40
1.0
 10
150.3956696609
 20
35.0507180926
 30
0.0
 10
150.1466835348
 20
34.8051558121
 30
0.0
 10
149.9337050639
 20
34.4088284993
 30
0.0
 10
150.6084457558
 20
33.9333288932
 30
0.0
  0
SPLINE
  5
23E
100
AcDbEntity
  8
0-PT-PCBFORMAT
100
AcDbSpline
 62
7
420
8437759
  6
CONTINUOUS
 70
0
 71
3
 72
8
 73
4
 74
0
 42
0.0000001
 43
0.0000001
 44
0.0000000001
 40
0.0
 40
0.0
 40
0.0
 40
0.0
 40
1.0
 40
1.0
 40
1.0
 40
1.0
 10
150.6084457558
 20
33.9333288932
 30
0.0
 10
151.1099194948
 20
33.5799345679
 30
0.0
 10
151.1439033899
 20
33.1933009384
 30
0.0
 10
151.4727453056
 20
32.8380432265
 30
0.0
  0
SPLINE
  5
23F
100
AcDbEntity
  8
0-PT-PCBFORMAT
100
AcDbSpline
 62
7
420
8437759
  6
CONTINUOUS
 70
0
 71
3
 72
8
 73
4
 74
0
 42
0.0000001
 43
0.0000001
 44
0.0000000001
 40
0.0
 40
0.0
 40
0.0
 40
0.0
 40
1.0
 40
1.0
 40
1.0
 40
1.0
 10
151.4727453056
 20
32.8380432265
 30
0.0
 10
151.9308176648
 20
32.3431778914
 30
0.0
 10
152.7542894466
 20
32.056552374
 30
0.0
 10
153.2297966895
 20
31.9331386496
 30
0.0
  0
SPLINE
  5
240
100
AcDbEntity
  8
0-PT-PCBFORMAT
100
AcDbSpline
 62
7
420
8437759
  6
CONTINUOUS
 70
0
 71
3
 72
8
 73
4
 74
0
 42
0.0000001
 43
0.0000001
 44
0.0000000001
 40
0.0
 40
0.0
 40
0.0
 40
0.0
 40
1.0
 40
1.0
 40
1.0
 40
1.0
 10
153.2297966895
 20
31.9331386496
 30
0.0
 10
153.6207311273
 20
31.8316757214
 30
0.0
 10
154.2766075755
 20
31.7952238572
 30
0.0
 10
154.9382116464
 20
31.7972781646
 30
0.0
  0
LINE
  5
241
100
AcDbEntity
  8
0-PT-PCBFORMAT
100
AcDbLine
 62
7
420
8437759
  6
CONTINUOUS
 10
154.9382116464
 20
31.7972781646
 11
154.9382116464
 21
31.7976116395
  0
LINE
  5
242
100
AcDbEntity
  8
0-PT-PCBFORMAT
100
AcDbLine
 62
7
420
8437759
  6
CONTINUOUS
 10
154.9382116464
 20
31.7976116395
 11
154.9383287445
 21
31.7972781646
  0
SPLINE
  5
243
100
AcDbEntity
  8
0-PT-PCBFORMAT
100
AcDbSpline
 62
7
420
8437759
  6
CONTINUOUS
 70
0
 71
3
 72
8
 73
4
 74
0
 42
0.0000001
 43
0.0000001
 44
0.0000000001
 40
0.0
 40
0.0
 40
0.0
 40
0.0
 40
1.0
 40
1.0
 40
1.0
 40
1.0
 10
154.9383287445
 20
31.7972781646
 30
0.0
 10
155.5999328154
 20
31.7952238572
 30
0.0
 10
156.2558041724
 20
31.8316757214
 30
0.0
 10
156.6467386102
 20
31.9331386496
 30
0.0
  0
SPLINE
  5
244
100
AcDbEntity
  8
0-PT-PCBFORMAT
100
AcDbSpline
 62
7
420
8437759
  6
CONTINUOUS
 70
0
 71
3
 72
8
 73
4
 74
0
 42
0.0000001
 43
0.0000001
 44
0.0000000001
 40
0.0
 40
0.0
 40
0.0
 40
0.0
 40
1.0
 40
1.0
 40
1.0
 40
1.0
 10
156.6467386102
 20
31.9331386496
 30
0.0
 10
157.1222483987
 20
32.056552374
 30
0.0
 10
157.9457176349
 20
32.3431778914
 30
0.0
 10
158.4037899941
 20
32.8380432265
 30
0.0
  0
SPLINE
  5
245
100
AcDbEntity
  8
0-PT-PCBFORMAT
100
AcDbSpline
 62
7
420
8437759
  6
CONTINUOUS
 70
0
 71
3
 72
8
 73
4
 74
0
 42
0.0000001
 43
0.0000001
 44
0.0000000001
 40
0.0
 40
0.0
 40
0.0
 40
0.0
 40
1.0
 40
1.0
 40
1.0
 40
1.0
 10
158.4037899941
 20
32.8380432265
 30
0.0
 10
158.732637001
 20
33.1933009384
 30
0.0
 10
158.7666183505
 20
33.5799345679
 30
0.0
 10
159.2680908167
 20
33.9333288932
 30
0.0
  0
SPLINE
  5
246
100
AcDbEntity
  8
0-PT-PCBFORMAT
100
AcDbSpline
 62
7
420
8437759
  6
CONTINUOUS
 70
0
 71
3
 72
8
 73
4
 74
0
 42
0.0000001
 43
0.0000001
 44
0.0000000001
 40
0.0
 40
0.0
 40
0.0
 40
0.0
 40
1.0
 40
1.0
 40
1.0
 40
1.0
 10
159.2680908167
 20
33.9333288932
 30
0.0
 10
159.9428327815
 20
34.4088284993
 30
0.0
 10
159.7298543105
 20
34.8051558121
 30
0.0
 10
159.4808681844
 20
35.0507180926
 30
0.0
  0
ARC
  5
247
100
AcDbEntity
  8
0-PT-PCBFORMAT
100
AcDbCircle
 62
7
420
8437759
  6
CONTINUOUS
 10
154.280056271
 20
41.2319838721
 40
0.5652221089
100
AcDbArc
 50
270.230423258
 51
0.2296531291
  0
ARC
  5
248
100
AcDbEntity
  8
0-PT-PCBFORMAT
100
AcDbCircle
 62
7
420
8437759
  6
CONTINUOUS
 10
154.2800641732
 20
41.2319821673
 40
0.5652203724
100
AcDbArc
 50
180.2302472296
 51
270.2296229266
  0
ARC
  5
249
100
AcDbEntity
  8
0-PT-PCBFORMAT
100
AcDbCircle
 62
7
420
8437759
  6
CONTINUOUS
 10
154.2800611062
 20
41.2319790756
 40
0.565217293
100
AcDbArc
 50
0.230141309
 51
180.2299350781
  0
ARC
  5
24A
100
AcDbEntity
  8
0-PT-PCBFORMAT
100
AcDbCircle
 62
7
420
8437759
  6
CONTINUOUS
 10
153.7583235935
 20
40.3189339926
 40
0.2608679085
100
AcDbArc
 50
270.2294560144
 51
0.2306203725
  0
ARC
  5
24B
100
AcDbEntity
  8
0-PT-PCBFORMAT
100
AcDbCircle
 62
7
420
8437759
  6
CONTINUOUS
 10
153.7583199293
 20
40.3189335343
 40
0.2608674649
100
AcDbArc
 50
180.2293585812
 51
270.2302612127
  0
ARC
  5
24C
100
AcDbEntity
  8
0-PT-PCBFORMAT
100
AcDbCircle
 62
7
420
8437759
  6
CONTINUOUS
 10
153.7583219759
 20
40.3189355973
 40
0.2608695197
100
AcDbArc
 50
0.2302664901
 51
180.229809897
  0
SPLINE
  5
24D
100
AcDbEntity
  8
0-PT-PCBFORMAT
100
AcDbSpline
 62
7
420
8437759
  6
CONTINUOUS
 70
0
 71
3
 72
8
 73
4
 74
0
 42
0.0000001
 43
0.0000001
 44
0.0000000001
 40
0.0
 40
0.0
 40
0.0
 40
0.0
 40
1.0
 40
1.0
 40
1.0
 40
1.0
 10
156.8986495747
 20
34.405428837
 30
0.0
 10
156.8996576363
 20
34.6559588756
 30
0.0
 10
156.7358934458
 20
34.8597133283
 30
0.0
 10
156.5328759473
 20
34.8605291963
 30
0.0
  0
LINE
  5
24E
100
AcDbEntity
  8
0-PT-PCBFORMAT
100
AcDbLine
 62
7
420
8437759
  6
CONTINUOUS
 10
156.5328759473
 20
34.8605291963
 11
156.4522310186
 21
34.8608524888
  0
SPLINE
  5
24F
100
AcDbEntity
  8
0-PT-PCBFORMAT
100
AcDbSpline
 62
7
420
8437759
  6
CONTINUOUS
 70
0
 71
3
 72
8
 73
4
 74
0
 42
0.0000001
 43
0.0000001
 44
0.0000000001
 40
0.0
 40
0.0
 40
0.0
 40
0.0
 40
1.0
 40
1.0
 40
1.0
 40
1.0
 10
156.4522310186
 20
34.8608524888
 30
0.0
 10
156.2492135201
 20
34.8616683569
 30
0.0
 10
156.0838175936
 20
34.6592338031
 30
0.0
 10
156.0828120776
 20
34.4087050372
 30
0.0
  0
LINE
  5
250
100
AcDbEntity
  8
0-PT-PCBFORMAT
100
AcDbLine
 62
7
420
8437759
  6
CONTINUOUS
 10
156.0828120776
 20
34.4087050372
 11
156.0812847115
 21
34.0288287298
  0
SPLINE
  5
251
100
AcDbEntity
  8
0-PT-PCBFORMAT
100
AcDbSpline
 62
7
420
8437759
  6
CONTINUOUS
 70
0
 71
3
 72
8
 73
4
 74
0
 42
0.0000001
 43
0.0000001
 44
0.0000000001
 40
0.0
 40
0.0
 40
0.0
 40
0.0
 40
1.0
 40
1.0
 40
1.0
 40
1.0
 10
156.0812847115
 20
34.0288287298
 30
0.0
 10
156.0803224709
 20
33.788785332
 30
0.0
 10
156.2372313333
 20
33.5935586733
 30
0.0
 10
156.4317541308
 20
33.5927784438
 30
0.0
  0
SPLINE
  5
252
100
AcDbEntity
  8
0-PT-PCBFORMAT
100
AcDbSpline
 62
7
420
8437759
  6
CONTINUOUS
 70
0
 71
3
 72
8
 73
4
 74
0
 42
0.0000001
 43
0.0000001
 44
0.0000000001
 40
0.0
 40
0.0
 40
0.0
 40
0.0
 40
1.0
 40
1.0
 40
1.0
 40
1.0
 10
156.4317541308
 20
33.5927784438
 30
0.0
 10
156.4317541308
 20
33.5927784438
 30
0.0
 10
156.7049286443
 20
33.5555399861
 30
0.0
 10
156.8252087226
 20
33.7168858469
 30
0.0
  0
SPLINE
  5
253
100
AcDbEntity
  8
0-PT-PCBFORMAT
100
AcDbSpline
 62
7
420
8437759
  6
CONTINUOUS
 70
0
 71
3
 72
8
 73
4
 74
0
 42
0.0000001
 43
0.0000001
 44
0.0000000001
 40
0.0
 40
0.0
 40
0.0
 40
0.0
 40
1.0
 40
1.0
 40
1.0
 40
1.0
 10
156.8252087226
 20
33.7168858469
 30
0.0
 10
156.9702983172
 20
33.9115104689
 30
0.0
 10
156.8986495747
 20
34.405428837
 30
0.0
 10
156.8986495747
 20
34.405428837
 30
0.0
  0
LINE
  5
254
100
AcDbEntity
  8
0-PT-PCBFORMAT
100
AcDbLine
 62
7
420
8437759
  6
CONTINUOUS
 10
153.424309237
 20
34.8608524888
 11
153.3436643083
 21
34.8605291963
  0
SPLINE
  5
255
100
AcDbEntity
  8
0-PT-PCBFORMAT
100
AcDbSpline
 62
7
420
8437759
  6
CONTINUOUS
 70
0
 71
3
 72
8
 73
4
 74
0
 42
0.0000001
 43
0.0000001
 44
0.0000000001
 40
0.0
 40
0.0
 40
0.0
 40
0.0
 40
1.0
 40
1.0
 40
1.0
 40
1.0
 10
153.3436643083
 20
34.8605291963
 30
0.0
 10
153.1406442641
 20
34.8597133283
 30
0.0
 10
152.9768826193
 20
34.6559588756
 30
0.0
 10
152.9778855897
 20
34.405428837
 30
0.0
  0
SPLINE
  5
256
100
AcDbEntity
  8
0-PT-PCBFORMAT
100
AcDbSpline
 62
7
420
8437759
  6
CONTINUOUS
 70
0
 71
3
 72
8
 73
4
 74
0
 42
0.0000001
 43
0.0000001
 44
0.0000000001
 40
0.0
 40
0.0
 40
0.0
 40
0.0
 40
1.0
 40
1.0
 40
1.0
 40
1.0
 10
152.9778855897
 20
34.405428837
 30
0.0
 10
152.9778855897
 20
34.405428837
 30
0.0
 10
152.9062419384
 20
33.9115104689
 30
0.0
 10
153.051331533
 20
33.7168858469
 30
0.0
  0
SPLINE
  5
257
100
AcDbEntity
  8
0-PT-PCBFORMAT
100
AcDbSpline
 62
7
420
8437759
  6
CONTINUOUS
 70
0
 71
3
 72
8
 73
4
 74
0
 42
0.0000001
 43
0.0000001
 44
0.0000000001
 40
0.0
 40
0.0
 40
0.0
 40
0.0
 40
1.0
 40
1.0
 40
1.0
 40
1.0
 10
153.051331533
 20
33.7168858469
 30
0.0
 10
153.1716116113
 20
33.5555399861
 30
0.0
 10
153.4447861248
 20
33.5927784438
 30
0.0
 10
153.4447861248
 20
33.5927784438
 30
0.0
  0
SPLINE
  5
258
100
AcDbEntity
  8
0-PT-PCBFORMAT
100
AcDbSpline
 62
7
420
8437759
  6
CONTINUOUS
 70
0
 71
3
 72
8
 73
4
 74
0
 42
0.0000001
 43
0.0000001
 44
0.0000000001
 40
0.0
 40
0.0
 40
0.0
 40
0.0
 40
1.0
 40
1.0
 40
1.0
 40
1.0
 10
153.4447861248
 20
33.5927784438
 30
0.0
 10
153.6393063767
 20
33.5935586733
 30
0.0
 10
153.7962152391
 20
33.788785332
 30
0.0
 10
153.7952504528
 20
34.0288287298
 30
0.0
  0
LINE
  5
259
100
AcDbEntity
  8
0-PT-PCBFORMAT
100
AcDbLine
 62
7
420
8437759
  6
CONTINUOUS
 10
153.7952504528
 20
34.0288287298
 11
153.793728178
 21
34.4087050372
  0
SPLINE
  5
25A
100
AcDbEntity
  8
0-PT-PCBFORMAT
100
AcDbSpline
 62
7
420
8437759
  6
CONTINUOUS
 70
0
 71
3
 72
8
 73
4
 74
0
 42
0.0000001
 43
0.0000001
 44
0.0000000001
 40
0.0
 40
0.0
 40
0.0
 40
0.0
 40
1.0
 40
1.0
 40
1.0
 40
1.0
 10
153.793728178
 20
34.4087050372
 30
0.0
 10
153.7927201164
 20
34.6592338031
 30
0.0
 10
153.6273267355
 20
34.8616683569
 30
0.0
 10
153.424309237
 20
34.8608524888
 30
0.0
  0
ENDBLK
  5
25B
100
AcDbEntity
  8
0
  6
BYBLOCK
 62
0
100
AcDbBlockEnd
  0
BLOCK
  5
25C
100
AcDbEntity
  8
0
100
AcDbBlockBegin
  2
_FILLED
 70
64
 10
0.0
 20
0.0
  3
_FILLED
  1

  0
SOLID
  5
25D
100
AcDbEntity
  8
0
  6
BYBLOCK
 62
0
100
AcDbTrace
 10
0.0
 20
0.0
 11
-1.0
 21
0.1666666667
 12
-1.0
 22
-0.1666666667
 13
-1.0
 23
-0.1666666667
  0
ENDBLK
  5
25E
100
AcDbEntity
  8
0
  6
BYBLOCK
 62
0
100
AcDbBlockEnd
  0
BLOCK
  5
25F
100
AcDbEntity
  8
0-PT-PCBDIM
100
AcDbBlockBegin
 62
2
  6
CONTINUOUS
  2
*D0
 70
65
 10
0.0
 20
0.0
  3
*D0
  1

  0
MTEXT
  5
260
100
AcDbEntity
  8
0-PT-PCBDIM
100
AcDbMText
 62
2
  6
CONTINUOUS
  7
STANDARD
 71
2
 72
1
 10
78.4736826923
 20
155.0620096154
 30
0.0
 11
1.0
 21
0.0
 31
0.0
 73
2
 44
0.9
  1
48.00
 40
3.0
 41
10.405904059
  0
LINE
  5
261
100
AcDbEntity
  8
0-PT-PCBDIM
100
AcDbLine
 62
2
  6
CONTINUOUS
 10
54.890625
 20
138.9418269231
 11
54.890625
 21
153.8120096154
  0
LINE
  5
262
100
AcDbEntity
  8
0-PT-PCBDIM
100
AcDbLine
 62
2
  6
CONTINUOUS
 10
102.890625
 20
138.9418269231
 11
102.890625
 21
153.8120096154
  0
LINE
  5
263
100
AcDbEntity
  8
0-PT-PCBDIM
100
AcDbLine
 62
2
  6
CONTINUOUS
 10
54.890625
 20
151.3120096154
 11
78.890625
 21
151.3120096154
  0
LINE
  5
264
100
AcDbEntity
  8
0-PT-PCBDIM
100
AcDbLine
 62
2
  6
CONTINUOUS
 10
102.890625
 20
151.3120096154
 11
78.890625
 21
151.3120096154
  0
INSERT
  5
265
100
AcDbEntity
  8
0-PT-PCBDIM
100
AcDbBlockReference
 62
2
  6
CONTINUOUS
  2
_FILLED
 10
54.890625
 20
151.3120096154
 41
3.0
 42
3.0
 43
3.0
 50
180.0
  0
INSERT
  5
266
100
AcDbEntity
  8
0-PT-PCBDIM
100
AcDbBlockReference
 62
2
  6
CONTINUOUS
  2
_FILLED
 10
102.890625
 20
151.3120096154
 41
3.0
 42
3.0
 43
3.0
  0
ENDBLK
  5
267
100
AcDbEntity
  8
0
  6
BYBLOCK
 62
0
100
AcDbBlockEnd
  0
BLOCK
  5
268
100
AcDbEntity
  8
0-PT-PCBDIM
100
AcDbBlockBegin
 62
2
  6
CONTINUOUS
  2
*D1
 70
65
 10
0.0
 20
0.0
  3
*D1
  1

  0
MTEXT
  5
269
100
AcDbEntity
  8
0-PT-PCBDIM
100
AcDbMText
 62
2
  6
CONTINUOUS
  7
STANDARD
 71
2
 72
1
 10
32.8695288462
 20
110.5544711538
 30
0.0
 11
0.0
 21
1.0
 31
0.0
 73
2
 44
0.9
  1
64.20
 40
3.0
 41
10.405904059
  0
LINE
  5
26A
100
AcDbEntity
  8
0-PT-PCBDIM
100
AcDbLine
 62
2
  6
CONTINUOUS
 10
56.690625
 20
140.7418269231
 11
34.1195288462
 21
140.7418269231
  0
LINE
  5
26B
100
AcDbEntity
  8
0-PT-PCBDIM
100
AcDbLine
 62
2
  6
CONTINUOUS
 10
56.890625
 20
76.5418269231
 11
34.1195288462
 21
76.5418269231
  0
LINE
  5
26C
100
AcDbEntity
  8
0-PT-PCBDIM
100
AcDbLine
 62
2
  6
CONTINUOUS
 10
36.6195288462
 20
140.7418269231
 11
36.6195288462
 21
108.6418269231
  0
LINE
  5
26D
100
AcDbEntity
  8
0-PT-PCBDIM
100
AcDbLine
 62
2
  6
CONTINUOUS
 10
36.6195288462
 20
76.5418269231
 11
36.6195288462
 21
108.6418269231
  0
INSERT
  5
26E
100
AcDbEntity
  8
0-PT-PCBDIM
100
AcDbBlockReference
 62
2
  6
CONTINUOUS
  2
_FILLED
 10
36.6195288462
 20
140.7418269231
 41
3.0
 42
3.0
 43
3.0
 50
90.0
  0
INSERT
  5
26F
100
AcDbEntity
  8
0-PT-PCBDIM
100
AcDbBlockReference
 62
2
  6
CONTINUOUS
  2
_FILLED
 10
36.6195288462
 20
76.5418269231
 41
3.0
 42
3.0
 43
3.0
 50
270.0
  0
ENDBLK
  5
270
100
AcDbEntity
  8
0
  6
BYBLOCK
 62
0
100
AcDbBlockEnd
  0
BLOCK
  5
271
100
AcDbEntity
  8
0-PT-PCBDIM
100
AcDbBlockBegin
 62
2
  6
CONTINUOUS
  2
*D2
 70
65
 10
0.0
 20
0.0
  3
*D2
  1

  0
MTEXT
  5
272
100
AcDbEntity
  8
0-PT-PCBDIM
100
AcDbMText
 62
2
  6
CONTINUOUS
  7
STANDARD
 71
1
 72
1
 10
171.4078232186
 20
156.4373629909
 30
0.0
 11
1.0
 21
0.0
 31
0.0
 73
2
 44
0.9
  1
1.00
 40
3.0
 41
8.3247232472
  0
LINE
  5
273
100
AcDbEntity
  8
0-PT-PCBDIM
100
AcDbLine
 62
2
  6
CONTINUOUS
 10
166.6125
 20
138.9418269231
 11
166.6125
 21
155.1873629909
  0
LINE
  5
274
100
AcDbEntity
  8
0-PT-PCBDIM
100
AcDbLine
 62
2
  6
CONTINUOUS
 10
167.6125
 20
138.9418269231
 11
167.6125
 21
155.1873629909
  0
LINE
  5
275
100
AcDbEntity
  8
0-PT-PCBDIM
100
AcDbLine
 62
2
  6
CONTINUOUS
 10
166.6125
 20
152.6873629909
 11
163.6125
 21
152.6873629909
  0
LINE
  5
276
100
AcDbEntity
  8
0-PT-PCBDIM
100
AcDbLine
 62
2
  6
CONTINUOUS
 10
163.6125
 20
152.6873629909
 11
167.1125
 21
152.6873629909
  0
LINE
  5
277
100
AcDbEntity
  8
0-PT-PCBDIM
100
AcDbLine
 62
2
  6
CONTINUOUS
 10
167.6125
 20
152.6873629909
 11
179.7325464658
 21
152.6873629909
  0
LINE
  5
278
100
AcDbEntity
  8
0-PT-PCBDIM
100
AcDbLine
 62
2
  6
CONTINUOUS
 10
179.7325464658
 20
152.6873629909
 11
167.1125
 21
152.6873629909
  0
INSERT
  5
279
100
AcDbEntity
  8
0-PT-PCBDIM
100
AcDbBlockReference
 62
2
  6
CONTINUOUS
  2
_FILLED
 10
166.6125
 20
152.6873629909
 41
3.0
 42
3.0
 43
3.0
  0
INSERT
  5
27A
100
AcDbEntity
  8
0-PT-PCBDIM
100
AcDbBlockReference
 62
2
  6
CONTINUOUS
  2
_FILLED
 10
167.6125
 20
152.6873629909
 41
3.0
 42
3.0
 43
3.0
 50
180.0
  0
ENDBLK
  5
27B
100
AcDbEntity
  8
0
  6
BYBLOCK
 62
0
100
AcDbBlockEnd
  0
BLOCK
  5
27C
100
AcDbEntity
  8
0
100
AcDbBlockBegin
  2
*T1
 70
1
 10
0.0
 20
0.0
  3
*T1
  1

  0
LINE
  5
27D
100
AcDbEntity
  8
0
100
AcDbLine
 62
2
  6
CONTINUOUS
 10
0.0
 20
0.0
 11
183.4
 21
0.0
  0
LINE
  5
27E
100
AcDbEntity
  8
0
100
AcDbLine
 62
2
  6
CONTINUOUS
 10
0.0
 20
0.0
 11
0.0
 21
-35.0
  0
LINE
  5
27F
100
AcDbEntity
  8
0
100
AcDbLine
 62
2
  6
CONTINUOUS
 10
0.0
 20
-7.0
 11
183.4
 21
-7.0
  0
LINE
  5
280
100
AcDbEntity
  8
0
100
AcDbLine
 62
2
  6
CONTINUOUS
 10
0.0
 20
-14.0
 11
183.4
 21
-14.0
  0
LINE
  5
281
100
AcDbEntity
  8
0
100
AcDbLine
 62
2
  6
CONTINUOUS
 10
0.0
 20
-21.0
 11
183.4
 21
-21.0
  0
LINE
  5
282
100
AcDbEntity
  8
0
100
AcDbLine
 62
2
  6
CONTINUOUS
 10
0.0
 20
-28.0
 11
183.4
 21
-28.0
  0
LINE
  5
283
100
AcDbEntity
  8
0
100
AcDbLine
 62
2
  6
CONTINUOUS
 10
0.0
 20
-35.0
 11
183.4
 21
-35.0
  0
LINE
  5
284
100
AcDbEntity
  8
0
100
AcDbLine
 62
2
  6
CONTINUOUS
 10
14.0
 20
0.0
 11
14.0
 21
-35.0
  0
LINE
  5
285
100
AcDbEntity
  8
0
100
AcDbLine
 62
2
  6
CONTINUOUS
 10
30.8
 20
0.0
 11
30.8
 21
-35.0
  0
LINE
  5
286
100
AcDbEntity
  8
0
100
AcDbLine
 62
2
  6
CONTINUOUS
 10
47.6
 20
0.0
 11
47.6
 21
-35.0
  0
LINE
  5
287
100
AcDbEntity
  8
0
100
AcDbLine
 62
2
  6
CONTINUOUS
 10
127.6
 20
0.0
 11
127.6
 21
-35.0
  0
LINE
  5
288
100
AcDbEntity
  8
0
100
AcDbLine
 62
2
  6
CONTINUOUS
 10
158.4
 20
0.0
 11
158.4
 21
-35.0
  0
LINE
  5
289
100
AcDbEntity
  8
0
100
AcDbLine
 62
2
  6
CONTINUOUS
 10
183.4
 20
0.0
 11
183.4
 21
-35.0
  0
MTEXT
  5
28A
100
AcDbEntity
  8
0
100
AcDbMText
 62
2
  6
CONTINUOUS
  7
STANDARD
 71
2
 72
1
 10
7.0
 20
-1.75
 30
0.0
 11
1.0
 21
0.0
 31
0.0
 73
2
 44
0.9
  1
Rev.
 40
3.5
 41
19.4243542435
  0
MTEXT
  5
28B
100
AcDbEntity
  8
0
100
AcDbMText
 62
2
  6
CONTINUOUS
  7
STANDARD
 71
2
 72
1
 10
22.4
 20
-1.75
 30
0.0
 11
1.0
 21
0.0
 31
0.0
 73
2
 44
0.9
  1
Sym.
 40
3.5
 41
19.4243542435
  0
MTEXT
  5
28C
100
AcDbEntity
  8
0
100
AcDbMText
 62
2
  6
CONTINUOUS
  7
STANDARD
 71
2
 72
1
 10
39.2
 20
-1.75
 30
0.0
 11
1.0
 21
0.0
 31
0.0
 73
2
 44
0.9
  1
Q'ty.
 40
3.5
 41
24.2804428044
  0
MTEXT
  5
28D
100
AcDbEntity
  8
0
100
AcDbMText
 62
2
  6
CONTINUOUS
  7
STANDARD
 71
2
 72
1
 10
87.6
 20
-1.75
 30
0.0
 11
1.0
 21
0.0
 31
0.0
 73
2
 44
0.9
  1
Change Description
 40
3.5
 41
87.4095940959
  0
MTEXT
  5
28E
100
AcDbEntity
  8
0
100
AcDbMText
 62
2
  6
CONTINUOUS
  7
STANDARD
 71
2
 72
1
 10
143.0
 20
-1.75
 30
0.0
 11
1.0
 21
0.0
 31
0.0
 73
2
 44
0.9
  1
Changed by
 40
3.5
 41
48.5608856089
  0
MTEXT
  5
28F
100
AcDbEntity
  8
0
100
AcDbMText
 62
2
  6
CONTINUOUS
  7
STANDARD
 71
2
 72
1
 10
170.9
 20
-1.75
 30
0.0
 11
1.0
 21
0.0
 31
0.0
 73
2
 44
0.9
  1
date
 40
3.5
 41
19.4243542435
  0
ENDBLK
  5
290
100
AcDbEntity
  8
0
  6
BYBLOCK
 62
0
100
AcDbBlockEnd
  0
BLOCK
  5
291
100
AcDbEntity
  8
0
100
AcDbBlockBegin
  2
*T2
 70
1
 10
0.0
 20
0.0
  3
*T2
  1

  0
LINE
  5
292
100
AcDbEntity
  8
0
100
AcDbLine
 62
2
  6
CONTINUOUS
 10
0.0
 20
0.0
 11
187.8
 21
0.0
  0
LINE
  5
293
100
AcDbEntity
  8
0
100
AcDbLine
 62
2
  6
CONTINUOUS
 10
0.0
 20
0.0
 11
0.0
 21
-33.0
  0
LINE
  5
294
100
AcDbEntity
  8
0
100
AcDbLine
 62
2
  6
CONTINUOUS
 10
0.0
 20
-9.0
 11
50.8
 21
-9.0
  0
LINE
  5
295
100
AcDbEntity
  8
0
100
AcDbLine
 62
2
  6
CONTINUOUS
 10
95.8
 20
-9.0
 11
187.8
 21
-9.0
  0
LINE
  5
296
100
AcDbEntity
  8
0
100
AcDbLine
 62
2
  6
CONTINUOUS
 10
0.0
 20
-13.0
 11
95.8
 21
-13.0
  0
LINE
  5
297
100
AcDbEntity
  8
0
100
AcDbLine
 62
2
  6
CONTINUOUS
 10
30.8
 20
-18.0
 11
187.8
 21
-18.0
  0
LINE
  5
298
100
AcDbEntity
  8
0
100
AcDbLine
 62
2
  6
CONTINUOUS
 10
30.8
 20
-23.0
 11
187.8
 21
-23.0
  0
LINE
  5
299
100
AcDbEntity
  8
0
100
AcDbLine
 62
2
  6
CONTINUOUS
 10
0.0
 20
-28.0
 11
187.8
 21
-28.0
  0
LINE
  5
29A
100
AcDbEntity
  8
0
100
AcDbLine
 62
2
  6
CONTINUOUS
 10
0.0
 20
-33.0
 11
187.8
 21
-33.0
  0
LINE
  5
29B
100
AcDbEntity
  8
0
100
AcDbLine
 62
2
  6
CONTINUOUS
 10
30.8
 20
0.0
 11
30.8
 21
-9.0
  0
LINE
  5
29C
100
AcDbEntity
  8
0
100
AcDbLine
 62
2
  6
CONTINUOUS
 10
30.8
 20
-13.0
 11
30.8
 21
-28.0
  0
LINE
  5
29D
100
AcDbEntity
  8
0
100
AcDbLine
 62
2
  6
CONTINUOUS
 10
50.8
 20
0.0
 11
50.8
 21
-28.0
  0
LINE
  5
29E
100
AcDbEntity
  8
0
100
AcDbLine
 62
2
  6
CONTINUOUS
 10
60.8
 20
0.0
 11
60.8
 21
-13.0
  0
LINE
  5
29F
100
AcDbEntity
  8
0
100
AcDbLine
 62
2
  6
CONTINUOUS
 10
75.8
 20
-13.0
 11
75.8
 21
-28.0
  0
LINE
  5
2A0
100
AcDbEntity
  8
0
100
AcDbLine
 62
2
  6
CONTINUOUS
 10
95.8
 20
0.0
 11
95.8
 21
-28.0
  0
LINE
  5
2A1
100
AcDbEntity
  8
0
100
AcDbLine
 62
2
  6
CONTINUOUS
 10
117.8
 20
0.0
 11
117.8
 21
-28.0
  0
LINE
  5
2A2
100
AcDbEntity
  8
0
100
AcDbLine
 62
2
  6
CONTINUOUS
 10
137.8
 20
-18.0
 11
137.8
 21
-28.0
  0
LINE
  5
2A3
100
AcDbEntity
  8
0
100
AcDbLine
 62
2
  6
CONTINUOUS
 10
162.8
 20
-18.0
 11
162.8
 21
-28.0
  0
LINE
  5
2A4
100
AcDbEntity
  8
0
100
AcDbLine
 62
2
  6
CONTINUOUS
 10
187.8
 20
0.0
 11
187.8
 21
-33.0
  0
MTEXT
  5
2A5
100
AcDbEntity
  8
0
100
AcDbMText
 62
2
  6
CONTINUOUS
  7
STANDARD
 71
2
 72
1
 10
15.4
 20
-3.0
 30
0.0
 11
1.0
 21
0.0
 31
0.0
 73
2
 44
0.9
  1
Project
 40
3.0
 41
29.1365313653
  0
MTEXT
  5
2A6
100
AcDbEntity
  8
0
100
AcDbMText
 62
2
  6
CONTINUOUS
  7
STANDARD
 71
2
 72
1
 10
78.3
 20
-4.95
 30
0.0
 11
1.0
 21
0.0
 31
0.0
 73
2
 44
0.9
  1
Whale Co.,LTD
 40
3.1
 41
55.9143911439
  0
MTEXT
  5
2A7
100
AcDbEntity
  8
0
100
AcDbMText
 62
2
  6
CONTINUOUS
  7
STANDARD
 71
2
 72
1
 10
106.8
 20
-3.0
 30
0.0
 11
1.0
 21
0.0
 31
0.0
 73
2
 44
0.9
  1
Part Name
 40
3.0
 41
37.4612546125
  0
MTEXT
  5
2A8
100
AcDbEntity
  8
0
100
AcDbMText
 62
2
  6
CONTINUOUS
  7
STANDARD
 71
2
 72
1
 10
152.8
 20
-2.5
 30
0.0
 11
1.0
 21
0.0
 31
0.0
 73
2
 44
0.9
  1
0-PT-PCB
 40
4.0
 41
44.3985239852
  0
MTEXT
  5
2A9
100
AcDbEntity
  8
0
100
AcDbMText
 62
2
  6
CONTINUOUS
  7
TEXTSTYLE_2
 71
2
 72
1
 10
25.4
 20
-9.5
 30
0.0
 11
1.0
 21
0.0
 31
0.0
 73
2
 44
0.9
  1
Unit: mm
 40
3.0
 41
33.2988929889
  0
MTEXT
  5
2AA
100
AcDbEntity
  8
0
100
AcDbMText
 62
2
  6
CONTINUOUS
  7
STANDARD
 71
2
 72
1
 10
106.8
 20
-12.0
 30
0.0
 11
1.0
 21
0.0
 31
0.0
 73
2
 44
0.9
  1
Part No
 40
3.0
 41
29.1365313653
  0
MTEXT
  5
2AB
100
AcDbEntity
  8
0
100
AcDbMText
 62
2
  6
CONTINUOUS
  7
STANDARD
 71
2
 72
1
 10
15.4
 20
-13.2895600652
 30
0.0
 11
1.0
 21
0.0
 31
0.0
 73
2
 44
0.9
  1
Third angle system
 40
2.0
 41
49.9483394834
  0
MTEXT
  5
2AC
100
AcDbEntity
  8
0
100
AcDbMText
 62
2
  6
CONTINUOUS
  7
TEXTSTYLE_3
 71
2
 72
1
 10
40.8
 20
-14.25
 30
0.0
 11
1.0
 21
0.0
 31
0.0
 73
2
 44
0.9
  1
Design
 40
2.5
 41
20.8118081181
  0
MTEXT
  5
2AD
100
AcDbEntity
  8
0
100
AcDbMText
 62
2
  6
CONTINUOUS
  7
TEXTSTYLE_3
 71
2
 72
1
 10
85.8
 20
-14.25
 30
0.0
 11
1.0
 21
0.0
 31
0.0
 73
2
 44
0.9
  1
May-23-16
 40
2.5
 41
31.2177121771
  0
MTEXT
  5
2AE
100
AcDbEntity
  8
0
100
AcDbMText
 62
2
  6
CONTINUOUS
  7
TEXTSTYLE_3
 71
2
 72
1
 10
40.8
 20
-19.25
 30
0.0
 11
1.0
 21
0.0
 31
0.0
 73
2
 44
0.9
  1
Check
 40
2.5
 41
17.3431734317
  0
MTEXT
  5
2AF
100
AcDbEntity
  8
0
100
AcDbMText
 62
2
  6
CONTINUOUS
  7
TEXTSTYLE_3
 71
2
 72
1
 10
85.8
 20
-19.25
 30
0.0
 11
1.0
 21
0.0
 31
0.0
 73
2
 44
0.9
  1
May-23-16  
 40
2.5
 41
38.1549815498
  0
MTEXT
  5
2B0
100
AcDbEntity
  8
0
100
AcDbMText
 62
2
  6
CONTINUOUS
  7
TEXTSTYLE_3
 71
2
 72
1
 10
106.8
 20
-19.25
 30
0.0
 11
1.0
 21
0.0
 31
0.0
 73
2
 44
0.9
  1
Material
 40
2.5
 41
27.7490774908
  0
MTEXT
  5
2B1
100
AcDbEntity
  8
0
100
AcDbMText
 62
2
  6
CONTINUOUS
  7
TEXTSTYLE_3
 71
2
 72
1
 10
127.8
 20
-19.25
 30
0.0
 11
1.0
 21
0.0
 31
0.0
 73
2
 44
0.9
  1
See Notes
 40
2.5
 41
31.2177121771
  0
MTEXT
  5
2B2
100
AcDbEntity
  8
0
100
AcDbMText
 62
2
  6
CONTINUOUS
  7
TEXTSTYLE_3
 71
2
 72
1
 10
150.3
 20
-19.25
 30
0.0
 11
1.0
 21
0.0
 31
0.0
 73
2
 44
0.9
  1
Size: A4
 40
2.5
 41
27.7490774908
  0
MTEXT
  5
2B3
100
AcDbEntity
  8
0
100
AcDbMText
 62
2
  6
CONTINUOUS
  7
TEXTSTYLE_3
 71
2
 72
1
 10
175.3
 20
-19.25
 30
0.0
 11
1.0
 21
0.0
 31
0.0
 73
2
 44
0.9
  1
Scale: 1:1
 40
2.5
 41
34.6863468635
  0
MTEXT
  5
2B4
100
AcDbEntity
  8
0
100
AcDbMText
 62
2
  6
CONTINUOUS
  7
TEXTSTYLE_3
 71
2
 72
1
 10
40.8
 20
-24.25
 30
0.0
 11
1.0
 21
0.0
 31
0.0
 73
2
 44
0.9
  1
Approve
 40
2.5
 41
24.2804428044
  0
MTEXT
  5
2B5
100
AcDbEntity
  8
0
100
AcDbMText
 62
2
  6
CONTINUOUS
  7
TEXTSTYLE_3
 71
2
 72
1
 10
85.8
 20
-24.25
 30
0.0
 11
1.0
 21
0.0
 31
0.0
 73
2
 44
0.9
  1
May-23-16  
 40
2.5
 41
38.1549815498
  0
MTEXT
  5
2B6
100
AcDbEntity
  8
0
100
AcDbMText
 62
2
  6
CONTINUOUS
  7
TEXTSTYLE_3
 71
2
 72
1
 10
106.8
 20
-24.25
 30
0.0
 11
1.0
 21
0.0
 31
0.0
 73
2
 44
0.9
  1
Process
 40
2.5
 41
24.2804428044
  0
MTEXT
  5
2B7
100
AcDbEntity
  8
0
100
AcDbMText
 62
2
  6
CONTINUOUS
  7
TEXTSTYLE_3
 71
2
 72
1
 10
127.8
 20
-24.25
 30
0.0
 11
1.0
 21
0.0
 31
0.0
 73
2
 44
0.9
  1
See Notes
 40
2.5
 41
31.2177121771
  0
MTEXT
  5
2B8
100
AcDbEntity
  8
0
100
AcDbMText
 62
2
  6
CONTINUOUS
  7
TEXTSTYLE_3
 71
2
 72
1
 10
150.3
 20
-24.25
 30
0.0
 11
1.0
 21
0.0
 31
0.0
 73
2
 44
0.9
  1
Q'TY:  
 40
2.5
 41
24.2804428044
  0
MTEXT
  5
2B9
100
AcDbEntity
  8
0
100
AcDbMText
 62
2
  6
CONTINUOUS
  7
TEXTSTYLE_3
 71
2
 72
1
 10
175.3
 20
-24.25
 30
0.0
 11
1.0
 21
0.0
 31
0.0
 73
2
 44
0.9
  1
Sheet: 1 of 1
 40
2.5
 41
45.0922509225
  0
MTEXT
  5
2BA
100
AcDbEntity
  8
0
100
AcDbMText
 62
2
  6
CONTINUOUS
  7
STANDARD
 71
2
 72
1
 10
93.9
 20
-29.7
 30
0.0
 11
1.0
 21
0.0
 31
0.0
 73
2
 44
0.9
  1
DRAWING INFORMATION ARE PROPRIETARY TO WHALE. IT IS PROHIBITED TO COPY OR DISCLOSE WHOLLY OR IN PART WITHOUT PRIOR WRITTEN CONSENT OF WHALE.
 40
1.6
 41
310.7896678967
  0
ENDBLK
  5
2BB
100
AcDbEntity
  8
0
  6
BYBLOCK
 62
0
100
AcDbBlockEnd
  0
BLOCK
  5
2BC
100
AcDbEntity
  8
0
100
AcDbBlockBegin
  2
*T3
 70
1
 10
0.0
 20
0.0
  3
*T3
  1

  0
LINE
  5
2BD
100
AcDbEntity
  8
0
100
AcDbLine
 62
2
  6
CONTINUOUS
 10
0.0
 20
0.0
 11
72.8
 21
0.0
  0
LINE
  5
2BE
100
AcDbEntity
  8
0
100
AcDbLine
 62
2
  6
CONTINUOUS
 10
0.0
 20
0.0
 11
0.0
 21
-7.0
  0
LINE
  5
2BF
100
AcDbEntity
  8
0
100
AcDbLine
 62
2
  6
CONTINUOUS
 10
0.0
 20
-7.0
 11
72.8
 21
-7.0
  0
LINE
  5
2C0
100
AcDbEntity
  8
0
100
AcDbLine
 62
2
  6
CONTINUOUS
 10
72.8
 20
0.0
 11
72.8
 21
-7.0
  0
MTEXT
  5
2C1
100
AcDbEntity
  8
0
100
AcDbMText
 62
2
  6
CONTINUOUS
  7
STANDARD
 71
2
 72
1
 10
36.4
 20
-1.5
 30
0.0
 11
1.0
 21
0.0
 31
0.0
 73
2
 44
0.9
  1
COMPANY CONFIDENTIAL
 40
4.0
 41
110.9963099631
  0
ENDBLK
  5
2C2
100
AcDbEntity
  8
0
  6
BYBLOCK
 62
0
100
AcDbBlockEnd
  0
ENDSEC
  0
SECTION
  2
ENTITIES
  0
MTEXT
  5
2C3
100
AcDbEntity
  8
0-PT-PCBFORMAT
100
AcDbMText
 62
2
  6
CONTINUOUS
  7
TEXTSTYLE_2
 71
2
 72
1
 10
33.25
 20
204.5
 30
0.0
 11
1.0
 21
0.0
 31
0.0
 73
2
 44
0.9
  1
1
 40
4.0
 41
2.7749077491
  0
MTEXT
  5
2C4
100
AcDbEntity
  8
0-PT-PCBFORMAT
100
AcDbMText
 62
2
  6
CONTINUOUS
  7
TEXTSTYLE_2
 71
2
 72
1
 10
79.75
 20
204.5
 30
0.0
 11
1.0
 21
0.0
 31
0.0
 73
2
 44
0.9
  1
2
 40
4.0
 41
2.7749077491
  0
MTEXT
  5
2C5
100
AcDbEntity
  8
0-PT-PCBFORMAT
100
AcDbMText
 62
2
  6
CONTINUOUS
  7
TEXTSTYLE_2
 71
2
 72
1
 10
126.25
 20
204.5
 30
0.0
 11
1.0
 21
0.0
 31
0.0
 73
2
 44
0.9
  1
3
 40
4.0
 41
2.7749077491
  0
MTEXT
  5
2C6
100
AcDbEntity
  8
0-PT-PCBFORMAT
100
AcDbMText
 62
2
  6
CONTINUOUS
  7
TEXTSTYLE_2
 71
2
 72
1
 10
172.75
 20
204.5
 30
0.0
 11
1.0
 21
0.0
 31
0.0
 73
2
 44
0.9
  1
4
 40
4.0
 41
2.7749077491
  0
MTEXT
  5
2C7
100
AcDbEntity
  8
0-PT-PCBFORMAT
100
AcDbMText
 62
2
  6
CONTINUOUS
  7
TEXTSTYLE_2
 71
2
 72
1
 10
219.25
 20
204.5
 30
0.0
 11
1.0
 21
0.0
 31
0.0
 73
2
 44
0.9
  1
5
 40
4.0
 41
2.7749077491
  0
MTEXT
  5
2C8
100
AcDbEntity
  8
0-PT-PCBFORMAT
100
AcDbMText
 62
2
  6
CONTINUOUS
  7
TEXTSTYLE_2
 71
2
 72
1
 10
265.75
 20
204.5
 30
0.0
 11
1.0
 21
0.0
 31
0.0
 73
2
 44
0.9
  1
6
 40
4.0
 41
2.7749077491
  0
MTEXT
  5
2C9
100
AcDbEntity
  8
0-PT-PCBFORMAT
100
AcDbMText
 62
2
  6
CONTINUOUS
  7
TEXTSTYLE_2
 71
2
 72
1
 10
33.25
 20
9.5
 30
0.0
 11
1.0
 21
0.0
 31
0.0
 73
2
 44
0.9
  1
1
 40
4.0
 41
2.7749077491
  0
MTEXT
  5
2CA
100
AcDbEntity
  8
0-PT-PCBFORMAT
100
AcDbMText
 62
2
  6
CONTINUOUS
  7
TEXTSTYLE_2
 71
2
 72
1
 10
79.75
 20
9.5
 30
0.0
 11
1.0
 21
0.0
 31
0.0
 73
2
 44
0.9
  1
2
 40
4.0
 41
2.7749077491
  0
MTEXT
  5
2CB
100
AcDbEntity
  8
0-PT-PCBFORMAT
100
AcDbMText
 62
2
  6
CONTINUOUS
  7
TEXTSTYLE_2
 71
2
 72
1
 10
126.25
 20
9.5
 30
0.0
 11
1.0
 21
0.0
 31
0.0
 73
2
 44
0.9
  1
3
 40
4.0
 41
2.7749077491
  0
MTEXT
  5
2CC
100
AcDbEntity
  8
0-PT-PCBFORMAT
100
AcDbMText
 62
2
  6
CONTINUOUS
  7
TEXTSTYLE_2
 71
2
 72
1
 10
172.75
 20
9.5
 30
0.0
 11
1.0
 21
0.0
 31
0.0
 73
2
 44
0.9
  1
4
 40
4.0
 41
2.7749077491
  0
MTEXT
  5
2CD
100
AcDbEntity
  8
0-PT-PCBFORMAT
100
AcDbMText
 62
2
  6
CONTINUOUS
  7
TEXTSTYLE_2
 71
2
 72
1
 10
219.25
 20
9.5
 30
0.0
 11
1.0
 21
0.0
 31
0.0
 73
2
 44
0.9
  1
5
 40
4.0
 41
2.7749077491
  0
MTEXT
  5
2CE
100
AcDbEntity
  8
0-PT-PCBFORMAT
100
AcDbMText
 62
2
  6
CONTINUOUS
  7
TEXTSTYLE_2
 71
2
 72
1
 10
265.75
 20
9.5
 30
0.0
 11
1.0
 21
0.0
 31
0.0
 73
2
 44
0.9
  1
6
 40
4.0
 41
2.7749077491
  0
MTEXT
  5
2CF
100
AcDbEntity
  8
0-PT-PCBFORMAT
100
AcDbMText
 62
2
  6
CONTINUOUS
  7
TEXTSTYLE_2
 71
2
 72
1
 10
7.5
 20
178.25
 30
0.0
 11
1.0
 21
0.0
 31
0.0
 73
2
 44
0.9
  1
A
 40
4.0
 41
2.7749077491
  0
MTEXT
  5
2D0
100
AcDbEntity
  8
0-PT-PCBFORMAT
100
AcDbMText
 62
2
  6
CONTINUOUS
  7
TEXTSTYLE_2
 71
2
 72
1
 10
7.5
 20
130.75
 30
0.0
 11
1.0
 21
0.0
 31
0.0
 73
2
 44
0.9
  1
B
 40
4.0
 41
2.7749077491
  0
MTEXT
  5
2D1
100
AcDbEntity
  8
0-PT-PCBFORMAT
100
AcDbMText
 62
2
  6
CONTINUOUS
  7
TEXTSTYLE_2
 71
2
 72
1
 10
7.5
 20
83.25
 30
0.0
 11
1.0
 21
0.0
 31
0.0
 73
2
 44
0.9
  1
C
 40
4.0
 41
2.7749077491
  0
MTEXT
  5
2D2
100
AcDbEntity
  8
0-PT-PCBFORMAT
100
AcDbMText
 62
2
  6
CONTINUOUS
  7
TEXTSTYLE_2
 71
2
 72
1
 10
7.5
 20
35.75
 30
0.0
 11
1.0
 21
0.0
 31
0.0
 73
2
 44
0.9
  1
D
 40
4.0
 41
2.7749077491
  0
MTEXT
  5
2D3
100
AcDbEntity
  8
0-PT-PCBFORMAT
100
AcDbMText
 62
2
  6
CONTINUOUS
  7
TEXTSTYLE_2
 71
2
 72
1
 10
289.5
 20
178.25
 30
0.0
 11
1.0
 21
0.0
 31
0.0
 73
2
 44
0.9
  1
A
 40
4.0
 41
2.7749077491
  0
MTEXT
  5
2D4
100
AcDbEntity
  8
0-PT-PCBFORMAT
100
AcDbMText
 62
2
  6
CONTINUOUS
  7
TEXTSTYLE_2
 71
2
 72
1
 10
289.5
 20
130.75
 30
0.0
 11
1.0
 21
0.0
 31
0.0
 73
2
 44
0.9
  1
B
 40
4.0
 41
2.7749077491
  0
MTEXT
  5
2D5
100
AcDbEntity
  8
0-PT-PCBFORMAT
100
AcDbMText
 62
2
  6
CONTINUOUS
  7
TEXTSTYLE_2
 71
2
 72
1
 10
289.5
 20
83.25
 30
0.0
 11
1.0
 21
0.0
 31
0.0
 73
2
 44
0.9
  1
C
 40
4.0
 41
2.7749077491
  0
MTEXT
  5
2D6
100
AcDbEntity
  8
0-PT-PCBFORMAT
100
AcDbMText
 62
2
  6
CONTINUOUS
  7
TEXTSTYLE_2
 71
2
 72
1
 10
289.5
 20
35.75
 30
0.0
 11
1.0
 21
0.0
 31
0.0
 73
2
 44
0.9
  1
D
 40
4.0
 41
2.7749077491
  0
MTEXT
  5
2D7
100
AcDbEntity
  8
0-PT-PCBFORMAT
100
AcDbMText
 62
2
  6
CONTINUOUS
  7
STANDARD
 71
2
 72
1
 10
57.830933579
 20
4.3352330515
 30
0.0
 11
1.0
 21
0.0
 31
0.0
 73
2
 44
0.9
  1
HANGZHOU WHALE CO.,LTD.
 40
2.5
 41
39.889298893
  0
INSERT
  5
2D8
100
AcDbEntity
  8
0-PT-PCBFORMAT
100
AcDbBlockReference
 62
2
  6
CONTINUOUS
  2
WHALE_LOGO_BL0
 10
154.9382688431
 20
36.7971964157
  0
DIMENSION
  5
2D9
100
AcDbEntity
  8
0-PT-PCBDIM
100
AcDbDimension
 62
2
  6
CONTINUOUS
  2
*D0
 10
102.890625
 20
151.3120096154
 11
78.4792181854
 21
151.3120096154
 70
160
 71
2
 72
2
 41
0.9
 42
48.0
  3
DIMSTYLE_1
100
AcDbAlignedDimension
 13
54.890625
 23
138.9418269231
 14
102.890625
 24
138.9418269231
100
AcDbRotatedDimension
  0
DIMENSION
  5
2DA
100
AcDbEntity
  8
0-PT-PCBDIM
100
AcDbDimension
 62
2
  6
CONTINUOUS
  2
*D1
 10
36.6195288462
 20
76.5418269231
 11
36.6195288462
 21
110.5876812419
 70
160
 71
2
 72
2
 41
0.9
 42
64.2
  3
DIMSTYLE_1
100
AcDbAlignedDimension
 13
56.690625
 23
140.7418269231
 14
56.890625
 24
76.5418269231
 50
270.0
100
AcDbRotatedDimension
  0
DIMENSION
  5
2DB
100
AcDbEntity
  8
0-PT-PCBDIM
100
AcDbDimension
 62
2
  6
CONTINUOUS
  2
*D2
 10
167.6125
 20
152.6873629909
 11
175.6393720093
 21
152.6873629909
 70
160
 71
1
 72
2
 41
0.9
 42
1.0
  3
DIMSTYLE_1
100
AcDbAlignedDimension
 13
166.6125
 23
138.9418269231
 14
167.6125
 24
138.9418269231
100
AcDbRotatedDimension
  0
ACAD_TABLE
  5
2DC
100
AcDbEntity
  8
0
 62
2
  6
CONTINUOUS
100
AcDbBlockReference
  2
*T1
 10
103.5898017577
 20
199.9825942727
 30
0.0
100
AcDbTable
342
       379
343
214
 11
1.0
 21
0.0
 31
0.0
 90
22
 91
5
 92
6
 93
0
 94
0
 95
0
 96
0
141
7.0
141
7.0
141
7.0
141
7.0
141
7.0
142
14.0
142
16.8
142
16.8
142
80.0
142
30.8
142
25.0
171
1
172
0
173
0
174
0
175
1
176
1
177
33
178
0
145
0.0
  1
Rev.
170
5
140
3.5
171
1
172
0
173
0
174
0
175
1
176
1
177
33
178
0
145
0.0
  1
Sym.
170
5
140
3.5
171
1
172
0
173
0
174
0
175
1
176
1
177
33
178
0
145
0.0
  1
Q'ty.
170
5
140
3.5
171
1
172
0
173
0
174
0
175
1
176
1
177
33
178
0
145
0.0
  1
Change Description
170
5
140
3.5
171
1
172
0
173
0
174
0
175
1
176
1
177
33
178
0
145
0.0
  1
Changed by
170
5
140
3.5
171
1
172
0
173
0
174
0
175
1
176
1
177
33
178
0
145
0.0
  1
date
170
5
140
3.5
171
1
172
0
173
0
174
0
175
1
176
1
177
33
178
0
145
0.0
  1
 
170
5
140
3.5
171
1
172
0
173
0
174
0
175
1
176
1
177
33
178
0
145
0.0
  1
 
170
1
140
3.5
171
1
172
0
173
0
174
0
175
1
176
1
177
33
178
0
145
0.0
  1
 
170
1
140
3.5
171
1
172
0
173
0
174
0
175
1
176
1
177
33
178
0
145
0.0
  1
 
170
1
140
3.5
171
1
172
0
173
0
174
0
175
1
176
1
177
33
178
0
145
0.0
  1
 
170
5
140
3.5
171
1
172
0
173
0
174
0
175
1
176
1
177
33
178
0
145
0.0
  1
 
170
5
140
3.5
171
1
172
0
173
0
174
0
175
1
176
1
177
33
178
0
145
0.0
  1
 
170
1
140
3.5
171
1
172
0
173
0
174
0
175
1
176
1
177
33
178
0
145
0.0
  1
 
170
1
140
3.5
171
1
172
0
173
0
174
0
175
1
176
1
177
33
178
0
145
0.0
  1
 
170
1
140
3.5
171
1
172
0
173
0
174
0
175
1
176
1
177
33
178
0
145
0.0
  1
 
170
1
140
3.5
171
1
172
0
173
0
174
0
175
1
176
1
177
33
178
0
145
0.0
  1
 
170
1
140
3.5
171
1
172
0
173
0
174
0
175
1
176
1
177
33
178
0
145
0.0
  1
 
170
1
140
3.5
171
1
172
0
173
0
174
0
175
1
176
1
177
33
178
0
145
0.0
  1
 
170
1
140
3.5
171
1
172
0
173
0
174
0
175
1
176
1
177
33
178
0
145
0.0
  1
 
170
1
140
3.5
171
1
172
0
173
0
174
0
175
1
176
1
177
33
178
0
145
0.0
  1
 
170
1
140
3.5
171
1
172
0
173
0
174
0
175
1
176
1
177
33
178
0
145
0.0
  1
 
170
1
140
3.5
171
1
172
0
173
0
174
0
175
1
176
1
177
33
178
0
145
0.0
  1
 
170
1
140
3.5
171
1
172
0
173
0
174
0
175
1
176
1
177
33
178
0
145
0.0
  1
 
170
1
140
3.5
171
1
172
0
173
0
174
0
175
1
176
1
177
33
178
0
145
0.0
  1
 
170
5
140
3.5
171
1
172
0
173
0
174
0
175
1
176
1
177
33
178
0
145
0.0
  1
 
170
1
140
3.5
171
1
172
0
173
0
174
0
175
1
176
1
177
33
178
0
145
0.0
  1
 
170
1
140
3.5
171
1
172
0
173
0
174
0
175
1
176
1
177
33
178
0
145
0.0
  1
 
170
1
140
3.5
171
1
172
0
173
0
174
0
175
1
176
1
177
33
178
0
145
0.0
  1
 
170
1
140
3.5
171
1
172
0
173
0
174
0
175
1
176
1
177
33
178
0
145
0.0
  1
 
170
1
140
3.5
  0
INSERT
  5
2DD
100
AcDbEntity
  8
0-PT-PCBSOLIDLINE
100
AcDbBlockReference
 62
2
  6
CONTINUOUS
  2
THIRD_ANGLE_BL1
 10
114.5363362499
 20
21.0987949667
  0
ACAD_TABLE
  5
2DE
100
AcDbEntity
  8
0
 62
2
  6
CONTINUOUS
100
AcDbBlockReference
  2
*T2
 10
99.1363362499
 20
43.0987949667
 30
0.0
100
AcDbTable
342
       379
343
215
 11
1.0
 21
0.0
 31
0.0
 90
22
 91
7
 92
10
 93
16
 94
0
 95
0
 96
0
 41
0.0
141
3.0
141
6.0
141
4.0
141
5.0
141
5.0
141
5.0
141
5.0
142
30.8
142
20.0
142
10.0
142
15.0
142
20.0
142
8.0
142
14.0
142
20.0
142
25.0
142
25.0
171
1
172
0
173
0
174
0
175
1
176
2
177
33
178
0
145
0.0
  1
Project
170
5
140
3.0
171
1
172
0
173
0
174
0
175
1
176
2
177
33
178
0
145
0.0
  1
 
170
5
140
3.5
171
1
172
0
173
0
174
0
175
1
176
3
177
33
178
0
145
0.0
  1
 
170
5
140
3.5
171
1
172
0
173
0
174
0
175
2
176
3
177
33
178
0
145
0.0
  1
Whale Co.,LTD
170
5
140
3.1
171
1
172
0
173
1
174
0
175
1
176
1
177
1
178
0
145
0.0
170
1
171
1
172
0
173
0
174
0
175
2
176
2
177
33
178
0
145
0.0
  1
Part Name
170
5
140
3.0
171
1
172
0
173
1
174
0
175
1
176
1
177
1
178
0
145
0.0
170
1
171
1
172
0
173
0
174
0
175
3
176
2
177
33
178
0
145
0.0
  1
0-PT-PCB
170
5
140
4.0
171
1
172
0
173
1
174
0
175
1
176
1
177
1
178
0
145
0.0
170
1
171
1
172
0
173
1
174
0
175
1
176
1
177
1
178
0
145
0.0
170
1
171
1
172
0
173
1
174
0
175
1
176
1
177
1
178
0
145
0.0
170
1
171
1
172
0
173
1
174
0
175
1
176
1
177
1
178
0
145
0.0
170
1
171
1
172
0
173
1
174
0
175
1
176
1
177
1
178
0
145
0.0
170
1
171
1
172
0
173
1
174
0
175
1
176
1
177
1
178
0
145
0.0
170
1
171
1
172
0
173
1
174
0
175
1
176
1
177
1
178
0
145
0.0
170
1
171
1
172
0
173
1
174
0
175
1
176
1
177
1
178
0
145
0.0
170
1
171
1
172
0
173
1
174
0
175
1
176
1
177
1
178
0
145
0.0
170
1
171
1
172
0
173
1
174
0
175
1
176
1
177
1
178
0
145
0.0
170
1
171
1
172
0
173
1
174
0
175
1
176
1
177
1
178
0
145
0.0
170
1
171
1
172
0
173
1
174
0
175
1
176
1
177
1
178
0
145
0.0
170
1
171
1
172
0
173
0
174
0
175
2
176
1
177
49
178
0
145
0.0
  7
TEXTSTYLE_2
  1
Unit: mm
170
5
140
3.0
171
1
172
0
173
1
174
0
175
1
176
1
177
1
178
0
145
0.0
170
1
171
1
172
0
173
1
174
0
175
1
176
1
177
1
178
0
145
0.0
170
1
171
1
172
0
173
1
174
0
175
1
176
1
177
1
178
0
145
0.0
170
1
171
1
172
0
173
1
174
0
175
1
176
1
177
1
178
0
145
0.0
170
1
171
1
172
0
173
0
174
0
175
2
176
2
177
33
178
0
145
0.0
  1
Part No
170
5
140
3.0
171
1
172
0
173
1
174
0
175
1
176
1
177
1
178
0
145
0.0
170
1
171
1
172
0
173
0
174
0
175
3
176
2
177
33
178
0
145
0.0
  1
 
170
5
140
3.5
171
1
172
0
173
1
174
0
175
1
176
1
177
1
178
0
145
0.0
170
1
171
1
172
0
173
1
174
0
175
1
176
1
177
1
178
0
145
0.0
170
1
171
1
172
0
173
0
174
0
175
1
176
3
177
33
178
0
145
0.0
  1
Third angle system
170
5
140
2.0
171
1
172
0
173
0
174
0
175
1
176
1
177
49
178
0
145
0.0
  7
TEXTSTYLE_3
  1
Design
170
5
140
2.5
171
1
172
0
173
0
174
0
175
2
176
1
177
33
178
0
145
0.0
  1
 
170
5
140
3.5
171
1
172
0
173
1
174
0
175
1
176
1
177
1
178
0
145
0.0
170
1
171
1
172
0
173
0
174
0
175
1
176
1
177
49
178
0
145
0.0
  7
TEXTSTYLE_3
  1
May-23-16
170
5
140
2.5
171
1
172
0
173
1
174
0
175
1
176
1
177
1
178
0
145
0.0
170
1
171
1
172
0
173
1
174
0
175
1
176
1
177
1
178
0
145
0.0
170
1
171
1
172
0
173
1
174
0
175
1
176
1
177
1
178
0
145
0.0
170
1
171
1
172
0
173
1
174
0
175
1
176
1
177
1
178
0
145
0.0
170
1
171
1
172
0
173
1
174
0
175
1
176
1
177
1
178
0
145
0.0
170
1
171
1
172
0
173
1
174
0
175
1
176
1
177
1
178
0
145
0.0
170
1
171
1
172
0
173
0
174
0
175
1
176
1
177
49
178
0
145
0.0
  7
TEXTSTYLE_3
  1
Check
170
5
140
2.5
171
1
172
0
173
0
174
0
175
2
176
1
177
33
178
0
145
0.0
  1
 
170
5
140
3.5
171
1
172
0
173
1
174
0
175
1
176
1
177
1
178
0
145
0.0
170
1
171
1
172
0
173
0
174
0
175
1
176
1
177
49
178
0
145
0.0
  7
TEXTSTYLE_3
  1
May-23-16  
170
5
140
2.5
171
1
172
0
173
0
174
0
175
2
176
1
177
49
178
0
145
0.0
  7
TEXTSTYLE_3
  1
Material
170
5
140
2.5
171
1
172
0
173
1
174
0
175
1
176
1
177
1
178
0
145
0.0
170
1
171
1
172
0
173
0
174
0
175
1
176
1
177
49
178
0
145
0.0
  7
TEXTSTYLE_3
  1
See Notes
170
5
140
2.5
171
1
172
0
173
0
174
0
175
1
176
1
177
49
178
0
145
0.0
  7
TEXTSTYLE_3
  1
Size: A4
170
5
140
2.5
171
1
172
0
173
0
174
0
175
1
176
1
177
49
178
0
145
0.0
  7
TEXTSTYLE_3
  1
Scale: 1:1
170
5
140
2.5
171
1
172
0
173
1
174
0
175
1
176
1
177
1
178
0
145
0.0
170
1
171
1
172
0
173
0
174
0
175
1
176
1
177
49
178
0
145
0.0
  7
TEXTSTYLE_3
  1
Approve
170
5
140
2.5
171
1
172
0
173
0
174
0
175
2
176
1
177
33
178
0
145
0.0
  1
 
170
5
140
3.5
171
1
172
0
173
1
174
0
175
1
176
1
177
1
178
0
145
0.0
170
1
171
1
172
0
173
0
174
0
175
1
176
1
177
49
178
0
145
0.0
  7
TEXTSTYLE_3
  1
May-23-16  
170
5
140
2.5
171
1
172
0
173
0
174
0
175
2
176
1
177
49
178
0
145
0.0
  7
TEXTSTYLE_3
  1
Process
170
5
140
2.5
171
1
172
0
173
1
174
0
175
1
176
1
177
1
178
0
145
0.0
170
1
171
1
172
0
173
0
174
0
175
1
176
1
177
49
178
0
145
0.0
  7
TEXTSTYLE_3
  1
See Notes
170
5
140
2.5
171
1
172
0
173
0
174
0
175
1
176
1
177
49
178
0
145
0.0
  7
TEXTSTYLE_3
  1
Q'TY:  
170
5
140
2.5
171
1
172
0
173
0
174
0
175
1
176
1
177
49
178
0
145
0.0
  7
TEXTSTYLE_3
  1
Sheet: 1 of 1
170
5
140
2.5
171
1
172
0
173
0
174
0
175
10
176
1
177
33
178
0
145
0.0
  1
DRAWING INFORMATION ARE PROPRIETARY TO WHALE. IT IS PROHIBITED TO COPY OR DISCLOSE WHOLLY OR IN PART WITHOUT PRIOR WRITTEN CONSENT OF WHALE.
170
5
140
1.6
171
1
172
0
173
1
174
0
175
1
176
1
177
1
178
0
145
0.0
170
1
171
1
172
0
173
1
174
0
175
1
176
1
177
1
178
0
145
0.0
170
1
171
1
172
0
173
1
174
0
175
1
176
1
177
1
178
0
145
0.0
170
1
171
1
172
0
173
1
174
0
175
1
176
1
177
1
178
0
145
0.0
170
1
171
1
172
0
173
1
174
0
175
1
176
1
177
1
178
0
145
0.0
170
1
171
1
172
0
173
1
174
0
175
1
176
1
177
1
178
0
145
0.0
170
1
171
1
172
0
173
1
174
0
175
1
176
1
177
1
178
0
145
0.0
170
1
171
1
172
0
173
1
174
0
175
1
176
1
177
1
178
0
145
0.0
170
1
171
1
172
0
173
1
174
0
175
1
176
1
177
1
178
0
145
0.0
170
1
  0
ACAD_TABLE
  5
2DF
100
AcDbEntity
  8
0
 62
2
  6
CONTINUOUS
100
AcDbBlockReference
  2
*T3
 10
10.070248101
 20
199.936449645
 30
0.0
100
AcDbTable
342
       379
343
216
 11
1.0
 21
0.0
 31
0.0
 90
22
 91
1
 92
1
 93
0
 94
0
 95
0
 96
0
141
7.0
142
72.8
171
1
172
0
173
0
174
0
175
1
176
1
177
33
178
0
145
0.0
  1
COMPANY CONFIDENTIAL
170
5
140
4.0
  0
LINE
  5
2E0
100
AcDbEntity
  8
0-PT-PCBFORMAT
100
AcDbLine
 62
7
  6
CONTINUOUS
 10
10.0
 20
10.0
 11
10.0
 21
200.0
  0
LINE
  5
2E1
100
AcDbEntity
  8
0-PT-PCBFORMAT
100
AcDbLine
 62
7
  6
CONTINUOUS
 10
56.5
 20
5.0
 11
56.5
 21
10.0
  0
LINE
  5
2E2
100
AcDbEntity
  8
0-PT-PCBFORMAT
100
AcDbLine
 62
7
  6
CONTINUOUS
 10
56.5
 20
200.0
 11
56.5
 21
205.0
  0
LINE
  5
2E3
100
AcDbEntity
  8
0-PT-PCBFORMAT
100
AcDbLine
 62
7
  6
CONTINUOUS
 10
10.0
 20
10.0
 11
287.0
 21
10.0
  0
LINE
  5
2E4
100
AcDbEntity
  8
0-PT-PCBFORMAT
100
AcDbLine
 62
7
  6
CONTINUOUS
 10
103.0
 20
5.0
 11
103.0
 21
10.0
  0
LINE
  5
2E5
100
AcDbEntity
  8
0-PT-PCBFORMAT
100
AcDbLine
 62
7
  6
CONTINUOUS
 10
103.0
 20
200.0
 11
103.0
 21
205.0
  0
LINE
  5
2E6
100
AcDbEntity
  8
0-PT-PCBFORMAT
100
AcDbLine
 62
7
  6
CONTINUOUS
 10
5.0
 20
57.5
 11
10.0
 21
57.5
  0
LINE
  5
2E7
100
AcDbEntity
  8
0-PT-PCBFORMAT
100
AcDbLine
 62
7
  6
CONTINUOUS
 10
287.0
 20
57.5
 11
292.0
 21
57.5
  0
LINE
  5
2E8
100
AcDbEntity
  8
0-PT-PCBFORMAT
100
AcDbLine
 62
7
  6
CONTINUOUS
 10
149.5
 20
5.0
 11
149.5
 21
10.0
  0
LINE
  5
2E9
100
AcDbEntity
  8
0-PT-PCBFORMAT
100
AcDbLine
 62
7
  6
CONTINUOUS
 10
149.5
 20
200.0
 11
149.5
 21
205.0
  0
LINE
  5
2EA
100
AcDbEntity
  8
0-PT-PCBFORMAT
100
AcDbLine
 62
7
  6
CONTINUOUS
 10
5.0
 20
105.0
 11
10.0
 21
105.0
  0
LINE
  5
2EB
100
AcDbEntity
  8
0-PT-PCBFORMAT
100
AcDbLine
 62
7
  6
CONTINUOUS
 10
287.0
 20
105.0
 11
292.0
 21
105.0
  0
LINE
  5
2EC
100
AcDbEntity
  8
0-PT-PCBFORMAT
100
AcDbLine
 62
7
  6
CONTINUOUS
 10
196.0
 20
5.0
 11
196.0
 21
10.0
  0
LINE
  5
2ED
100
AcDbEntity
  8
0-PT-PCBFORMAT
100
AcDbLine
 62
7
  6
CONTINUOUS
 10
196.0
 20
200.0
 11
196.0
 21
205.0
  0
LINE
  5
2EE
100
AcDbEntity
  8
0-PT-PCBFORMAT
100
AcDbLine
 62
7
  6
CONTINUOUS
 10
5.0
 20
152.5
 11
10.0
 21
152.5
  0
LINE
  5
2EF
100
AcDbEntity
  8
0-PT-PCBFORMAT
100
AcDbLine
 62
7
  6
CONTINUOUS
 10
287.0
 20
152.5
 11
292.0
 21
152.5
  0
LINE
  5
2F0
100
AcDbEntity
  8
0-PT-PCBFORMAT
100
AcDbLine
 62
7
  6
CONTINUOUS
 10
242.5
 20
5.0
 11
242.5
 21
10.0
  0
LINE
  5
2F1
100
AcDbEntity
  8
0-PT-PCBFORMAT
100
AcDbLine
 62
7
  6
CONTINUOUS
 10
242.5
 20
200.0
 11
242.5
 21
205.0
  0
LINE
  5
2F2
100
AcDbEntity
  8
0-PT-PCBFORMAT
100
AcDbLine
 62
7
  6
CONTINUOUS
 10
10.0
 20
200.0
 11
287.0
 21
200.0
  0
LINE
  5
2F3
100
AcDbEntity
  8
0-PT-PCBFORMAT
100
AcDbLine
 62
7
  6
CONTINUOUS
 10
287.0
 20
10.0
 11
287.0
 21
200.0
  0
LINE
  5
2F4
100
AcDbEntity
  8
0-PT-PCBSOLIDLINE
100
AcDbLine
 62
7
  6
CONTINUOUS
 10
100.890625
 20
76.5418269231
 11
56.890625
 21
76.5418269231
  0
LINE
  5
2F5
100
AcDbEntity
  8
0-PT-PCBSOLIDLINE
100
AcDbLine
 62
7
  6
CONTINUOUS
 10
54.890625
 20
78.5418269231
 11
54.890625
 21
138.9418269231
  0
LINE
  5
2F6
100
AcDbEntity
  8
0-PT-PCBSOLIDLINE
100
AcDbLine
 62
4
  6
CONTINUOUS
 10
69.990625
 20
97.6418269231
 11
69.990625
 21
100.6418269231
  0
LINE
  5
2F7
100
AcDbEntity
  8
0-PT-PCBSOLIDLINE
100
AcDbLine
 62
4
  6
CONTINUOUS
 10
71.990625
 20
97.6418269231
 11
69.990625
 21
97.6418269231
  0
LINE
  5
2F8
100
AcDbEntity
  8
0-PT-PCBSOLIDLINE
100
AcDbLine
 62
4
  6
CONTINUOUS
 10
85.790625
 20
97.6418269231
 11
87.790625
 21
97.6418269231
  0
LINE
  5
2F9
100
AcDbEntity
  8
0-PT-PCBSOLIDLINE
100
AcDbLine
 62
4
  6
CONTINUOUS
 10
71.990625
 20
100.6418269231
 11
71.990625
 21
97.6418269231
  0
LINE
  5
2FA
100
AcDbEntity
  8
0-PT-PCBSOLIDLINE
100
AcDbLine
 62
4
  6
CONTINUOUS
 10
72.490625
 20
102.1418269231
 11
72.490625
 21
100.8418269231
  0
LINE
  5
2FB
100
AcDbEntity
  8
0-PT-PCBSOLIDLINE
100
AcDbLine
 62
4
  6
CONTINUOUS
 10
72.790625
 20
100.8418269231
 11
72.790625
 21
102.1418269231
  0
LINE
  5
2FC
100
AcDbEntity
  8
0-PT-PCBSOLIDLINE
100
AcDbLine
 62
4
  6
CONTINUOUS
 10
72.990625
 20
102.1418269231
 11
72.990625
 21
100.8418269231
  0
LINE
  5
2FD
100
AcDbEntity
  8
0-PT-PCBSOLIDLINE
100
AcDbLine
 62
4
  6
CONTINUOUS
 10
73.290625
 20
100.8418269231
 11
73.290625
 21
102.1418269231
  0
LINE
  5
2FE
100
AcDbEntity
  8
0-PT-PCBSOLIDLINE
100
AcDbLine
 62
4
  6
CONTINUOUS
 10
73.490625
 20
102.1418269231
 11
73.490625
 21
100.8418269231
  0
LINE
  5
2FF
100
AcDbEntity
  8
0-PT-PCBSOLIDLINE
100
AcDbLine
 62
4
  6
CONTINUOUS
 10
87.790625
 20
100.6418269231
 11
85.790625
 21
100.6418269231
  0
LINE
  5
300
100
AcDbEntity
  8
0-PT-PCBSOLIDLINE
100
AcDbLine
 62
4
  6
CONTINUOUS
 10
69.990625
 20
100.6418269231
 11
71.990625
 21
100.6418269231
  0
LINE
  5
301
100
AcDbEntity
  8
0-PT-PCBSOLIDLINE
100
AcDbLine
 62
4
  6
CONTINUOUS
 10
72.490625
 20
100.8418269231
 11
72.790625
 21
100.8418269231
  0
LINE
  5
302
100
AcDbEntity
  8
0-PT-PCBSOLIDLINE
100
AcDbLine
 62
4
  6
CONTINUOUS
 10
72.990625
 20
100.8418269231
 11
73.290625
 21
100.8418269231
  0
LINE
  5
303
100
AcDbEntity
  8
0-PT-PCBSOLIDLINE
100
AcDbLine
 62
4
  6
CONTINUOUS
 10
73.490625
 20
100.8418269231
 11
73.790625
 21
100.8418269231
  0
LINE
  5
304
100
AcDbEntity
  8
0-PT-PCBSOLIDLINE
100
AcDbLine
 62
4
  6
CONTINUOUS
 10
73.990625
 20
100.8418269231
 11
74.290625
 21
100.8418269231
  0
LINE
  5
305
100
AcDbEntity
  8
0-PT-PCBSOLIDLINE
100
AcDbLine
 62
4
  6
CONTINUOUS
 10
74.490625
 20
100.8418269231
 11
74.790625
 21
100.8418269231
  0
LINE
  5
306
100
AcDbEntity
  8
0-PT-PCBSOLIDLINE
100
AcDbLine
 62
4
  6
CONTINUOUS
 10
74.990625
 20
100.8418269231
 11
75.290625
 21
100.8418269231
  0
LINE
  5
307
100
AcDbEntity
  8
0-PT-PCBSOLIDLINE
100
AcDbLine
 62
4
  6
CONTINUOUS
 10
75.490625
 20
100.8418269231
 11
75.790625
 21
100.8418269231
  0
LINE
  5
308
100
AcDbEntity
  8
0-PT-PCBSOLIDLINE
100
AcDbLine
 62
4
  6
CONTINUOUS
 10
75.990625
 20
100.8418269231
 11
76.290625
 21
100.8418269231
  0
LINE
  5
309
100
AcDbEntity
  8
0-PT-PCBSOLIDLINE
100
AcDbLine
 62
4
  6
CONTINUOUS
 10
76.490625
 20
100.8418269231
 11
76.790625
 21
100.8418269231
  0
LINE
  5
30A
100
AcDbEntity
  8
0-PT-PCBSOLIDLINE
100
AcDbLine
 62
4
  6
CONTINUOUS
 10
76.990625
 20
100.8418269231
 11
77.290625
 21
100.8418269231
  0
LINE
  5
30B
100
AcDbEntity
  8
0-PT-PCBSOLIDLINE
100
AcDbLine
 62
4
  6
CONTINUOUS
 10
77.490625
 20
100.8418269231
 11
77.790625
 21
100.8418269231
  0
LINE
  5
30C
100
AcDbEntity
  8
0-PT-PCBSOLIDLINE
100
AcDbLine
 62
4
  6
CONTINUOUS
 10
77.990625
 20
100.8418269231
 11
78.290625
 21
100.8418269231
  0
LINE
  5
30D
100
AcDbEntity
  8
0-PT-PCBSOLIDLINE
100
AcDbLine
 62
4
  6
CONTINUOUS
 10
78.490625
 20
100.8418269231
 11
78.790625
 21
100.8418269231
  0
LINE
  5
30E
100
AcDbEntity
  8
0-PT-PCBSOLIDLINE
100
AcDbLine
 62
4
  6
CONTINUOUS
 10
78.990625
 20
100.8418269231
 11
79.290625
 21
100.8418269231
  0
LINE
  5
30F
100
AcDbEntity
  8
0-PT-PCBSOLIDLINE
100
AcDbLine
 62
4
  6
CONTINUOUS
 10
79.490625
 20
100.8418269231
 11
79.790625
 21
100.8418269231
  0
LINE
  5
310
100
AcDbEntity
  8
0-PT-PCBSOLIDLINE
100
AcDbLine
 62
4
  6
CONTINUOUS
 10
79.990625
 20
100.8418269231
 11
80.290625
 21
100.8418269231
  0
LINE
  5
311
100
AcDbEntity
  8
0-PT-PCBSOLIDLINE
100
AcDbLine
 62
4
  6
CONTINUOUS
 10
80.490625
 20
100.8418269231
 11
80.790625
 21
100.8418269231
  0
LINE
  5
312
100
AcDbEntity
  8
0-PT-PCBSOLIDLINE
100
AcDbLine
 62
4
  6
CONTINUOUS
 10
80.990625
 20
100.8418269231
 11
81.290625
 21
100.8418269231
  0
LINE
  5
313
100
AcDbEntity
  8
0-PT-PCBSOLIDLINE
100
AcDbLine
 62
4
  6
CONTINUOUS
 10
81.490625
 20
100.8418269231
 11
81.790625
 21
100.8418269231
  0
LINE
  5
314
100
AcDbEntity
  8
0-PT-PCBSOLIDLINE
100
AcDbLine
 62
4
  6
CONTINUOUS
 10
81.990625
 20
100.8418269231
 11
82.290625
 21
100.8418269231
  0
LINE
  5
315
100
AcDbEntity
  8
0-PT-PCBSOLIDLINE
100
AcDbLine
 62
4
  6
CONTINUOUS
 10
82.490625
 20
100.8418269231
 11
82.790625
 21
100.8418269231
  0
LINE
  5
316
100
AcDbEntity
  8
0-PT-PCBSOLIDLINE
100
AcDbLine
 62
4
  6
CONTINUOUS
 10
82.990625
 20
100.8418269231
 11
83.290625
 21
100.8418269231
  0
LINE
  5
317
100
AcDbEntity
  8
0-PT-PCBSOLIDLINE
100
AcDbLine
 62
4
  6
CONTINUOUS
 10
83.490625
 20
100.8418269231
 11
83.790625
 21
100.8418269231
  0
LINE
  5
318
100
AcDbEntity
  8
0-PT-PCBSOLIDLINE
100
AcDbLine
 62
4
  6
CONTINUOUS
 10
83.990625
 20
100.8418269231
 11
84.290625
 21
100.8418269231
  0
LINE
  5
319
100
AcDbEntity
  8
0-PT-PCBSOLIDLINE
100
AcDbLine
 62
4
  6
CONTINUOUS
 10
84.490625
 20
100.8418269231
 11
84.790625
 21
100.8418269231
  0
LINE
  5
31A
100
AcDbEntity
  8
0-PT-PCBSOLIDLINE
100
AcDbLine
 62
4
  6
CONTINUOUS
 10
84.990625
 20
100.8418269231
 11
85.290625
 21
100.8418269231
  0
LINE
  5
31B
100
AcDbEntity
  8
0-PT-PCBSOLIDLINE
100
AcDbLine
 62
4
  6
CONTINUOUS
 10
73.790625
 20
100.8418269231
 11
73.790625
 21
102.1418269231
  0
LINE
  5
31C
100
AcDbEntity
  8
0-PT-PCBSOLIDLINE
100
AcDbLine
 62
4
  6
CONTINUOUS
 10
73.990625
 20
102.1418269231
 11
73.990625
 21
100.8418269231
  0
LINE
  5
31D
100
AcDbEntity
  8
0-PT-PCBSOLIDLINE
100
AcDbLine
 62
4
  6
CONTINUOUS
 10
74.290625
 20
100.8418269231
 11
74.290625
 21
102.1418269231
  0
LINE
  5
31E
100
AcDbEntity
  8
0-PT-PCBSOLIDLINE
100
AcDbLine
 62
4
  6
CONTINUOUS
 10
74.490625
 20
102.1418269231
 11
74.490625
 21
100.8418269231
  0
LINE
  5
31F
100
AcDbEntity
  8
0-PT-PCBSOLIDLINE
100
AcDbLine
 62
4
  6
CONTINUOUS
 10
74.790625
 20
100.8418269231
 11
74.790625
 21
102.1418269231
  0
LINE
  5
320
100
AcDbEntity
  8
0-PT-PCBSOLIDLINE
100
AcDbLine
 62
4
  6
CONTINUOUS
 10
74.990625
 20
102.1418269231
 11
74.990625
 21
100.8418269231
  0
LINE
  5
321
100
AcDbEntity
  8
0-PT-PCBSOLIDLINE
100
AcDbLine
 62
4
  6
CONTINUOUS
 10
75.290625
 20
100.8418269231
 11
75.290625
 21
102.1418269231
  0
LINE
  5
322
100
AcDbEntity
  8
0-PT-PCBSOLIDLINE
100
AcDbLine
 62
4
  6
CONTINUOUS
 10
75.490625
 20
102.1418269231
 11
75.490625
 21
100.8418269231
  0
LINE
  5
323
100
AcDbEntity
  8
0-PT-PCBSOLIDLINE
100
AcDbLine
 62
4
  6
CONTINUOUS
 10
75.790625
 20
100.8418269231
 11
75.790625
 21
102.1418269231
  0
LINE
  5
324
100
AcDbEntity
  8
0-PT-PCBSOLIDLINE
100
AcDbLine
 62
4
  6
CONTINUOUS
 10
75.990625
 20
102.1418269231
 11
75.990625
 21
100.8418269231
  0
LINE
  5
325
100
AcDbEntity
  8
0-PT-PCBSOLIDLINE
100
AcDbLine
 62
4
  6
CONTINUOUS
 10
76.290625
 20
100.8418269231
 11
76.290625
 21
102.1418269231
  0
LINE
  5
326
100
AcDbEntity
  8
0-PT-PCBSOLIDLINE
100
AcDbLine
 62
4
  6
CONTINUOUS
 10
76.490625
 20
102.1418269231
 11
76.490625
 21
100.8418269231
  0
LINE
  5
327
100
AcDbEntity
  8
0-PT-PCBSOLIDLINE
100
AcDbLine
 62
4
  6
CONTINUOUS
 10
85.290625
 20
102.1418269231
 11
84.990625
 21
102.1418269231
  0
LINE
  5
328
100
AcDbEntity
  8
0-PT-PCBSOLIDLINE
100
AcDbLine
 62
4
  6
CONTINUOUS
 10
84.790625
 20
102.1418269231
 11
84.490625
 21
102.1418269231
  0
LINE
  5
329
100
AcDbEntity
  8
0-PT-PCBSOLIDLINE
100
AcDbLine
 62
4
  6
CONTINUOUS
 10
84.290625
 20
102.1418269231
 11
83.990625
 21
102.1418269231
  0
LINE
  5
32A
100
AcDbEntity
  8
0-PT-PCBSOLIDLINE
100
AcDbLine
 62
4
  6
CONTINUOUS
 10
83.790625
 20
102.1418269231
 11
83.490625
 21
102.1418269231
  0
LINE
  5
32B
100
AcDbEntity
  8
0-PT-PCBSOLIDLINE
100
AcDbLine
 62
4
  6
CONTINUOUS
 10
83.290625
 20
102.1418269231
 11
82.990625
 21
102.1418269231
  0
LINE
  5
32C
100
AcDbEntity
  8
0-PT-PCBSOLIDLINE
100
AcDbLine
 62
4
  6
CONTINUOUS
 10
82.790625
 20
102.1418269231
 11
82.490625
 21
102.1418269231
  0
LINE
  5
32D
100
AcDbEntity
  8
0-PT-PCBSOLIDLINE
100
AcDbLine
 62
4
  6
CONTINUOUS
 10
82.290625
 20
102.1418269231
 11
81.990625
 21
102.1418269231
  0
LINE
  5
32E
100
AcDbEntity
  8
0-PT-PCBSOLIDLINE
100
AcDbLine
 62
4
  6
CONTINUOUS
 10
81.790625
 20
102.1418269231
 11
81.490625
 21
102.1418269231
  0
LINE
  5
32F
100
AcDbEntity
  8
0-PT-PCBSOLIDLINE
100
AcDbLine
 62
4
  6
CONTINUOUS
 10
81.290625
 20
102.1418269231
 11
80.990625
 21
102.1418269231
  0
LINE
  5
330
100
AcDbEntity
  8
0-PT-PCBSOLIDLINE
100
AcDbLine
 62
4
  6
CONTINUOUS
 10
80.790625
 20
102.1418269231
 11
80.490625
 21
102.1418269231
  0
LINE
  5
331
100
AcDbEntity
  8
0-PT-PCBSOLIDLINE
100
AcDbLine
 62
4
  6
CONTINUOUS
 10
80.290625
 20
102.1418269231
 11
79.990625
 21
102.1418269231
  0
LINE
  5
332
100
AcDbEntity
  8
0-PT-PCBSOLIDLINE
100
AcDbLine
 62
4
  6
CONTINUOUS
 10
79.790625
 20
102.1418269231
 11
79.490625
 21
102.1418269231
  0
LINE
  5
333
100
AcDbEntity
  8
0-PT-PCBSOLIDLINE
100
AcDbLine
 62
4
  6
CONTINUOUS
 10
79.290625
 20
102.1418269231
 11
78.990625
 21
102.1418269231
  0
LINE
  5
334
100
AcDbEntity
  8
0-PT-PCBSOLIDLINE
100
AcDbLine
 62
4
  6
CONTINUOUS
 10
78.790625
 20
102.1418269231
 11
78.490625
 21
102.1418269231
  0
LINE
  5
335
100
AcDbEntity
  8
0-PT-PCBSOLIDLINE
100
AcDbLine
 62
4
  6
CONTINUOUS
 10
78.290625
 20
102.1418269231
 11
77.990625
 21
102.1418269231
  0
LINE
  5
336
100
AcDbEntity
  8
0-PT-PCBSOLIDLINE
100
AcDbLine
 62
4
  6
CONTINUOUS
 10
77.790625
 20
102.1418269231
 11
77.490625
 21
102.1418269231
  0
LINE
  5
337
100
AcDbEntity
  8
0-PT-PCBSOLIDLINE
100
AcDbLine
 62
4
  6
CONTINUOUS
 10
77.290625
 20
102.1418269231
 11
76.990625
 21
102.1418269231
  0
LINE
  5
338
100
AcDbEntity
  8
0-PT-PCBSOLIDLINE
100
AcDbLine
 62
4
  6
CONTINUOUS
 10
76.790625
 20
102.1418269231
 11
76.490625
 21
102.1418269231
  0
LINE
  5
339
100
AcDbEntity
  8
0-PT-PCBSOLIDLINE
100
AcDbLine
 62
4
  6
CONTINUOUS
 10
76.290625
 20
102.1418269231
 11
75.990625
 21
102.1418269231
  0
LINE
  5
33A
100
AcDbEntity
  8
0-PT-PCBSOLIDLINE
100
AcDbLine
 62
4
  6
CONTINUOUS
 10
75.790625
 20
102.1418269231
 11
75.490625
 21
102.1418269231
  0
LINE
  5
33B
100
AcDbEntity
  8
0-PT-PCBSOLIDLINE
100
AcDbLine
 62
4
  6
CONTINUOUS
 10
75.290625
 20
102.1418269231
 11
74.990625
 21
102.1418269231
  0
LINE
  5
33C
100
AcDbEntity
  8
0-PT-PCBSOLIDLINE
100
AcDbLine
 62
4
  6
CONTINUOUS
 10
74.790625
 20
102.1418269231
 11
74.490625
 21
102.1418269231
  0
LINE
  5
33D
100
AcDbEntity
  8
0-PT-PCBSOLIDLINE
100
AcDbLine
 62
4
  6
CONTINUOUS
 10
74.290625
 20
102.1418269231
 11
73.990625
 21
102.1418269231
  0
LINE
  5
33E
100
AcDbEntity
  8
0-PT-PCBSOLIDLINE
100
AcDbLine
 62
4
  6
CONTINUOUS
 10
73.790625
 20
102.1418269231
 11
73.490625
 21
102.1418269231
  0
LINE
  5
33F
100
AcDbEntity
  8
0-PT-PCBSOLIDLINE
100
AcDbLine
 62
4
  6
CONTINUOUS
 10
73.290625
 20
102.1418269231
 11
72.990625
 21
102.1418269231
  0
LINE
  5
340
100
AcDbEntity
  8
0-PT-PCBSOLIDLINE
100
AcDbLine
 62
4
  6
CONTINUOUS
 10
72.790625
 20
102.1418269231
 11
72.490625
 21
102.1418269231
  0
LINE
  5
341
100
AcDbEntity
  8
0-PT-PCBSOLIDLINE
100
AcDbLine
 62
4
  6
CONTINUOUS
 10
76.790625
 20
100.8418269231
 11
76.790625
 21
102.1418269231
  0
LINE
  5
342
100
AcDbEntity
  8
0-PT-PCBSOLIDLINE
100
AcDbLine
 62
4
  6
CONTINUOUS
 10
76.990625
 20
102.1418269231
 11
76.990625
 21
100.8418269231
  0
LINE
  5
343
100
AcDbEntity
  8
0-PT-PCBSOLIDLINE
100
AcDbLine
 62
4
  6
CONTINUOUS
 10
77.290625
 20
100.8418269231
 11
77.290625
 21
102.1418269231
  0
LINE
  5
344
100
AcDbEntity
  8
0-PT-PCBSOLIDLINE
100
AcDbLine
 62
4
  6
CONTINUOUS
 10
77.490625
 20
102.1418269231
 11
77.490625
 21
100.8418269231
  0
LINE
  5
345
100
AcDbEntity
  8
0-PT-PCBSOLIDLINE
100
AcDbLine
 62
4
  6
CONTINUOUS
 10
77.790625
 20
100.8418269231
 11
77.790625
 21
102.1418269231
  0
LINE
  5
346
100
AcDbEntity
  8
0-PT-PCBSOLIDLINE
100
AcDbLine
 62
4
  6
CONTINUOUS
 10
77.990625
 20
102.1418269231
 11
77.990625
 21
100.8418269231
  0
LINE
  5
347
100
AcDbEntity
  8
0-PT-PCBSOLIDLINE
100
AcDbLine
 62
4
  6
CONTINUOUS
 10
78.290625
 20
100.8418269231
 11
78.290625
 21
102.1418269231
  0
LINE
  5
348
100
AcDbEntity
  8
0-PT-PCBSOLIDLINE
100
AcDbLine
 62
4
  6
CONTINUOUS
 10
78.490625
 20
102.1418269231
 11
78.490625
 21
100.8418269231
  0
LINE
  5
349
100
AcDbEntity
  8
0-PT-PCBSOLIDLINE
100
AcDbLine
 62
4
  6
CONTINUOUS
 10
78.790625
 20
100.8418269231
 11
78.790625
 21
102.1418269231
  0
LINE
  5
34A
100
AcDbEntity
  8
0-PT-PCBSOLIDLINE
100
AcDbLine
 62
4
  6
CONTINUOUS
 10
78.990625
 20
102.1418269231
 11
78.990625
 21
100.8418269231
  0
LINE
  5
34B
100
AcDbEntity
  8
0-PT-PCBSOLIDLINE
100
AcDbLine
 62
4
  6
CONTINUOUS
 10
79.290625
 20
100.8418269231
 11
79.290625
 21
102.1418269231
  0
LINE
  5
34C
100
AcDbEntity
  8
0-PT-PCBSOLIDLINE
100
AcDbLine
 62
4
  6
CONTINUOUS
 10
79.490625
 20
102.1418269231
 11
79.490625
 21
100.8418269231
  0
LINE
  5
34D
100
AcDbEntity
  8
0-PT-PCBSOLIDLINE
100
AcDbLine
 62
4
  6
CONTINUOUS
 10
79.790625
 20
100.8418269231
 11
79.790625
 21
102.1418269231
  0
LINE
  5
34E
100
AcDbEntity
  8
0-PT-PCBSOLIDLINE
100
AcDbLine
 62
4
  6
CONTINUOUS
 10
79.990625
 20
102.1418269231
 11
79.990625
 21
100.8418269231
  0
LINE
  5
34F
100
AcDbEntity
  8
0-PT-PCBSOLIDLINE
100
AcDbLine
 62
4
  6
CONTINUOUS
 10
80.290625
 20
100.8418269231
 11
80.290625
 21
102.1418269231
  0
LINE
  5
350
100
AcDbEntity
  8
0-PT-PCBSOLIDLINE
100
AcDbLine
 62
4
  6
CONTINUOUS
 10
80.490625
 20
102.1418269231
 11
80.490625
 21
100.8418269231
  0
LINE
  5
351
100
AcDbEntity
  8
0-PT-PCBSOLIDLINE
100
AcDbLine
 62
4
  6
CONTINUOUS
 10
80.790625
 20
100.8418269231
 11
80.790625
 21
102.1418269231
  0
LINE
  5
352
100
AcDbEntity
  8
0-PT-PCBSOLIDLINE
100
AcDbLine
 62
4
  6
CONTINUOUS
 10
80.990625
 20
102.1418269231
 11
80.990625
 21
100.8418269231
  0
LINE
  5
353
100
AcDbEntity
  8
0-PT-PCBSOLIDLINE
100
AcDbLine
 62
4
  6
CONTINUOUS
 10
81.290625
 20
100.8418269231
 11
81.290625
 21
102.1418269231
  0
LINE
  5
354
100
AcDbEntity
  8
0-PT-PCBSOLIDLINE
100
AcDbLine
 62
4
  6
CONTINUOUS
 10
81.490625
 20
102.1418269231
 11
81.490625
 21
100.8418269231
  0
LINE
  5
355
100
AcDbEntity
  8
0-PT-PCBSOLIDLINE
100
AcDbLine
 62
4
  6
CONTINUOUS
 10
81.790625
 20
100.8418269231
 11
81.790625
 21
102.1418269231
  0
LINE
  5
356
100
AcDbEntity
  8
0-PT-PCBSOLIDLINE
100
AcDbLine
 62
4
  6
CONTINUOUS
 10
81.990625
 20
102.1418269231
 11
81.990625
 21
100.8418269231
  0
LINE
  5
357
100
AcDbEntity
  8
0-PT-PCBSOLIDLINE
100
AcDbLine
 62
4
  6
CONTINUOUS
 10
82.290625
 20
100.8418269231
 11
82.290625
 21
102.1418269231
  0
LINE
  5
358
100
AcDbEntity
  8
0-PT-PCBSOLIDLINE
100
AcDbLine
 62
4
  6
CONTINUOUS
 10
82.490625
 20
102.1418269231
 11
82.490625
 21
100.8418269231
  0
LINE
  5
359
100
AcDbEntity
  8
0-PT-PCBSOLIDLINE
100
AcDbLine
 62
4
  6
CONTINUOUS
 10
82.790625
 20
100.8418269231
 11
82.790625
 21
102.1418269231
  0
LINE
  5
35A
100
AcDbEntity
  8
0-PT-PCBSOLIDLINE
100
AcDbLine
 62
4
  6
CONTINUOUS
 10
82.990625
 20
102.1418269231
 11
82.990625
 21
100.8418269231
  0
LINE
  5
35B
100
AcDbEntity
  8
0-PT-PCBSOLIDLINE
100
AcDbLine
 62
4
  6
CONTINUOUS
 10
83.290625
 20
100.8418269231
 11
83.290625
 21
102.1418269231
  0
LINE
  5
35C
100
AcDbEntity
  8
0-PT-PCBSOLIDLINE
100
AcDbLine
 62
4
  6
CONTINUOUS
 10
83.490625
 20
102.1418269231
 11
83.490625
 21
100.8418269231
  0
LINE
  5
35D
100
AcDbEntity
  8
0-PT-PCBSOLIDLINE
100
AcDbLine
 62
4
  6
CONTINUOUS
 10
83.790625
 20
100.8418269231
 11
83.790625
 21
102.1418269231
  0
LINE
  5
35E
100
AcDbEntity
  8
0-PT-PCBSOLIDLINE
100
AcDbLine
 62
4
  6
CONTINUOUS
 10
83.990625
 20
102.1418269231
 11
83.990625
 21
100.8418269231
  0
LINE
  5
35F
100
AcDbEntity
  8
0-PT-PCBSOLIDLINE
100
AcDbLine
 62
4
  6
CONTINUOUS
 10
84.290625
 20
100.8418269231
 11
84.290625
 21
102.1418269231
  0
LINE
  5
360
100
AcDbEntity
  8
0-PT-PCBSOLIDLINE
100
AcDbLine
 62
4
  6
CONTINUOUS
 10
84.490625
 20
102.1418269231
 11
84.490625
 21
100.8418269231
  0
LINE
  5
361
100
AcDbEntity
  8
0-PT-PCBSOLIDLINE
100
AcDbLine
 62
4
  6
CONTINUOUS
 10
84.790625
 20
100.8418269231
 11
84.790625
 21
102.1418269231
  0
LINE
  5
362
100
AcDbEntity
  8
0-PT-PCBSOLIDLINE
100
AcDbLine
 62
4
  6
CONTINUOUS
 10
84.990625
 20
102.1418269231
 11
84.990625
 21
100.8418269231
  0
LINE
  5
363
100
AcDbEntity
  8
0-PT-PCBSOLIDLINE
100
AcDbLine
 62
4
  6
CONTINUOUS
 10
85.290625
 20
100.8418269231
 11
85.290625
 21
102.1418269231
  0
LINE
  5
364
100
AcDbEntity
  8
0-PT-PCBSOLIDLINE
100
AcDbLine
 62
4
  6
CONTINUOUS
 10
85.790625
 20
100.6418269231
 11
85.790625
 21
97.6418269231
  0
LINE
  5
365
100
AcDbEntity
  8
0-PT-PCBSOLIDLINE
100
AcDbLine
 62
4
  6
CONTINUOUS
 10
87.790625
 20
97.6418269231
 11
87.790625
 21
100.6418269231
  0
LINE
  5
366
100
AcDbEntity
  8
0-PT-PCBSOLIDLINE
100
AcDbLine
 62
7
  6
CONTINUOUS
 10
102.890625
 20
138.9418269231
 11
102.890625
 21
78.5418269231
  0
LINE
  5
367
100
AcDbEntity
  8
0-PT-PCBSOLIDLINE
100
AcDbLine
 62
7
  6
CONTINUOUS
 10
56.690625
 20
140.7418269231
 11
101.090625
 21
140.7418269231
  0
LINE
  5
368
100
AcDbEntity
  8
0-PT-PCBSOLIDLINE
100
AcDbLine
 62
7
  6
CONTINUOUS
 10
166.6125
 20
76.5418269231
 11
167.6125
 21
76.5418269231
  0
LINE
  5
369
100
AcDbEntity
  8
0-PT-PCBSOLIDLINE
100
AcDbLine
 62
7
  6
CONTINUOUS
 10
166.6125
 20
78.5418269231
 11
167.6125
 21
78.5418269231
  0
LINE
  5
36A
100
AcDbEntity
  8
0-PT-PCBSOLIDLINE
100
AcDbLine
 62
4
  6
CONTINUOUS
 10
166.5125
 20
102.1418269231
 11
166.5125
 21
100.8418269231
  0
LINE
  5
36B
100
AcDbEntity
  8
0-PT-PCBSOLIDLINE
100
AcDbLine
 62
4
  6
CONTINUOUS
 10
166.5125
 20
100.6418269231
 11
166.5125
 21
97.6418269231
  0
LINE
  5
36C
100
AcDbEntity
  8
0-PT-PCBSOLIDLINE
100
AcDbLine
 62
7
  6
CONTINUOUS
 10
166.6125
 20
76.5418269231
 11
166.6125
 21
140.7418269231
  0
LINE
  5
36D
100
AcDbEntity
  8
0-PT-PCBSOLIDLINE
100
AcDbLine
 62
7
  6
CONTINUOUS
 10
167.6125
 20
140.7418269231
 11
167.6125
 21
76.5418269231
  0
LINE
  5
36E
100
AcDbEntity
  8
0-PT-PCBSOLIDLINE
100
AcDbLine
 62
7
  6
CONTINUOUS
 10
167.6125
 20
138.9418269231
 11
166.6125
 21
138.9418269231
  0
LINE
  5
36F
100
AcDbEntity
  8
0-PT-PCBSOLIDLINE
100
AcDbLine
 62
7
  6
CONTINUOUS
 10
167.6125
 20
140.7418269231
 11
166.6125
 21
140.7418269231
  0
ARC
  5
370
100
AcDbEntity
  8
0-PT-PCBSOLIDLINE
100
AcDbCircle
 62
7
  6
CONTINUOUS
 10
100.890625
 20
78.5418269231
 40
2.0
100
AcDbArc
 50
270.0
 51
360.0
  0
ARC
  5
371
100
AcDbEntity
  8
0-PT-PCBSOLIDLINE
100
AcDbCircle
 62
7
  6
CONTINUOUS
 10
56.890625
 20
78.5418269231
 40
2.0
100
AcDbArc
 50
180.0
 51
270.0
  0
ARC
  5
372
100
AcDbEntity
  8
0-PT-PCBSOLIDLINE
100
AcDbCircle
 62
7
  6
CONTINUOUS
 10
56.690625
 20
138.9418269231
 40
1.8
100
AcDbArc
 50
90.0
 51
180.0
  0
ARC
  5
373
100
AcDbEntity
  8
0-PT-PCBSOLIDLINE
100
AcDbCircle
 62
7
  6
CONTINUOUS
 10
101.090625
 20
138.9418269231
 40
1.8
100
AcDbArc
 50
0.0
 51
90.0
  0
CIRCLE
  5
374
100
AcDbEntity
  8
0-PT-PCBSOLIDLINE
100
AcDbCircle
 62
4
  6
CONTINUOUS
 10
73.890625
 20
107.1418269231
 40
1.0
  0
CIRCLE
  5
375
100
AcDbEntity
  8
0-PT-PCBSOLIDLINE
100
AcDbCircle
 62
4
  6
CONTINUOUS
 10
83.890625
 20
107.1418269231
 40
1.0
  0
ENDSEC
  0
SECTION
  2
OBJECTS
  0
DICTIONARY
  5
C
100
AcDbDictionary
280
0
281
1
  3
ACAD_GROUP
350
D
  3
ACAD_MLINESTYLE
350
17
  3
ACAD_LAYOUT
350
1A
  3
ACAD_PLOTSETTINGS
350
19
  3
ACAD_PLOTSTYLENAME
350
E
  3
ACAD_TABLESTYLE
350
       376
  0
DICTIONARY
  5
D
102
{ACAD_REACTORS
330
C
102
}
100
AcDbDictionary
280
0
281
1
  0
ACDBDICTIONARYWDFLT
  5
E
102
{ACAD_REACTORS
330
C
102
}
100
AcDbDictionary
281
1
  3
Normal
350
F
100
AcDbDictionaryWithDefault
340
F
  0
DICTIONARY
  5
17
102
{ACAD_REACTORS
330
C
102
}
100
AcDbDictionary
280
0
281
1
  3
Standard
350
18
  0
DICTIONARY
  5
376
330
C
100
AcDbDictionary
281
1
  3
Standard
350
       379
  3
Standard1
350
       37A
  0
DICTIONARY
  5
19
102
{ACAD_REACTORS
330
C
102
}
100
AcDbDictionary
281
1
  0
DICTIONARY
  5
1A
102
{ACAD_REACTORS
330
C
102
}
100
AcDbDictionary
281
1
  3
Model
350
377
  3
Layout1
350
378
  0
ACDBPLACEHOLDER
  5
F
102
{ACAD_REACTORS
330
E
102
}
  0
MLINESTYLE
  5
18
102
{ACAD_REACTORS
330
17
102
}
100
AcDbMlineStyle
  2
STANDARD
 70
0
  3

 62
256
 51
90.0
 52
90.0
 71
2
 49
0.5
 62
256
  6
BYLAYER
 49
-0.5
 62
256
  6
BYLAYER
  0
LAYOUT
  5
377
102
{ACAD_REACTORS
330
1A
102
}
100
AcDbPlotSettings
  1

  2
none_device
  4
ISO_A4_(297.00_x_210.00_MM)
  6

 40
0.0
 41
0.0
 42
0.0
 43
0.0
 44
297.0
 45
210.0
 46
0.0
 47
0.0
 48
0.0
 49
0.0
140
0.0
141
0.0
142
1.0
143
1.0
 70
1024
 72
1
 73
0
 74
0
  7

 75
0
147
1.0
148
0.0
149
0.0
100
AcDbLayout
  1
Model
 70
0
 71
0
 10
0.0
 20
0.0
 11
297.0
 21
210.0
 12
0.0
 22
0.0
 32
0.0
 14
0.0
 24
0.0
 34
0.0
 15
0.0
 25
0.0
 35
0.0
146
0.0
 13
0.0
 23
0.0
 33
0.0
 16
1.0
 26
0.0
 36
0.0
 17
0.0
 27
1.0
 37
0.0
 76
0
330
20C
345
0
346
0
  0
LAYOUT
  5
378
102
{ACAD_REACTORS
330
1A
102
}
100
AcDbPlotSettings
  1

  2
none_device
  4
ISO_A4_(297.00_x_210.00_MM)
  6

 40
0.0
 41
0.0
 42
0.0
 43
0.0
 44
297.0
 45
210.0
 46
0.0
 47
0.0
 48
0.0
 49
0.0
140
0.0
141
0.0
142
1.0
143
1.0
 70
0
 72
1
 73
0
 74
0
  7

 75
0
147
1.0
148
0.0
149
0.0
100
AcDbLayout
  1
Layout1
 70
0
 71
1
 10
0.0
 20
0.0
 11
297.0
 21
210.0
 12
0.0
 22
0.0
 32
0.0
 14
0.0
 24
0.0
 34
0.0
 15
0.0
 25
0.0
 35
0.0
146
0.0
 13
0.0
 23
0.0
 33
0.0
 16
1.0
 26
0.0
 36
0.0
 17
0.0
 27
1.0
 37
0.0
 76
0
330
20D
345
0
346
0
  0
TABLESTYLE
  5
379
102
{ACAD_REACTORS
330
376
330
2DC
330
2DE
330
2DF
102
}
330
376
100
AcDbTableStyle
  3
Standard
 70
0
 71
0
 40
0.06
 41
0.06
280
1
281
1
  7
Standard
140
0.18
170
1
 62
0
 63
7
283
0
  7
Standard
140
0.18
170
1
 62
0
 63
7
283
0
  7
Standard
140
0.18
170
1
 62
0
 63
7
283
0
  0
TABLESTYLE
  5
37A
102
{ACAD_REACTORS
330
376
102
}
330
376
100
AcDbTableStyle
  3
Standard1
 70
1
 71
0
 40
0.06
 41
0.06
280
1
281
1
  7
Standard
140
0.18
170
1
 62
0
 63
7
283
0
  7
Standard
140
0.18
170
1
 62
0
 63
7
283
0
  7
Standard
140
0.18
170
1
 62
0
 63
7
283
0
  0
ENDSEC
  0
EOF
