G04 ================== begin FILE IDENTIFICATION RECORD ==================*
G04 Layout Name:  D:/WorkSpace/SPB_Data/esl/allegro/esl.brd*
G04 Film Name:    BOTTOM*
G04 File Format:  Gerber RS274X*
G04 File Origin:  Cadence Allegro 16.6-P004*
G04 Origin Date:  Tue Sep 10 16:37:25 2019*
G04 *
G04 Layer:  VIA CLASS/BOTTOM*
G04 Layer:  PIN/BOTTOM*
G04 Layer:  ETCH/BOTTOM*
G04 *
G04 Offset:    (0.0000 0.0000)*
G04 Mirror:    No*
G04 Mode:      Positive*
G04 Rotation:  0*
G04 FullContactRelief:  No*
G04 UndefLineWidth:     0.1000*
G04 ================== end FILE IDENTIFICATION RECORD ====================*
%FSLAX25Y25*MOMM*%
%IR0*IPPOS*OFA0.00000B0.00000*MIA0B0*SFA1.00000B1.00000*%
%ADD11C,.6*%
%ADD10C,.45*%
%ADD12C,.18*%
%ADD13C,.9504*%
%ADD14C,1.1004*%
G75*
%LPD*%
G75*
G36*
G01X2563520Y1207610D02*
G03Y1302390I-3520J47390D01*
G02X2545000Y1322330I1480J19945D01*
G01Y3570000D01*
X5055000D01*
Y4510000D01*
X6330000D01*
X6685000Y4155000D01*
Y520000D01*
X6520000D01*
X6400000Y400000D01*
Y170000D01*
X2545000D01*
Y1187670D01*
G02X2563520Y1207610I20000J-5D01*
G37*
%LPC*%
G75*
G36*
G01X3641720Y3163760D02*
G02X3596950Y3199580I-51723J-18758D01*
G03X3618280Y3226240I2528J19840D01*
G02X3663050Y3190420I51723J18758D01*
G03X3641720Y3163760I-2528J-19840D01*
G37*
G36*
G01X5485980Y293240D02*
Y419090D01*
X6024780Y957890D01*
G03X6017850Y990680I-14145J14138D01*
G02X6030910Y1082340I17150J44317D01*
G01X6034540Y1082650D01*
X6070980Y1119090D01*
Y1495910D01*
X6026140Y1540750D01*
G03X5992150Y1529090I-14144J-14141D01*
G02X5911820Y1500980I-47151J5909D01*
G01X5870910D01*
X5665980Y1705910D01*
Y1880910D01*
X5641180Y1905710D01*
G03X5613110Y1905910I-14137J-14147D01*
G02X5584090Y1892660I-33102J34094D01*
G01X5580450Y1892340D01*
X5469020Y1780910D01*
Y1698180D01*
G02Y1631820I-34020J-33180D01*
G01Y1400910D01*
X5344020Y1275910D01*
Y1068180D01*
G02X5275980I-34020J-33180D01*
G01Y1304090D01*
X5400980Y1429090D01*
Y1631820D01*
G02Y1698180I34020J33180D01*
G01Y1809090D01*
X5532400Y1940510D01*
X5532670Y1944210D01*
G02X5532690Y1944510I47414J-3010D01*
G01X5532790Y1945460D01*
Y1955980D01*
X5418180D01*
G02X5351170Y2023370I-33179J34019D01*
G03X5352040Y2036410I-7118J7024D01*
G02X5352230Y2093840I37959J28590D01*
G03X5336340Y2125980I-15892J12141D01*
G01X4909100D01*
X4439100Y1655980D01*
X3919100D01*
X3799020Y1535900D01*
Y1230910D01*
X3702650Y1134540D01*
X3702340Y1130910D01*
G02X3680630Y1094980I-47344J4083D01*
G03X3677150Y1081940I5390J-8423D01*
G02X3678080Y1039940I-42150J-21944D01*
G03X3682420Y1026900I9063J-4226D01*
G02X3626820Y950980I-22422J-41898D01*
G01X3580910D01*
X3485980Y1045910D01*
Y1589090D01*
X3800910Y1904020D01*
X4275910D01*
X4785910Y2414020D01*
X4913340D01*
Y2430070D01*
X4907980Y2432880D01*
G02X4896820Y2440980I22040J42104D01*
G01X4873890D01*
X4725980Y2588890D01*
Y2690910D01*
X4685910Y2730980D01*
X4483180D01*
G02Y2799020I-33180J34020D01*
G01X4546340D01*
G03X4562230Y2831160I-2J19999D01*
G02X4553830Y2871250I37770J28839D01*
G03X4534400Y2895980I-19432J4731D01*
G01X4339090D01*
X4131270Y2688160D01*
G03X4145410Y2654020I14144J-14140D01*
G01X4545910D01*
X4552350Y2660460D01*
X4552660Y2664090D01*
G02X4604090Y2612660I47340J-4090D01*
G01X4600460Y2612350D01*
X4574040Y2585930D01*
G03X4561270Y2551840I1375J-19952D01*
G01X4600460Y2512650D01*
X4604090Y2512340D01*
G02X4552660Y2460910I-4090J-47340D01*
G01X4552350Y2464540D01*
X4485910Y2530980D01*
X3518180D01*
G02X3439640Y2550830I-33181J34019D01*
G01X3438910Y2553180D01*
X3430100Y2561990D01*
X3412650Y2544540D01*
X3412340Y2540910D01*
G02X3323000Y2567230I-47343J4088D01*
G01X3326460Y2573760D01*
X3314160Y2586050D01*
X3282650Y2554540D01*
X3282340Y2550910D01*
G02X3195800Y2528140I-47342J4092D01*
G03X3169140Y2534070I-16503J-11299D01*
G02X3110980Y2608180I-24141J40931D01*
G01Y2669090D01*
X3255910Y2814020D01*
X4005910D01*
X4290910Y3099020D01*
X4566820D01*
G02X4646170Y3053750I33180J-34019D01*
G03X4665600Y3029020I19432J-4731D01*
G01X4746820D01*
G02X4826890Y2987270I33182J-34018D01*
G03X4846620Y2964020I19733J-3251D01*
G01X5091820D01*
G02Y2895980I33180J-34020D01*
G01X4665600D01*
G03X4646170Y2871250I2J-19999D01*
G02X4637770Y2831160I-46170J-11251D01*
G03X4653660Y2799020I15892J-12141D01*
G01X4714090D01*
X4794020Y2719090D01*
Y2617070D01*
X4899140Y2511960D01*
X4905820Y2515900D01*
G02X4967770Y2446160I24180J-40906D01*
G03X4983660Y2414020I15892J-12141D01*
G01X5851820D01*
G02X5863010Y2422120I33162J-34034D01*
G03X5867890Y2454000I-9257J17731D01*
G01X5795980Y2525910D01*
Y2850910D01*
X5750910Y2895980D01*
X5529110D01*
X5433630Y2991460D01*
X5430000Y2991770D01*
G02X5481430Y3043200I4090J47340D01*
G01X5481740Y3039570D01*
X5557290Y2964020D01*
X5779090D01*
X5864020Y2879090D01*
Y2554090D01*
X6219020Y2199090D01*
Y1055910D01*
X5554020Y390910D01*
Y293240D01*
G02X5485980I-34020J-43240D01*
G37*
G54D13*
X5980000Y2820000D03*
X5950000Y3025000D03*
X6035000Y2575000D03*
X5920000Y1205000D03*
X5210000Y2000000D03*
X5015000Y2615000D03*
X3590000Y840000D03*
X3190000Y2865000D03*
G54D14*
X5920000Y250000D03*
X5720000D03*
X5095000Y3490000D03*
X5245000D03*
X5320000Y250000D03*
X5120000D03*
X4945000Y3490000D03*
X4845000Y1130000D03*
Y975000D03*
X4490000Y995000D03*
X4670000D03*
X4365000Y870000D03*
X3460000Y3245000D03*
%LPD*%
G75*
G36*
G01X6116840Y1546270D02*
X5999160Y1663950D01*
X5998840Y1667590D01*
G03X5985520Y1696680I-47343J-4084D01*
G01Y1792590D01*
X5761770Y2016350D01*
G02X5762310Y2045150I14140J14140D01*
G03X5777450Y2082580I-32311J34846D01*
G02X5801150Y2103310I19970J1082D01*
G03X5762550Y2147420I8850J46689D01*
G02X5738850Y2126690I-19970J-1082D01*
G03X5713800Y2124670I-8841J-46690D01*
G02X5687140Y2140970I-6816J18805D01*
G03X5685110Y2149950I-47147J-5939D01*
G03X5674090Y2242340I-15116J45049D01*
G01X5670450Y2242660D01*
X5654200Y2258910D01*
G02X5661270Y2275980I7073J7070D01*
G01X5801820D01*
G03X5882400Y2313340I33178J34020D01*
G02X5897210Y2334080I19952J1410D01*
G03X5927120Y2358010I-12212J45921D01*
G02X5959000Y2362890I17731J-9257D01*
G01X6150980Y2170910D01*
Y1560420D01*
G02X6116840Y1546270I-20000J-6D01*
G37*
G54D10*
X2600000Y470000D03*
Y240000D03*
Y690000D03*
X2595000Y900000D03*
X2770000Y1400000D03*
X2580000Y1440000D03*
X2560000Y1255000D03*
X2580000Y1630000D03*
X2760000Y3410000D03*
X2580000Y3360000D03*
Y3170000D03*
X2615000Y3525000D03*
X3090000Y470000D03*
X3100000Y240000D03*
X2830000D03*
Y470000D03*
X3110000Y690000D03*
X2830000Y680000D03*
X2960000Y1460000D03*
Y1640000D03*
X2890000Y2775000D03*
X2950000Y3170000D03*
Y3360000D03*
X2915000Y3530000D03*
X3360000Y470000D03*
X3350000Y240000D03*
X3360000Y690000D03*
X3220000Y2010000D03*
Y2330000D03*
Y2170000D03*
X3145000Y2475000D03*
X3365000Y2545000D03*
X3235000Y2555000D03*
X3145000Y2575000D03*
X3300000Y2700000D03*
X3310000Y2870000D03*
X3275000Y2945000D03*
X3190000Y2865000D03*
X3150000Y3540000D03*
X3590000Y240000D03*
Y480000D03*
X3580000Y690000D03*
X3750000Y1100000D03*
X3590000Y840000D03*
X3655000Y1135000D03*
X3635000Y1060000D03*
X3660000Y985000D03*
X3645000Y1310000D03*
X3635000Y1205000D03*
X3485000Y2565000D03*
X3595000Y3540000D03*
X4090000Y390000D03*
X3810000Y380000D03*
X3960000Y240000D03*
X4080000Y580000D03*
X3870000Y730000D03*
X3820000Y570000D03*
X3870000Y1010000D03*
X3850000Y1200000D03*
X3860000Y3490000D03*
X4330000Y420000D03*
X4240000Y230000D03*
X4360000Y580000D03*
X4175000Y2075000D03*
X4250000Y1930000D03*
X4400000Y2155000D03*
X4285000Y2300000D03*
X4170000Y2470000D03*
X4150000Y3200000D03*
X4120000Y3520000D03*
X4700000Y230000D03*
X4510000Y310000D03*
X4690000Y440000D03*
X4560000Y620000D03*
X4685000Y685000D03*
X4540000Y1150000D03*
X4580000Y1730000D03*
X4600000Y2465000D03*
Y2660000D03*
X4450000Y2765000D03*
X4600000Y3065000D03*
Y2860000D03*
X4840000Y1310000D03*
X4770000Y1780000D03*
X4850000Y1575000D03*
Y2000000D03*
X4890000Y2700000D03*
X5015000Y2615000D03*
X4930000Y2475000D03*
X4780000Y2995000D03*
X4950000Y3280000D03*
X5010000Y3190000D03*
X5300000Y720000D03*
X5110000D03*
X5310000Y1035000D03*
X5260000Y1350000D03*
X5110000D03*
X5095000Y2090000D03*
X5210000Y2000000D03*
X5390000Y2065000D03*
X5385000Y1990000D03*
X5125000Y2930000D03*
X5240000Y3250000D03*
X5340000Y3160000D03*
X5400000Y3750000D03*
Y3590000D03*
X5100000Y3650000D03*
X5270000Y3810000D03*
X5100000Y3850000D03*
Y4040000D03*
X5250000Y4360000D03*
X5100000Y4250000D03*
Y4470000D03*
X5500000Y770000D03*
X5435000Y1665000D03*
X5580000Y1940000D03*
X5640000Y2135000D03*
X5730000Y2080000D03*
X5670000Y2195000D03*
X5434090Y3039110D03*
X5630000Y3310000D03*
X5620000Y3640000D03*
Y3480000D03*
X5600000Y3850000D03*
X5560000Y4140000D03*
X5420000Y4210000D03*
X5720000Y4460000D03*
X5420000Y4470000D03*
X6035000Y1035000D03*
X5920000Y1205000D03*
X5951500Y1663500D03*
X5945000Y1535000D03*
X5960000Y2020000D03*
X5790000Y1835000D03*
X6025000Y2170000D03*
X5810000Y2150000D03*
X5835000Y2310000D03*
X5885000Y2380000D03*
X6035000Y2575000D03*
X5860000Y3100000D03*
X5950000Y3025000D03*
X5980000Y2820000D03*
X5860000Y3390000D03*
Y3230000D03*
X6050000Y3210000D03*
X6060000Y3470000D03*
X5860000Y3540000D03*
Y3720000D03*
X6060000Y4030000D03*
X5860000Y4080000D03*
Y3900000D03*
X5880000Y4270000D03*
X6040000Y4470000D03*
X6110000Y1980000D03*
X6330000Y2340000D03*
X6210000Y2460000D03*
X6190000Y2590000D03*
X6260000Y2925000D03*
X6200000Y2865000D03*
X6240000Y3340000D03*
X6210000Y3670000D03*
X6390000Y3520000D03*
X6360000Y4010000D03*
X6090000Y3800000D03*
X6185000Y4225000D03*
X6315000Y4440000D03*
X6650000Y2410000D03*
Y2240000D03*
X6450000D03*
X6650000Y2780000D03*
Y2580000D03*
X6420000Y3080000D03*
X6560000Y2920000D03*
X6620000Y3390000D03*
X6460000Y3270000D03*
X6630000Y3140000D03*
X6420000Y3760000D03*
X6630000Y3660000D03*
X6620000Y3985000D03*
X6525000Y4230000D03*
G54D11*
X3460000Y3245000D03*
X3590000Y3145000D03*
X3670000Y3245000D03*
X3840000D03*
X3935000Y3160000D03*
X4365000Y870000D03*
X4670000Y995000D03*
X4490000D03*
X4590000Y1400000D03*
X4480000Y1460000D03*
X4845000Y975000D03*
Y1130000D03*
X4945000Y3490000D03*
X5120000Y250000D03*
X5320000D03*
X5380000Y2610000D03*
Y2510000D03*
Y2710000D03*
Y2810000D03*
X5245000Y3490000D03*
X5095000D03*
X5720000Y250000D03*
X5520000D03*
X5480000Y2610000D03*
X5580000Y2510000D03*
X5680000Y2610000D03*
X5580000D03*
Y2710000D03*
X5680000Y2510000D03*
X5480000D03*
X5680000Y2710000D03*
X5480000D03*
X5580000Y2810000D03*
X5680000D03*
X5480000D03*
X5920000Y250000D03*
X6120000D03*
G54D12*
G01X4600000Y2660000D02*
X4560000Y2620000D01*
X3440000D01*
X3365000Y2545000D01*
G01X5125000Y2930000D02*
X4325000D01*
X4065000Y2670000D01*
X3350000D01*
X3235000Y2555000D01*
G01X4600000Y3065000D02*
X4305000D01*
X4020000Y2780000D01*
X3270000D01*
X3145000Y2655000D01*
Y2575000D01*
G01X4780000Y2995000D02*
X4310000D01*
X4045000Y2730000D01*
X3330000D01*
X3300000Y2700000D01*
G01X5730000Y2080000D02*
X5615010D01*
X5535010Y2160000D01*
X4895010D01*
X4425010Y1690000D01*
X3905010D01*
X3765000Y1549990D01*
Y1245000D01*
X3655000Y1135000D01*
G01X3640000Y1060000D02*
X3635000D01*
G01D02*
X3575000Y1120000D01*
Y1560000D01*
X3840000Y1825000D01*
X4315000D01*
X4800000Y2310000D01*
X5835000D01*
G01X5885000Y2380000D02*
X4800000D01*
X4290000Y1870000D01*
X3815000D01*
X3520000Y1575000D01*
Y1060000D01*
X3595000Y985000D01*
X3660000D01*
G01X5670000Y2195000D02*
X5605000Y2260000D01*
X4825000D01*
X4345000Y1780000D01*
X3865000D01*
X3645000Y1560000D01*
Y1310000D01*
G01X5640000Y2135000D02*
X5565000Y2210000D01*
X4860000D01*
X4385000Y1735000D01*
X3885000D01*
X3715000Y1565000D01*
Y1285000D01*
X3635000Y1205000D01*
G01X4600000Y2465000D02*
X4500000Y2565000D01*
X3485000D01*
G01X4930000Y2475000D02*
X4887980D01*
X4760000Y2602980D01*
Y2705000D01*
X4700000Y2765000D01*
X4450000D01*
G01X5435000Y1665000D02*
Y1415000D01*
X5310000Y1290000D01*
Y1035000D01*
G01X5390000Y2065000D02*
X5421260Y2033740D01*
X5696260D01*
X5951500Y1778500D01*
Y1663500D01*
G01X5385000Y1990000D02*
X5605000D01*
X5700000Y1895000D01*
Y1720000D01*
X5885000Y1535000D01*
X5945000D01*
G01X5520000Y250000D02*
Y405000D01*
X6185000Y1070000D01*
Y2185000D01*
X5830000Y2540000D01*
Y2865000D01*
X5765000Y2930000D01*
X5543200D01*
X5434090Y3039110D01*
G01X5580000Y1940000D02*
X5435000Y1795000D01*
Y1665000D01*
G01X6035000Y1035000D02*
X6105000Y1105000D01*
Y1510000D01*
X5951500Y1663500D01*
M02*
