G04 ================== begin FILE IDENTIFICATION RECORD ==================*
G04 Layout Name:  D:/WorkSpace/SPB_Data/esl/allegro/esl.brd*
G04 Film Name:    Drill_Dimension*
G04 File Format:  Gerber RS274X*
G04 File Origin:  Cadence Allegro 16.6-P004*
G04 Origin Date:  Tue Sep 10 16:37:25 2019*
G04 *
G04 Layer:  MANUFACTURING/NCLEGEND-1-4*
G04 Layer:  BOARD GEOMETRY/OUTLINE*
G04 *
G04 Offset:    (0.0000 0.0000)*
G04 Mirror:    No*
G04 Mode:      Positive*
G04 Rotation:  0*
G04 FullContactRelief:  No*
G04 UndefLineWidth:     0.1000*
G04 ================== end FILE IDENTIFICATION RECORD ====================*
%FSLAX25Y25*MOMM*%
%IR0*IPPOS*OFA0.00000B0.00000*MIA0B0*SFA1.00000B1.00000*%
%AMMACRO10*
1,1,.1,.2,0.0*
20,1,.1,.2,0.0,.196962,-.03473,0.0*
1,1,.1,.196962,-.03473*
20,1,.1,.196962,-.03473,.187939,-.068404,0.0*
1,1,.1,.187939,-.068404*
20,1,.1,.187939,-.068404,.173205,-.1,0.0*
1,1,.1,.173205,-.1*
20,1,.1,.173205,-.1,.153209,-.128558,0.0*
1,1,.1,.153209,-.128558*
20,1,.1,.153209,-.128558,.128558,-.153209,0.0*
1,1,.1,.128558,-.153209*
20,1,.1,.128558,-.153209,.1,-.173205,0.0*
1,1,.1,.1,-.173205*
20,1,.1,.1,-.173205,.068404,-.187939,0.0*
1,1,.1,.068404,-.187939*
20,1,.1,.068404,-.187939,.03473,-.196962,0.0*
1,1,.1,.03473,-.196962*
20,1,.1,.03473,-.196962,0.0,-.2,0.0*
1,1,.1,0.0,-.2*
20,1,.1,0.0,-.2,-.03473,-.196962,0.0*
1,1,.1,-.03473,-.196962*
20,1,.1,-.03473,-.196962,-.068404,-.187939,0.0*
1,1,.1,-.068404,-.187939*
20,1,.1,-.068404,-.187939,-.1,-.173205,0.0*
1,1,.1,-.1,-.173205*
20,1,.1,-.1,-.173205,-.128558,-.153209,0.0*
1,1,.1,-.128558,-.153209*
20,1,.1,-.128558,-.153209,-.153209,-.128558,0.0*
1,1,.1,-.153209,-.128558*
20,1,.1,-.153209,-.128558,-.173205,-.1,0.0*
1,1,.1,-.173205,-.1*
20,1,.1,-.173205,-.1,-.187939,-.068404,0.0*
1,1,.1,-.187939,-.068404*
20,1,.1,-.187939,-.068404,-.196962,-.03473,0.0*
1,1,.1,-.196962,-.03473*
20,1,.1,-.196962,-.03473,-.2,0.0,0.0*
1,1,.1,-.2,0.0*
20,1,.1,-.2,0.0,-.196962,.03473,0.0*
1,1,.1,-.196962,.03473*
20,1,.1,-.196962,.03473,-.187939,.068404,0.0*
1,1,.1,-.187939,.068404*
20,1,.1,-.187939,.068404,-.173205,.1,0.0*
1,1,.1,-.173205,.1*
20,1,.1,-.173205,.1,-.153209,.128558,0.0*
1,1,.1,-.153209,.128558*
20,1,.1,-.153209,.128558,-.128558,.153209,0.0*
1,1,.1,-.128558,.153209*
20,1,.1,-.128558,.153209,-.1,.173205,0.0*
1,1,.1,-.1,.173205*
20,1,.1,-.1,.173205,-.068404,.187939,0.0*
1,1,.1,-.068404,.187939*
20,1,.1,-.068404,.187939,-.03473,.196962,0.0*
1,1,.1,-.03473,.196962*
20,1,.1,-.03473,.196962,0.0,.2,0.0*
1,1,.1,0.0,.2*
20,1,.1,0.0,.2,.03473,.196962,0.0*
1,1,.1,.03473,.196962*
20,1,.1,.03473,.196962,.068404,.187939,0.0*
1,1,.1,.068404,.187939*
20,1,.1,.068404,.187939,.1,.173205,0.0*
1,1,.1,.1,.173205*
20,1,.1,.1,.173205,.128558,.153209,0.0*
1,1,.1,.128558,.153209*
20,1,.1,.128558,.153209,.153209,.128558,0.0*
1,1,.1,.153209,.128558*
20,1,.1,.153209,.128558,.173205,.1,0.0*
1,1,.1,.173205,.1*
20,1,.1,.173205,.1,.187939,.068404,0.0*
1,1,.1,.187939,.068404*
20,1,.1,.187939,.068404,.196962,.03473,0.0*
1,1,.1,.196962,.03473*
20,1,.1,.196962,.03473,.2,0.0,0.0*
1,1,.1,.2,0.0*
1,1,.1,-.0833,.1*
20,1,.1,-.0833,.1,0.0,-.1,0.0*
1,1,.1,0.0,-.1*
20,1,.1,0.0,-.1,.0833,.1,0.0*
1,1,.1,.0833,.1*
%
%ADD10MACRO10*%
%AMMACRO11*
1,1,.1,.3,0.0*
20,1,.1,.3,0.0,.295442,-.052094,0.0*
1,1,.1,.295442,-.052094*
20,1,.1,.295442,-.052094,.281908,-.102606,0.0*
1,1,.1,.281908,-.102606*
20,1,.1,.281908,-.102606,.259808,-.15,0.0*
1,1,.1,.259808,-.15*
20,1,.1,.259808,-.15,.229813,-.192836,0.0*
1,1,.1,.229813,-.192836*
20,1,.1,.229813,-.192836,.192836,-.229813,0.0*
1,1,.1,.192836,-.229813*
20,1,.1,.192836,-.229813,.15,-.259808,0.0*
1,1,.1,.15,-.259808*
20,1,.1,.15,-.259808,.102606,-.281908,0.0*
1,1,.1,.102606,-.281908*
20,1,.1,.102606,-.281908,.052094,-.295442,0.0*
1,1,.1,.052094,-.295442*
20,1,.1,.052094,-.295442,0.0,-.3,0.0*
1,1,.1,0.0,-.3*
20,1,.1,0.0,-.3,-.052094,-.295442,0.0*
1,1,.1,-.052094,-.295442*
20,1,.1,-.052094,-.295442,-.102606,-.281908,0.0*
1,1,.1,-.102606,-.281908*
20,1,.1,-.102606,-.281908,-.15,-.259808,0.0*
1,1,.1,-.15,-.259808*
20,1,.1,-.15,-.259808,-.192836,-.229813,0.0*
1,1,.1,-.192836,-.229813*
20,1,.1,-.192836,-.229813,-.229813,-.192836,0.0*
1,1,.1,-.229813,-.192836*
20,1,.1,-.229813,-.192836,-.259808,-.15,0.0*
1,1,.1,-.259808,-.15*
20,1,.1,-.259808,-.15,-.281908,-.102606,0.0*
1,1,.1,-.281908,-.102606*
20,1,.1,-.281908,-.102606,-.295442,-.052094,0.0*
1,1,.1,-.295442,-.052094*
20,1,.1,-.295442,-.052094,-.3,0.0,0.0*
1,1,.1,-.3,0.0*
20,1,.1,-.3,0.0,-.295442,.052094,0.0*
1,1,.1,-.295442,.052094*
20,1,.1,-.295442,.052094,-.281908,.102606,0.0*
1,1,.1,-.281908,.102606*
20,1,.1,-.281908,.102606,-.259808,.15,0.0*
1,1,.1,-.259808,.15*
20,1,.1,-.259808,.15,-.229813,.192836,0.0*
1,1,.1,-.229813,.192836*
20,1,.1,-.229813,.192836,-.192836,.229813,0.0*
1,1,.1,-.192836,.229813*
20,1,.1,-.192836,.229813,-.15,.259808,0.0*
1,1,.1,-.15,.259808*
20,1,.1,-.15,.259808,-.102606,.281908,0.0*
1,1,.1,-.102606,.281908*
20,1,.1,-.102606,.281908,-.052094,.295442,0.0*
1,1,.1,-.052094,.295442*
20,1,.1,-.052094,.295442,0.0,.3,0.0*
1,1,.1,0.0,.3*
20,1,.1,0.0,.3,.052094,.295442,0.0*
1,1,.1,.052094,.295442*
20,1,.1,.052094,.295442,.102606,.281908,0.0*
1,1,.1,.102606,.281908*
20,1,.1,.102606,.281908,.15,.259808,0.0*
1,1,.1,.15,.259808*
20,1,.1,.15,.259808,.192836,.229813,0.0*
1,1,.1,.192836,.229813*
20,1,.1,.192836,.229813,.229813,.192836,0.0*
1,1,.1,.229813,.192836*
20,1,.1,.229813,.192836,.259808,.15,0.0*
1,1,.1,.259808,.15*
20,1,.1,.259808,.15,.281908,.102606,0.0*
1,1,.1,.281908,.102606*
20,1,.1,.281908,.102606,.295442,.052094,0.0*
1,1,.1,.295442,.052094*
20,1,.1,.295442,.052094,.3,0.0,0.0*
1,1,.1,.3,0.0*
1,1,.1,-.105,-.15*
20,1,.1,-.105,-.15,.105,.15,0.0*
1,1,.1,.105,.15*
1,1,.1,-.105,.15*
20,1,.1,-.105,.15,.105,-.15,0.0*
1,1,.1,.105,-.15*
%
%ADD11MACRO11*%
%ADD12C,.1*%
G75*
%LPD*%
G75*
G54D10*
X2600000Y470000D03*
Y240000D03*
Y690000D03*
X2595000Y900000D03*
X2770000Y1400000D03*
X2580000Y1440000D03*
X2560000Y1255000D03*
X2580000Y1630000D03*
X2760000Y3410000D03*
X2580000Y3360000D03*
Y3170000D03*
X2615000Y3525000D03*
X3090000Y470000D03*
X3100000Y240000D03*
X2830000D03*
Y470000D03*
X3110000Y690000D03*
X2830000Y680000D03*
X2960000Y1460000D03*
Y1640000D03*
X2890000Y2775000D03*
X2950000Y3170000D03*
Y3360000D03*
X2915000Y3530000D03*
X3360000Y470000D03*
X3350000Y240000D03*
X3360000Y690000D03*
X3220000Y2010000D03*
Y2330000D03*
Y2170000D03*
X3145000Y2475000D03*
X3365000Y2545000D03*
X3235000Y2555000D03*
X3145000Y2575000D03*
X3300000Y2700000D03*
X3310000Y2870000D03*
X3275000Y2945000D03*
X3190000Y2865000D03*
X3150000Y3540000D03*
X3590000Y240000D03*
Y480000D03*
X3580000Y690000D03*
X3750000Y1100000D03*
X3590000Y840000D03*
X3655000Y1135000D03*
X3635000Y1060000D03*
X3660000Y985000D03*
X3645000Y1310000D03*
X3635000Y1205000D03*
X3485000Y2565000D03*
X3595000Y3540000D03*
X4090000Y390000D03*
X3810000Y380000D03*
X3960000Y240000D03*
X4080000Y580000D03*
X3870000Y730000D03*
X3820000Y570000D03*
X3870000Y1010000D03*
X3850000Y1200000D03*
X3860000Y3490000D03*
X4330000Y420000D03*
X4240000Y230000D03*
X4360000Y580000D03*
X4175000Y2075000D03*
X4250000Y1930000D03*
X4400000Y2155000D03*
X4285000Y2300000D03*
X4170000Y2470000D03*
X4150000Y3200000D03*
X4120000Y3520000D03*
X4700000Y230000D03*
X4510000Y310000D03*
X4690000Y440000D03*
X4560000Y620000D03*
X4685000Y685000D03*
X4540000Y1150000D03*
X4580000Y1730000D03*
X4600000Y2465000D03*
Y2660000D03*
X4450000Y2765000D03*
X4600000Y3065000D03*
Y2860000D03*
X4840000Y1310000D03*
X4770000Y1780000D03*
X4850000Y1575000D03*
Y2000000D03*
X4890000Y2700000D03*
X5015000Y2615000D03*
X4930000Y2475000D03*
X4780000Y2995000D03*
X4950000Y3280000D03*
X5010000Y3190000D03*
X5300000Y720000D03*
X5110000D03*
X5310000Y1035000D03*
X5260000Y1350000D03*
X5110000D03*
X5095000Y2090000D03*
X5210000Y2000000D03*
X5390000Y2065000D03*
X5385000Y1990000D03*
X5125000Y2930000D03*
X5240000Y3250000D03*
X5340000Y3160000D03*
X5400000Y3750000D03*
Y3590000D03*
X5100000Y3650000D03*
X5270000Y3810000D03*
X5100000Y3850000D03*
Y4040000D03*
X5250000Y4360000D03*
X5100000Y4250000D03*
Y4470000D03*
X5500000Y770000D03*
X5435000Y1665000D03*
X5580000Y1940000D03*
X5640000Y2135000D03*
X5730000Y2080000D03*
X5670000Y2195000D03*
X5434090Y3039110D03*
X5630000Y3310000D03*
X5620000Y3640000D03*
Y3480000D03*
X5600000Y3850000D03*
X5560000Y4140000D03*
X5420000Y4210000D03*
X5720000Y4460000D03*
X5420000Y4470000D03*
X6035000Y1035000D03*
X5920000Y1205000D03*
X5951500Y1663500D03*
X5945000Y1535000D03*
X5960000Y2020000D03*
X5790000Y1835000D03*
X6025000Y2170000D03*
X5810000Y2150000D03*
X5835000Y2310000D03*
X5885000Y2380000D03*
X6035000Y2575000D03*
X5860000Y3100000D03*
X5950000Y3025000D03*
X5980000Y2820000D03*
X5860000Y3390000D03*
Y3230000D03*
X6050000Y3210000D03*
X6060000Y3470000D03*
X5860000Y3540000D03*
Y3720000D03*
X6060000Y4030000D03*
X5860000Y4080000D03*
Y3900000D03*
X5880000Y4270000D03*
X6040000Y4470000D03*
X6110000Y1980000D03*
X6330000Y2340000D03*
X6210000Y2460000D03*
X6190000Y2590000D03*
X6260000Y2925000D03*
X6200000Y2865000D03*
X6240000Y3340000D03*
X6210000Y3670000D03*
X6390000Y3520000D03*
X6360000Y4010000D03*
X6090000Y3800000D03*
X6185000Y4225000D03*
X6315000Y4440000D03*
X6650000Y2410000D03*
Y2240000D03*
X6450000D03*
X6650000Y2780000D03*
Y2580000D03*
X6420000Y3080000D03*
X6560000Y2920000D03*
X6620000Y3390000D03*
X6460000Y3270000D03*
X6630000Y3140000D03*
X6420000Y3760000D03*
X6630000Y3660000D03*
X6620000Y3985000D03*
X6525000Y4230000D03*
X9341730Y1700650D03*
G54D11*
X3460000Y3245000D03*
X3590000Y3145000D03*
X3670000Y3245000D03*
X3840000D03*
X3935000Y3160000D03*
X4365000Y870000D03*
X4670000Y995000D03*
X4490000D03*
X4590000Y1400000D03*
X4480000Y1460000D03*
X4845000Y975000D03*
Y1130000D03*
X4945000Y3490000D03*
X5120000Y250000D03*
X5320000D03*
X5380000Y2610000D03*
Y2510000D03*
Y2710000D03*
Y2810000D03*
X5245000Y3490000D03*
X5095000D03*
X5720000Y250000D03*
X5520000D03*
X5480000Y2610000D03*
X5580000Y2510000D03*
X5680000Y2610000D03*
X5580000D03*
Y2710000D03*
X5680000Y2510000D03*
X5480000D03*
X5680000Y2710000D03*
X5480000D03*
X5580000Y2810000D03*
X5680000D03*
X5480000D03*
X5920000Y250000D03*
X6120000D03*
X9341730Y986910D03*
G54D12*
G01X6740180Y-60D02*
G03X6920180Y179940I2J179998D01*
G01Y4619940D01*
G03X6740180Y4799940I-180000J0D01*
G01X700180D01*
G03X500180Y4599940I2J-200002D01*
G01Y199940D01*
G03X700180Y-60I200000J0D01*
G01X6740180D01*
G01X950000Y300000D02*
G03I-150000J0D01*
G01Y4500000D02*
G03I-150000J0D01*
G01X6770000Y300000D02*
G03I-150000J0D01*
G01Y4500000D02*
G03I-150000J0D01*
G01X8200000Y630040D02*
Y4135000D01*
X20483440D01*
Y630040D01*
X8200000D01*
G01Y1343780D02*
X20483440D01*
G01X8200000Y2057520D02*
X20483440D01*
G01X8200000Y2771260D02*
X20483440D01*
G01X8200000Y3485000D02*
X20483440D01*
G01X8479520Y2295010D02*
Y2612510D01*
X8629140D01*
G01X8574010Y2459060D02*
X8479520D01*
G01X8822050Y2612510D02*
X8916530D01*
G01X8869290D02*
Y2295010D01*
G01X8822050D02*
X8916530D01*
G01X9207870Y2453760D02*
X9286620D01*
Y2358510D01*
X9262990Y2326750D01*
X9235430Y2305590D01*
X9196060Y2295010D01*
X9156690Y2305590D01*
X9129130Y2326750D01*
X9105510Y2358510D01*
X9089760Y2395550D01*
X9081880Y2437880D01*
Y2474930D01*
X9089760Y2506670D01*
X9105510Y2543720D01*
X9129130Y2575470D01*
X9152750Y2596630D01*
X9184250Y2612510D01*
X9211810D01*
X9243300Y2601930D01*
X9266930Y2580760D01*
G01X9412600Y2612510D02*
Y2384970D01*
X9428340Y2337330D01*
X9459840Y2305590D01*
X9499210Y2295010D01*
X9538580Y2305590D01*
X9570080Y2337330D01*
X9585820Y2384970D01*
Y2612510D01*
G01X9735430Y2295010D02*
Y2612510D01*
X9833850D01*
X9865350Y2596630D01*
X9885040Y2575470D01*
X9892910Y2533130D01*
X9885040Y2490800D01*
X9861410Y2464350D01*
X9833850Y2448460D01*
X9735430D01*
G01X9833850D02*
X9892910Y2295010D01*
G01X10207870D02*
X10050390D01*
Y2612510D01*
X10207870D01*
G01X10144880Y2459060D02*
X10050390D01*
G01X9991330Y3008750D02*
X10089760Y3326250D01*
X10188190Y3008750D01*
G01X10152750Y3119870D02*
X10026760D01*
G01X10325980Y3326250D02*
Y3008750D01*
X10483460D01*
G01X10640940Y3326250D02*
Y3008750D01*
X10798420D01*
G01X11262990Y3326250D02*
Y3098710D01*
X11278730Y3051070D01*
X11310230Y3019330D01*
X11349600Y3008750D01*
X11388970Y3019330D01*
X11420470Y3051070D01*
X11436210Y3098710D01*
Y3326250D01*
G01X11574010Y3008750D02*
Y3326250D01*
X11755110Y3008750D01*
Y3326250D01*
G01X11932280D02*
X12026760D01*
G01X11979520D02*
Y3008750D01*
G01X11932280D02*
X12026760D01*
G01X12294480Y3326250D02*
Y3008750D01*
G01X12203930Y3326250D02*
X12385030D01*
G01X12526760Y3051070D02*
X12558260Y3024620D01*
X12593690Y3008750D01*
X12625190D01*
X12656680Y3024620D01*
X12680310Y3051070D01*
X12692120Y3088130D01*
X12684250Y3125160D01*
X12664560Y3156910D01*
X12629120Y3178090D01*
X12581880Y3188670D01*
X12554320Y3209830D01*
X12542510Y3246870D01*
X12550390Y3283920D01*
X12570070Y3310370D01*
X12597630Y3326250D01*
X12625190D01*
X12652750Y3315670D01*
X12676370Y3289210D01*
G01X13140930Y3008750D02*
X13239360Y3326250D01*
X13337790Y3008750D01*
G01X13302350Y3119870D02*
X13176360D01*
G01X13475580Y3008750D02*
Y3326250D01*
X13574000D01*
X13605500Y3310370D01*
X13625190Y3289210D01*
X13633060Y3246870D01*
X13625190Y3204540D01*
X13601560Y3178090D01*
X13574000Y3162200D01*
X13475580D01*
G01X13574000D02*
X13633060Y3008750D01*
G01X13948020D02*
X13790540D01*
Y3326250D01*
X13948020D01*
G01X13885030Y3172800D02*
X13790540D01*
G01X14451960Y3326250D02*
X14546440D01*
G01X14499200D02*
Y3008750D01*
G01X14451960D02*
X14546440D01*
G01X14723610D02*
Y3326250D01*
X14904710Y3008750D01*
Y3326250D01*
G01X15341710Y3008750D02*
Y3326250D01*
X15444080Y3061670D01*
X15546450Y3326250D01*
Y3008750D01*
G01X15711800Y3326250D02*
X15806280D01*
G01X15759040D02*
Y3008750D01*
G01X15711800D02*
X15806280D01*
G01X15995260Y3326250D02*
Y3008750D01*
X16152740D01*
G01X16310220Y3326250D02*
Y3008750D01*
X16467700D01*
G01X16656680Y3326250D02*
X16751160D01*
G01X16703920D02*
Y3008750D01*
G01X16656680D02*
X16751160D01*
G01X16916510D02*
Y3326250D01*
X17018880Y3061670D01*
X17121250Y3326250D01*
Y3008750D01*
G01X17412580D02*
X17255100D01*
Y3326250D01*
X17412580D01*
G01X17349590Y3172800D02*
X17255100D01*
G01X17648800Y3326250D02*
Y3008750D01*
G01X17558250Y3326250D02*
X17739350D01*
G01X18042500Y3008750D02*
X17885020D01*
Y3326250D01*
X18042500D01*
G01X17979510Y3172800D02*
X17885020D01*
G01X18199980Y3008750D02*
Y3326250D01*
X18298400D01*
X18329900Y3310370D01*
X18349590Y3289210D01*
X18357460Y3246870D01*
X18349590Y3204540D01*
X18325960Y3178090D01*
X18298400Y3162200D01*
X18199980D01*
G01X18298400D02*
X18357460Y3008750D01*
G01X18511000Y3051070D02*
X18542500Y3024620D01*
X18577930Y3008750D01*
X18609430D01*
X18640920Y3024620D01*
X18664550Y3051070D01*
X18676360Y3088130D01*
X18668490Y3125160D01*
X18648800Y3156910D01*
X18613360Y3178090D01*
X18566120Y3188670D01*
X18538560Y3209830D01*
X18526750Y3246870D01*
X18534630Y3283920D01*
X18554310Y3310370D01*
X18581870Y3326250D01*
X18609430D01*
X18636990Y3315670D01*
X18660610Y3289210D01*
G01X10318110Y3658750D02*
Y3976250D01*
X10396840D01*
X10428340Y3960370D01*
X10451960Y3939210D01*
X10471650Y3907460D01*
X10487400Y3870410D01*
X10491330Y3817500D01*
X10487400Y3764580D01*
X10471650Y3727540D01*
X10451960Y3695780D01*
X10428340Y3674620D01*
X10396840Y3658750D01*
X10318110D01*
G01X10640940D02*
Y3976250D01*
X10739360D01*
X10770860Y3960370D01*
X10790550Y3939210D01*
X10798420Y3896870D01*
X10790550Y3854540D01*
X10766920Y3828090D01*
X10739360Y3812200D01*
X10640940D01*
G01X10739360D02*
X10798420Y3658750D01*
G01X10987400Y3976250D02*
X11081880D01*
G01X11034640D02*
Y3658750D01*
G01X10987400D02*
X11081880D01*
G01X11270860Y3976250D02*
Y3658750D01*
X11428340D01*
G01X11585820Y3976250D02*
Y3658750D01*
X11743300D01*
G01X12381090Y3949790D02*
X12357470Y3965670D01*
X12329920Y3976250D01*
X12298420D01*
X12262980Y3960370D01*
X12235430Y3933920D01*
X12215740Y3902160D01*
X12199990Y3849250D01*
X12196050Y3801620D01*
X12203930Y3754000D01*
X12215740Y3722250D01*
X12239360Y3690490D01*
X12266920Y3669330D01*
X12294480Y3658750D01*
X12322040D01*
X12349600Y3669330D01*
X12373220Y3685200D01*
X12392910Y3706360D01*
G01X12526760Y3658750D02*
Y3976250D01*
G01X12692120D02*
Y3658750D01*
G01Y3817500D02*
X12526760D01*
G01X12825970Y3658750D02*
X12924400Y3976250D01*
X13022830Y3658750D01*
G01X12987390Y3769870D02*
X12861400D01*
G01X13160620Y3658750D02*
Y3976250D01*
X13259040D01*
X13290540Y3960370D01*
X13310230Y3939210D01*
X13318100Y3896870D01*
X13310230Y3854540D01*
X13286600Y3828090D01*
X13259040Y3812200D01*
X13160620D01*
G01X13259040D02*
X13318100Y3658750D01*
G01X13554320Y3976250D02*
Y3658750D01*
G01X13463770Y3976250D02*
X13644870D01*
G01X13869280Y3648170D02*
X13861400Y3653460D01*
Y3664040D01*
X13869280Y3669330D01*
X13877160Y3664040D01*
Y3653460D01*
X13869280Y3648170D01*
G01Y3791030D02*
X13861400Y3796330D01*
Y3806910D01*
X13869280Y3812200D01*
X13877160Y3806910D01*
Y3796330D01*
X13869280Y3791030D01*
G01X14499200Y3976250D02*
Y3658750D01*
G01X14408650Y3976250D02*
X14589750D01*
G01X14814160Y3658750D02*
X14782660Y3664040D01*
X14755110Y3685200D01*
X14731480Y3716960D01*
X14715730Y3754000D01*
X14707860Y3796330D01*
Y3838670D01*
X14715730Y3881000D01*
X14731480Y3918040D01*
X14755110Y3949790D01*
X14782660Y3970960D01*
X14814160Y3976250D01*
X14845650Y3970960D01*
X14873210Y3949790D01*
X14896840Y3918040D01*
X14912590Y3881000D01*
X14920460Y3838670D01*
Y3796330D01*
X14912590Y3754000D01*
X14896840Y3716960D01*
X14873210Y3685200D01*
X14845650Y3664040D01*
X14814160Y3658750D01*
G01X15050380D02*
Y3976250D01*
X15144870D01*
X15176360Y3960370D01*
X15199990Y3923330D01*
X15207860Y3881000D01*
X15199990Y3838670D01*
X15180300Y3806910D01*
X15144870Y3791030D01*
X15050380D01*
G01X15759040Y3976250D02*
Y3658750D01*
G01X15703920Y3870410D02*
X15814160D01*
G01X16074000Y3658750D02*
X16050380Y3664040D01*
X16026760Y3685200D01*
X16011000Y3722250D01*
X16003130Y3764580D01*
X16011000Y3806910D01*
X16026760Y3843960D01*
X16050380Y3865120D01*
X16074000Y3870410D01*
X16097620Y3865120D01*
X16121240Y3843960D01*
X16136990Y3806910D01*
X16140930Y3764580D01*
X16136990Y3722250D01*
X16121240Y3685200D01*
X16097620Y3664040D01*
X16074000Y3658750D01*
G01X16735410Y3828090D02*
X16751160Y3843960D01*
X16762970Y3870410D01*
X16770850Y3907460D01*
X16762970Y3939210D01*
X16747230Y3960370D01*
X16719670Y3976250D01*
X16613370D01*
Y3658750D01*
X16743290D01*
X16770850Y3679910D01*
X16786600Y3711670D01*
X16794470Y3748710D01*
X16786600Y3785740D01*
X16762970Y3817500D01*
X16735410Y3828090D01*
X16613370D01*
G01X17018880Y3658750D02*
X16987380Y3664040D01*
X16959830Y3685200D01*
X16936200Y3716960D01*
X16920450Y3754000D01*
X16912580Y3796330D01*
Y3838670D01*
X16920450Y3881000D01*
X16936200Y3918040D01*
X16959830Y3949790D01*
X16987380Y3970960D01*
X17018880Y3976250D01*
X17050370Y3970960D01*
X17077930Y3949790D01*
X17101560Y3918040D01*
X17117310Y3881000D01*
X17125180Y3838670D01*
Y3796330D01*
X17117310Y3754000D01*
X17101560Y3716960D01*
X17077930Y3685200D01*
X17050370Y3664040D01*
X17018880Y3658750D01*
G01X17333840Y3976250D02*
Y3658750D01*
G01X17243290Y3976250D02*
X17424390D01*
G01X17648800D02*
Y3658750D01*
G01X17558250Y3976250D02*
X17739350D01*
G01X17963760Y3658750D02*
X17932260Y3664040D01*
X17904710Y3685200D01*
X17881080Y3716960D01*
X17865330Y3754000D01*
X17857460Y3796330D01*
Y3838670D01*
X17865330Y3881000D01*
X17881080Y3918040D01*
X17904710Y3949790D01*
X17932260Y3970960D01*
X17963760Y3976250D01*
X17995250Y3970960D01*
X18022810Y3949790D01*
X18046440Y3918040D01*
X18062190Y3881000D01*
X18070060Y3838670D01*
Y3796330D01*
X18062190Y3754000D01*
X18046440Y3716960D01*
X18022810Y3685200D01*
X17995250Y3664040D01*
X17963760Y3658750D01*
G01X18176350D02*
Y3976250D01*
X18278720Y3711670D01*
X18381090Y3976250D01*
Y3658750D01*
G01X10483460Y2771260D02*
Y630040D01*
G01X12570070Y1145660D02*
X12538570Y1135080D01*
X12514950Y1108620D01*
X12499200Y1076870D01*
X12487390Y1034530D01*
X12483460Y986910D01*
X12487390Y939280D01*
X12499200Y896950D01*
X12514950Y865190D01*
X12538570Y838740D01*
X12570070Y828160D01*
X12601560Y838740D01*
X12625190Y865190D01*
X12640940Y896950D01*
X12652750Y939280D01*
X12656680Y986910D01*
X12652750Y1034530D01*
X12640940Y1076870D01*
X12625190Y1108620D01*
X12601560Y1135080D01*
X12570070Y1145660D01*
G01X12885030Y817580D02*
X12877150Y822870D01*
Y833450D01*
X12885030Y838740D01*
X12892910Y833450D01*
Y822870D01*
X12885030Y817580D01*
G01X13113380Y891660D02*
X13136990Y854610D01*
X13168490Y833450D01*
X13203930Y828160D01*
X13235430Y833450D01*
X13266920Y859900D01*
X13286600Y891660D01*
X13290540Y923410D01*
X13282670Y960440D01*
X13255110Y986910D01*
X13227550Y997500D01*
X13192110D01*
G01X13227550D02*
X13251170Y1013370D01*
X13270860Y1039820D01*
X13278730Y1071570D01*
X13270860Y1103330D01*
X13251170Y1129780D01*
X13215740Y1145660D01*
X13180310Y1140370D01*
X13144870Y1119200D01*
G01X12570070Y1859400D02*
X12538570Y1848820D01*
X12514950Y1822360D01*
X12499200Y1790610D01*
X12487390Y1748270D01*
X12483460Y1700650D01*
X12487390Y1653020D01*
X12499200Y1610690D01*
X12514950Y1578930D01*
X12538570Y1552480D01*
X12570070Y1541900D01*
X12601560Y1552480D01*
X12625190Y1578930D01*
X12640940Y1610690D01*
X12652750Y1653020D01*
X12656680Y1700650D01*
X12652750Y1748270D01*
X12640940Y1790610D01*
X12625190Y1822360D01*
X12601560Y1848820D01*
X12570070Y1859400D01*
G01X12885030Y1531320D02*
X12877150Y1536610D01*
Y1547190D01*
X12885030Y1552480D01*
X12892910Y1547190D01*
Y1536610D01*
X12885030Y1531320D01*
G01X13125180Y1806480D02*
X13148810Y1838230D01*
X13176370Y1854110D01*
X13207870Y1859400D01*
X13247230Y1848820D01*
X13274800Y1822360D01*
X13282670Y1790610D01*
X13278730Y1758850D01*
X13262980Y1732400D01*
X13184240Y1679480D01*
X13148810Y1642440D01*
X13125180Y1589510D01*
X13117310Y1541900D01*
X13282670D01*
G01X12329910Y2337330D02*
X12361410Y2310880D01*
X12396840Y2295010D01*
X12428340D01*
X12459830Y2310880D01*
X12483460Y2337330D01*
X12495270Y2374390D01*
X12487400Y2411420D01*
X12467710Y2443170D01*
X12432270Y2464350D01*
X12385030Y2474930D01*
X12357470Y2496090D01*
X12345660Y2533130D01*
X12353540Y2570180D01*
X12373220Y2596630D01*
X12400780Y2612510D01*
X12428340D01*
X12455900Y2601930D01*
X12479520Y2575470D01*
G01X12680310Y2612510D02*
X12774790D01*
G01X12727550D02*
Y2295010D01*
G01X12680310D02*
X12774790D01*
G01X12967700Y2612510D02*
X13117320D01*
X12967700Y2295010D01*
X13117320D01*
G01X13436210D02*
X13278730D01*
Y2612510D01*
X13436210D01*
G01X13373220Y2459060D02*
X13278730D01*
G01X15286600Y2771260D02*
Y630040D01*
G01X16034630Y828160D02*
Y1145660D01*
X16129120D01*
X16160610Y1129780D01*
X16184240Y1092740D01*
X16192110Y1050410D01*
X16184240Y1008080D01*
X16164550Y976320D01*
X16129120Y960440D01*
X16034630D01*
G01X16349590Y1145660D02*
Y828160D01*
X16507070D01*
G01X16644860D02*
X16743290Y1145660D01*
X16841720Y828160D01*
G01X16806280Y939280D02*
X16680290D01*
G01X17058250Y1145660D02*
Y828160D01*
G01X16967700Y1145660D02*
X17148800D01*
G01X17451950Y828160D02*
X17294470D01*
Y1145660D01*
X17451950D01*
G01X17388960Y992210D02*
X17294470D01*
G01X17601560Y828160D02*
Y1145660D01*
X17680290D01*
X17711790Y1129780D01*
X17735410Y1108620D01*
X17755100Y1076870D01*
X17770850Y1039820D01*
X17774780Y986910D01*
X17770850Y933990D01*
X17755100Y896950D01*
X17735410Y865190D01*
X17711790Y844030D01*
X17680290Y828160D01*
X17601560D01*
G01X16034630Y1541900D02*
Y1859400D01*
X16129120D01*
X16160610Y1843520D01*
X16184240Y1806480D01*
X16192110Y1764150D01*
X16184240Y1721820D01*
X16164550Y1690060D01*
X16129120Y1674180D01*
X16034630D01*
G01X16349590Y1859400D02*
Y1541900D01*
X16507070D01*
G01X16644860D02*
X16743290Y1859400D01*
X16841720Y1541900D01*
G01X16806280Y1653020D02*
X16680290D01*
G01X17058250Y1859400D02*
Y1541900D01*
G01X16967700Y1859400D02*
X17148800D01*
G01X17451950Y1541900D02*
X17294470D01*
Y1859400D01*
X17451950D01*
G01X17388960Y1705950D02*
X17294470D01*
G01X17601560Y1541900D02*
Y1859400D01*
X17680290D01*
X17711790Y1843520D01*
X17735410Y1822360D01*
X17755100Y1790610D01*
X17770850Y1753560D01*
X17774780Y1700650D01*
X17770850Y1647730D01*
X17755100Y1610690D01*
X17735410Y1578930D01*
X17711790Y1557770D01*
X17680290Y1541900D01*
X17601560D01*
G01X16034630Y2295010D02*
Y2612510D01*
X16129120D01*
X16160610Y2596630D01*
X16184240Y2559590D01*
X16192110Y2517260D01*
X16184240Y2474930D01*
X16164550Y2443170D01*
X16129120Y2427290D01*
X16034630D01*
G01X16349590Y2612510D02*
Y2295010D01*
X16507070D01*
G01X16644860D02*
X16743290Y2612510D01*
X16841720Y2295010D01*
G01X16806280Y2406130D02*
X16680290D01*
G01X17058250Y2612510D02*
Y2295010D01*
G01X16967700Y2612510D02*
X17148800D01*
G01X17451950Y2295010D02*
X17294470D01*
Y2612510D01*
X17451950D01*
G01X17388960Y2459060D02*
X17294470D01*
G01X17601560Y2295010D02*
Y2612510D01*
X17680290D01*
X17711790Y2596630D01*
X17735410Y2575470D01*
X17755100Y2543720D01*
X17770850Y2506670D01*
X17774780Y2453760D01*
X17770850Y2400840D01*
X17755100Y2363800D01*
X17735410Y2332040D01*
X17711790Y2310880D01*
X17680290Y2295010D01*
X17601560D01*
G01X18514940Y2771260D02*
Y630040D01*
G01X19184230Y1541900D02*
Y1859400D01*
X19136990Y1795900D01*
G01Y1541900D02*
X19231470D01*
G01X19499190D02*
X19526750Y1547190D01*
X19558240Y1563060D01*
X19577930Y1589510D01*
X19585800Y1626570D01*
X19577930Y1663600D01*
X19554310Y1695350D01*
X19518870Y1711240D01*
X19479510D01*
X19455880Y1721820D01*
X19436190Y1748270D01*
X19428320Y1785310D01*
X19440140Y1822360D01*
X19467690Y1848820D01*
X19499190Y1859400D01*
X19530680Y1848820D01*
X19558240Y1822360D01*
X19570060Y1785310D01*
X19562180Y1748270D01*
X19542500Y1721820D01*
X19518870Y1711240D01*
X19479510D01*
X19444070Y1695350D01*
X19420450Y1663600D01*
X19412580Y1626570D01*
X19420450Y1589510D01*
X19440140Y1563060D01*
X19471630Y1547190D01*
X19499190Y1541900D01*
G01X19814150Y1859400D02*
X19782650Y1848820D01*
X19759030Y1822360D01*
X19743280Y1790610D01*
X19731470Y1748270D01*
X19727540Y1700650D01*
X19731470Y1653020D01*
X19743280Y1610690D01*
X19759030Y1578930D01*
X19782650Y1552480D01*
X19814150Y1541900D01*
X19845640Y1552480D01*
X19869270Y1578930D01*
X19885020Y1610690D01*
X19896830Y1653020D01*
X19900760Y1700650D01*
X19896830Y1748270D01*
X19885020Y1790610D01*
X19869270Y1822360D01*
X19845640Y1848820D01*
X19814150Y1859400D01*
G01X19184230Y2295010D02*
X19152730Y2300300D01*
X19125180Y2321460D01*
X19101550Y2353220D01*
X19085800Y2390260D01*
X19077930Y2432590D01*
Y2474930D01*
X19085800Y2517260D01*
X19101550Y2554300D01*
X19125180Y2586050D01*
X19152730Y2607220D01*
X19184230Y2612510D01*
X19215720Y2607220D01*
X19243280Y2586050D01*
X19266910Y2554300D01*
X19282660Y2517260D01*
X19290530Y2474930D01*
Y2432590D01*
X19282660Y2390260D01*
X19266910Y2353220D01*
X19243280Y2321460D01*
X19215720Y2300300D01*
X19184230Y2295010D01*
G01X19215720Y2379680D02*
X19262970Y2295010D01*
G01X19499190Y2612510D02*
Y2295010D01*
G01X19408640Y2612510D02*
X19589740D01*
G01X19814150Y2295010D02*
Y2437880D01*
X19735410Y2612510D01*
G01X19892890D02*
X19814150Y2437880D01*
G01X19255100Y891660D02*
X19278710Y854610D01*
X19310210Y833450D01*
X19345650Y828160D01*
X19377150Y833450D01*
X19408640Y859900D01*
X19428320Y891660D01*
X19432260Y923410D01*
X19424390Y960440D01*
X19396830Y986910D01*
X19369270Y997500D01*
X19333830D01*
G01X19369270D02*
X19392890Y1013370D01*
X19412580Y1039820D01*
X19420450Y1071570D01*
X19412580Y1103330D01*
X19392890Y1129780D01*
X19357460Y1145660D01*
X19322030Y1140370D01*
X19286590Y1119200D01*
G01X19648790Y828160D02*
X19656670Y896950D01*
X19668480Y955150D01*
X19684230Y1008080D01*
X19703910Y1066280D01*
X19735410Y1145660D01*
X19577930D01*
M02*
