G04 ================== begin FILE IDENTIFICATION RECORD ==================*
G04 Layout Name:  D:/WorkSpace/SPB_Data/esl/allegro/esl.brd*
G04 Film Name:    GND*
G04 File Format:  Gerber RS274X*
G04 File Origin:  Cadence Allegro 16.6-P004*
G04 Origin Date:  Tue Sep 10 16:37:25 2019*
G04 *
G04 Layer:  PIN/GND*
G04 Layer:  ETCH/GND*
G04 Layer:  VIA CLASS/GND*
G04 *
G04 Offset:    (0.0000 0.0000)*
G04 Mirror:    No*
G04 Mode:      Positive*
G04 Rotation:  0*
G04 FullContactRelief:  No*
G04 UndefLineWidth:     0.1000*
G04 ================== end FILE IDENTIFICATION RECORD ====================*
%FSLAX25Y25*MOMM*%
%IR0*IPPOS*OFA0.00000B0.00000*MIA0B0*SFA1.00000B1.00000*%
%ADD11C,.6*%
%ADD10C,.45*%
%ADD12C,.9504*%
%ADD13C,1.1004*%
G75*
%LPD*%
G75*
G36*
G01X2563520Y1207610D02*
G03Y1302390I-3520J47390D01*
G02X2545000Y1322330I1480J19945D01*
G01Y3570000D01*
X5055000D01*
Y4510000D01*
X6330000D01*
X6685000Y4155000D01*
Y520000D01*
X6520000D01*
X6400000Y400000D01*
Y170000D01*
X2545000D01*
Y1187670D01*
G02X2563520Y1207610I20000J-5D01*
G37*
%LPC*%
G75*
G36*
G01X3184200Y2601860D02*
G03X3210860Y2595930I16503J11299D01*
G02X3195800Y2528140I24140J-40931D01*
G03X3169140Y2534070I-16503J-11299D01*
G02X3184200Y2601860I-24140J40931D01*
G37*
G36*
G01X5897210Y2334080D02*
G03X5882400Y2313340I5142J-19330D01*
G02X5822790Y2355920I-47400J-3342D01*
G03X5837600Y2376660I-5142J19330D01*
G02X5897210Y2334080I47400J3342D01*
G37*
G36*
G01X5423830Y2031630D02*
G03X5422960Y2018590I7117J-7024D01*
G02X5351170Y2023370I-37958J-28590D01*
G03X5352040Y2036410I-7117J7024D01*
G02X5423830Y2031630I37958J28590D01*
G37*
G36*
G01X3641720Y3163760D02*
G02X3596950Y3199580I-51723J-18758D01*
G03X3618280Y3226240I2528J19840D01*
G02X3663050Y3190420I51723J18758D01*
G03X3641720Y3163760I-2528J-19840D01*
G37*
G36*
G01X5777450Y2082580D02*
G02X5682860Y2074030I-47448J-2580D01*
G03X5656200Y2090330I-19844J-2505D01*
G02X5624890Y2180050I-16200J44670D01*
G02X5685110Y2149950I45106J14952D01*
G02X5687140Y2140970I-45117J-14919D01*
G03X5713800Y2124670I19844J2505D01*
G02X5738850Y2126690I16209J-44670D01*
G03X5762550Y2147420I3730J19648D01*
G02X5801150Y2103310I47450J2579D01*
G03X5777450Y2082580I-3730J-19648D01*
G37*
G36*
G01X3682420Y1026900D02*
G02X3616920Y1005060I-22420J-41899D01*
G03X3612580Y1018100I-9062J4226D01*
G02X3609370Y1100020I22418J41901D01*
G03X3612850Y1113060I-5389J8423D01*
G02X3611360Y1153810I42150J21943D01*
G03X3607880Y1165980I-9184J3956D01*
G02X3608980Y1244760I27121J39019D01*
G03X3611940Y1275860I-10953J16733D01*
G02X3671020Y1270240I33055J34140D01*
G03X3668060Y1239140I10953J-16733D01*
G02X3678640Y1186190I-33059J-34138D01*
G03X3682120Y1174020I9184J-3956D01*
G02X3680630Y1094980I-27119J-39023D01*
G03X3677150Y1081940I5389J-8423D01*
G02X3678080Y1039940I-42150J-21944D01*
G03X3682420Y1026900I9062J-4226D01*
G37*
G54D12*
X3365000Y2545000D03*
X3300000Y2700000D03*
X3190000Y2865000D03*
X3590000Y840000D03*
X3485000Y2565000D03*
X4600000Y2465000D03*
Y2660000D03*
X4450000Y2765000D03*
X4600000Y3065000D03*
Y2860000D03*
X5015000Y2615000D03*
X4930000Y2475000D03*
X4780000Y2995000D03*
X5310000Y1035000D03*
X5210000Y2000000D03*
X5125000Y2930000D03*
X5435000Y1665000D03*
X5580000Y1940000D03*
X5434090Y3039110D03*
X6035000Y1035000D03*
X5920000Y1205000D03*
X5951500Y1663500D03*
X5945000Y1535000D03*
X5790000Y1835000D03*
X6035000Y2575000D03*
X5950000Y3025000D03*
X5980000Y2820000D03*
G54D13*
X3460000Y3245000D03*
X4365000Y870000D03*
X4670000Y995000D03*
X4490000D03*
X4845000Y975000D03*
Y1130000D03*
X4945000Y3490000D03*
X5120000Y250000D03*
X5320000D03*
X5245000Y3490000D03*
X5095000D03*
X5720000Y250000D03*
X5520000D03*
X5920000D03*
%LPD*%
G75*
G54D10*
X2600000Y470000D03*
Y240000D03*
Y690000D03*
X2595000Y900000D03*
X2770000Y1400000D03*
X2580000Y1440000D03*
X2560000Y1255000D03*
X2580000Y1630000D03*
X2760000Y3410000D03*
X2580000Y3360000D03*
Y3170000D03*
X2615000Y3525000D03*
X3090000Y470000D03*
X3100000Y240000D03*
X2830000D03*
Y470000D03*
X3110000Y690000D03*
X2830000Y680000D03*
X2960000Y1460000D03*
Y1640000D03*
X2890000Y2775000D03*
X2950000Y3170000D03*
Y3360000D03*
X2915000Y3530000D03*
X3360000Y470000D03*
X3350000Y240000D03*
X3360000Y690000D03*
X3220000Y2010000D03*
Y2330000D03*
Y2170000D03*
X3145000Y2475000D03*
X3365000Y2545000D03*
X3235000Y2555000D03*
X3145000Y2575000D03*
X3300000Y2700000D03*
X3310000Y2870000D03*
X3275000Y2945000D03*
X3190000Y2865000D03*
X3150000Y3540000D03*
X3590000Y240000D03*
Y480000D03*
X3580000Y690000D03*
X3750000Y1100000D03*
X3590000Y840000D03*
X3655000Y1135000D03*
X3635000Y1060000D03*
X3660000Y985000D03*
X3645000Y1310000D03*
X3635000Y1205000D03*
X3485000Y2565000D03*
X3595000Y3540000D03*
X4090000Y390000D03*
X3810000Y380000D03*
X3960000Y240000D03*
X4080000Y580000D03*
X3870000Y730000D03*
X3820000Y570000D03*
X3870000Y1010000D03*
X3850000Y1200000D03*
X3860000Y3490000D03*
X4330000Y420000D03*
X4240000Y230000D03*
X4360000Y580000D03*
X4175000Y2075000D03*
X4250000Y1930000D03*
X4400000Y2155000D03*
X4285000Y2300000D03*
X4170000Y2470000D03*
X4150000Y3200000D03*
X4120000Y3520000D03*
X4700000Y230000D03*
X4510000Y310000D03*
X4690000Y440000D03*
X4560000Y620000D03*
X4685000Y685000D03*
X4540000Y1150000D03*
X4580000Y1730000D03*
X4600000Y2465000D03*
Y2660000D03*
X4450000Y2765000D03*
X4600000Y3065000D03*
Y2860000D03*
X4840000Y1310000D03*
X4770000Y1780000D03*
X4850000Y1575000D03*
Y2000000D03*
X4890000Y2700000D03*
X5015000Y2615000D03*
X4930000Y2475000D03*
X4780000Y2995000D03*
X4950000Y3280000D03*
X5010000Y3190000D03*
X5300000Y720000D03*
X5110000D03*
X5310000Y1035000D03*
X5260000Y1350000D03*
X5110000D03*
X5095000Y2090000D03*
X5210000Y2000000D03*
X5390000Y2065000D03*
X5385000Y1990000D03*
X5125000Y2930000D03*
X5240000Y3250000D03*
X5340000Y3160000D03*
X5400000Y3750000D03*
Y3590000D03*
X5100000Y3650000D03*
X5270000Y3810000D03*
X5100000Y3850000D03*
Y4040000D03*
X5250000Y4360000D03*
X5100000Y4250000D03*
Y4470000D03*
X5500000Y770000D03*
X5435000Y1665000D03*
X5580000Y1940000D03*
X5640000Y2135000D03*
X5730000Y2080000D03*
X5670000Y2195000D03*
X5434090Y3039110D03*
X5630000Y3310000D03*
X5620000Y3640000D03*
Y3480000D03*
X5600000Y3850000D03*
X5560000Y4140000D03*
X5420000Y4210000D03*
X5720000Y4460000D03*
X5420000Y4470000D03*
X6035000Y1035000D03*
X5920000Y1205000D03*
X5951500Y1663500D03*
X5945000Y1535000D03*
X5960000Y2020000D03*
X5790000Y1835000D03*
X6025000Y2170000D03*
X5810000Y2150000D03*
X5835000Y2310000D03*
X5885000Y2380000D03*
X6035000Y2575000D03*
X5860000Y3100000D03*
X5950000Y3025000D03*
X5980000Y2820000D03*
X5860000Y3390000D03*
Y3230000D03*
X6050000Y3210000D03*
X6060000Y3470000D03*
X5860000Y3540000D03*
Y3720000D03*
X6060000Y4030000D03*
X5860000Y4080000D03*
Y3900000D03*
X5880000Y4270000D03*
X6040000Y4470000D03*
X6110000Y1980000D03*
X6330000Y2340000D03*
X6210000Y2460000D03*
X6190000Y2590000D03*
X6260000Y2925000D03*
X6200000Y2865000D03*
X6240000Y3340000D03*
X6210000Y3670000D03*
X6390000Y3520000D03*
X6360000Y4010000D03*
X6090000Y3800000D03*
X6185000Y4225000D03*
X6315000Y4440000D03*
X6650000Y2410000D03*
Y2240000D03*
X6450000D03*
X6650000Y2780000D03*
Y2580000D03*
X6420000Y3080000D03*
X6560000Y2920000D03*
X6620000Y3390000D03*
X6460000Y3270000D03*
X6630000Y3140000D03*
X6420000Y3760000D03*
X6630000Y3660000D03*
X6620000Y3985000D03*
X6525000Y4230000D03*
G54D11*
X3460000Y3245000D03*
X3590000Y3145000D03*
X3670000Y3245000D03*
X3840000D03*
X3935000Y3160000D03*
X4365000Y870000D03*
X4670000Y995000D03*
X4490000D03*
X4590000Y1400000D03*
X4480000Y1460000D03*
X4845000Y975000D03*
Y1130000D03*
X4945000Y3490000D03*
X5120000Y250000D03*
X5320000D03*
X5380000Y2610000D03*
Y2510000D03*
Y2710000D03*
Y2810000D03*
X5245000Y3490000D03*
X5095000D03*
X5720000Y250000D03*
X5520000D03*
X5480000Y2610000D03*
X5580000Y2510000D03*
X5680000Y2610000D03*
X5580000D03*
Y2710000D03*
X5680000Y2510000D03*
X5480000D03*
X5680000Y2710000D03*
X5480000D03*
X5580000Y2810000D03*
X5680000D03*
X5480000D03*
X5920000Y250000D03*
X6120000D03*
M02*
