G04 ================== begin FILE IDENTIFICATION RECORD ==================*
G04 Layout Name:  D:/WorkSpace/SPB_Data/esl/allegro/esl.brd*
G04 Film Name:    SOLDERMASK_TOP*
G04 File Format:  Gerber RS274X*
G04 File Origin:  Cadence Allegro 16.6-P004*
G04 Origin Date:  Tue Sep 10 16:37:25 2019*
G04 *
G04 Layer:  PIN/SOLDERMASK_TOP*
G04 Layer:  PACKAGE GEOMETRY/SOLDERMASK_TOP*
G04 Layer:  BOARD GEOMETRY/OUTLINE*
G04 Layer:  BOARD GEOMETRY/SOLDERMASK_TOP*
G04 *
G04 Offset:    (0.0000 0.0000)*
G04 Mirror:    No*
G04 Mode:      Positive*
G04 Rotation:  0*
G04 FullContactRelief:  No*
G04 UndefLineWidth:     0.1000*
G04 ================== end FILE IDENTIFICATION RECORD ====================*
%FSLAX25Y25*MOMM*%
%IR0*IPPOS*OFA0.00000B0.00000*MIA0B0*SFA1.00000B1.00000*%
%ADD16O,2.1X.8*%
%ADD23O,.8X2.1*%
%ADD20O,2.1X.9*%
%ADD26R,.28X1.1*%
%ADD28R,1.1X.28*%
%ADD13R,1.52X.32*%
%ADD10O,2.45X.6*%
%ADD24O,2.5X.78*%
%AMMACRO29*
21,1,.75,.65,0.0,0.0,135.*%
%ADD29MACRO29*%
%ADD25O,2.97X.81*%
%ADD32R,1.65X.85*%
%ADD33R,1.3X1.5*%
%ADD22R,1.2X1.17*%
%ADD18R,1.05X1.15*%
%ADD17R,1.15X1.05*%
%ADD11R,3.02X2.52*%
%ADD19R,1.42X3.42*%
%ADD31R,2.25X3.45*%
%ADD14C,2.7*%
%ADD27R,4.X4.*%
%ADD21R,1.65X1.85*%
%AMMACRO30*
21,1,.75,.65,0.0,0.0,45.*%
%ADD30MACRO30*%
%ADD12R,.65X.75*%
%ADD15R,.75X.65*%
%ADD34C,.1*%
G75*
%LPD*%
G75*
G36*
G01X4685000Y2265000D02*
G03I-85000J0D01*
G37*
G36*
G01Y2465000D02*
G03I-85000J0D01*
G37*
G36*
G01Y2665000D02*
G03I-85000J0D01*
G37*
G36*
G01Y2865000D02*
G03I-85000J0D01*
G37*
G36*
G01Y3065000D02*
G03I-85000J0D01*
G37*
G36*
G01X5205000Y250000D02*
G03I-85000J0D01*
G37*
G36*
G01X4958720Y3065000D02*
X4990000D01*
G02X5030000Y3025000I0J-40000D01*
G01Y2995000D01*
G02X4980000Y2945000I-50000J0D01*
G01X4934710D01*
G02X4890000Y2995000I5603J50000D01*
G01Y3045000D01*
G02X4930000Y3085000I40000J0D01*
G02X4958720Y3065000I0J-30621D01*
G37*
G36*
G01X5405000Y250000D02*
G03I-85000J0D01*
G37*
G36*
G01X5135000Y2355000D02*
G02I0J-65000D01*
G37*
G36*
G01X5600000Y3800000D02*
Y3900000D01*
X5380000D01*
Y3800000D01*
X5600000D01*
G37*
G36*
G01Y4100000D02*
Y4200000D01*
X5380000D01*
Y4100000D01*
X5600000D01*
G37*
G36*
G01X5605000Y250000D02*
G03I-85000J0D01*
G37*
G36*
G01X5805000D02*
G03I-85000J0D01*
G37*
G36*
G01X6005000D02*
G03I-85000J0D01*
G37*
G36*
G01X6205000D02*
G03I-85000J0D01*
G37*
G36*
G01X6500000Y2095000D02*
G02I0J-85000D01*
G37*
G54D10*
X2827500Y812500D03*
Y877500D03*
Y942500D03*
Y1007500D03*
Y1072500D03*
Y1137500D03*
Y1202500D03*
Y1267500D03*
X3422500Y812500D03*
Y1137500D03*
Y1072500D03*
Y1007500D03*
Y942500D03*
Y877500D03*
Y1267500D03*
Y1202500D03*
G54D11*
X2760000Y1585000D03*
Y3215000D03*
G54D20*
X4110000Y1370000D03*
Y1465000D03*
Y1560000D03*
X4360000Y1465000D03*
Y1370000D03*
Y1560000D03*
G54D12*
X2610000Y1365000D03*
Y1255000D03*
X3765000Y825000D03*
Y715000D03*
X3640000D03*
Y825000D03*
X3905000Y1465000D03*
Y1575000D03*
X4310000Y2395000D03*
Y2505000D03*
X4700000Y780000D03*
X4585000Y1150000D03*
X4685000D03*
X4700000Y890000D03*
X4585000Y1260000D03*
X4685000D03*
X4810000Y780000D03*
Y890000D03*
X5730000Y3365000D03*
Y3255000D03*
Y3665000D03*
Y3555000D03*
X6000000Y3135000D03*
Y3025000D03*
X6300000Y3135000D03*
Y3025000D03*
X6090000Y3135000D03*
Y3025000D03*
X6210000Y3135000D03*
Y3025000D03*
G54D30*
X5336110Y3261110D03*
X5413890Y3338890D03*
X5271110Y3326110D03*
X5348890Y3403890D03*
G54D21*
X3970000Y1795000D03*
X4250000D03*
G54D31*
X5350000Y4000000D03*
G54D22*
X3857500Y2300000D03*
X4182500D03*
G54D13*
X3005000Y1775000D03*
Y2125000D03*
Y2075000D03*
Y2025000D03*
Y1975000D03*
Y1925000D03*
Y1875000D03*
Y1825000D03*
Y2425000D03*
Y2375000D03*
Y2325000D03*
Y2275000D03*
Y2225000D03*
Y2175000D03*
Y2775000D03*
Y2725000D03*
Y2675000D03*
Y2625000D03*
Y2575000D03*
Y2525000D03*
Y2475000D03*
Y3025000D03*
Y2975000D03*
Y2925000D03*
Y2875000D03*
Y2825000D03*
G54D14*
X3560000Y1900000D03*
Y2900000D03*
G54D32*
X5680000Y4000000D03*
G54D23*
X4025000Y2805000D03*
X4120000Y2555000D03*
X3930000D03*
X4300000Y3473500D03*
X4395000Y3266500D03*
X4205000D03*
G54D15*
X3300000Y2825000D03*
X3190000D03*
X3710000Y2300000D03*
X3600000D03*
X3792000Y3350000D03*
X3682000D03*
X3790000Y3450000D03*
X3680000D03*
X4060000Y1985000D03*
X3950000D03*
X4695000Y3365000D03*
X4585000D03*
X4695000Y3265000D03*
X4585000D03*
X5100000Y1955000D03*
Y2045000D03*
X5015000Y2745000D03*
X4905000D03*
Y2655000D03*
X5015000D03*
X5210000Y1955000D03*
Y2045000D03*
X5735000Y3160000D03*
Y3460000D03*
X5920000Y2195000D03*
X5810000D03*
X6025000Y2740000D03*
Y2615000D03*
Y2850000D03*
X5845000Y3160000D03*
Y3460000D03*
X6400000Y2360000D03*
X6135000Y2740000D03*
Y2615000D03*
Y2850000D03*
X6365000Y2920000D03*
X6510000Y2360000D03*
X6475000Y2920000D03*
G54D33*
X6320000Y2755000D03*
Y2525000D03*
X6510000D03*
Y2755000D03*
G54D24*
X5180000Y779500D03*
Y906500D03*
Y1033500D03*
Y1160500D03*
X5920000Y779500D03*
Y1160500D03*
Y1033500D03*
Y906500D03*
G54D34*
G01X6740180Y-60D02*
G03X6920180Y179940I2J179998D01*
G01Y4619940D01*
G03X6740180Y4799940I-180000J0D01*
G01X700180D01*
G03X500180Y4599940I2J-200002D01*
G01Y199940D01*
G03X700180Y-60I200000J0D01*
G01X6740180D01*
G01X950000Y300000D02*
G03I-150000J0D01*
G01Y4500000D02*
G03I-150000J0D01*
G01X6770000Y300000D02*
G03I-150000J0D01*
G01Y4500000D02*
G03I-150000J0D01*
G54D25*
X5288500Y1409500D03*
Y1536500D03*
Y1663500D03*
Y1790500D03*
X5791500Y1409500D03*
Y1790500D03*
Y1663500D03*
Y1536500D03*
G54D16*
X3210000Y3445000D03*
X3460000Y3350000D03*
Y3540000D03*
G54D17*
X3445000Y3175000D03*
X3275000D03*
X3675000D03*
X4095000Y2110000D03*
X3925000D03*
X3845000Y3175000D03*
X4145000Y1175000D03*
X4315000D03*
G54D26*
X5302500Y2396000D03*
X5337500D03*
X5372500D03*
Y2924000D03*
X5337500D03*
X5302500D03*
X5407500Y2396000D03*
X5442500D03*
X5477500D03*
X5512500D03*
X5547500D03*
X5582500D03*
X5617500D03*
X5652500D03*
X5687500D03*
X5722500D03*
Y2924000D03*
X5687500D03*
X5652500D03*
X5617500D03*
X5582500D03*
X5547500D03*
X5512500D03*
X5477500D03*
X5442500D03*
X5407500D03*
X5757500Y2396000D03*
Y2924000D03*
G54D27*
X5530000Y2660000D03*
G54D18*
X3760000Y1460000D03*
Y1290000D03*
X4310000Y2640000D03*
Y2810000D03*
X4565000Y740000D03*
Y910000D03*
X5020000Y3275000D03*
Y3445000D03*
G54D19*
X4075000Y870000D03*
X4365000D03*
G54D28*
X5266000Y2782500D03*
Y2747500D03*
Y2712500D03*
Y2677500D03*
Y2642500D03*
Y2607500D03*
Y2572500D03*
Y2537500D03*
Y2502500D03*
Y2817500D03*
X5794000Y2502500D03*
Y2537500D03*
Y2572500D03*
Y2607500D03*
Y2642500D03*
Y2677500D03*
Y2712500D03*
Y2747500D03*
Y2782500D03*
Y2817500D03*
G54D29*
X5421110Y3203890D03*
X5498890Y3126110D03*
X5563890Y3196110D03*
X5486110Y3273890D03*
M02*
