G04 ================== begin FILE IDENTIFICATION RECORD ==================*
G04 Layout Name:  D:/WorkSpace/SPB_Data/esl/allegro/esl.brd*
G04 Film Name:    TOP*
G04 File Format:  Gerber RS274X*
G04 File Origin:  Cadence Allegro 16.6-P004*
G04 Origin Date:  Tue Sep 10 16:37:25 2019*
G04 *
G04 Layer:  VIA CLASS/TOP*
G04 Layer:  PIN/TOP*
G04 Layer:  ETCH/TOP*
G04 *
G04 Offset:    (0.0000 0.0000)*
G04 Mirror:    No*
G04 Mode:      Positive*
G04 Rotation:  0*
G04 FullContactRelief:  No*
G04 UndefLineWidth:     0.1000*
G04 ================== end FILE IDENTIFICATION RECORD ====================*
%FSLAX25Y25*MOMM*%
%IR0*IPPOS*OFA0.00000B0.00000*MIA0B0*SFA1.00000B1.00000*%
%ADD28R,.18X1.*%
%ADD14R,1.5X.3*%
%ADD11O,2.25X.4*%
%ADD30R,1.X.18*%
%AMMACRO31*
21,1,.7,.6,0.0,0.0,135.*%
%ADD31MACRO31*%
%ADD17O,1.9X.6*%
%ADD25O,.6X1.9*%
%ADD22O,1.9X.7*%
%ADD26O,2.3X.58*%
%ADD34R,1.6X.8*%
%ADD24R,1.X.97*%
%ADD27O,2.77X.61*%
%ADD20C,.6*%
%ADD10C,.45*%
%ADD19R,1.X1.1*%
%ADD18R,1.1X1.*%
%ADD35R,1.2X1.4*%
%ADD33R,2.2X3.4*%
%ADD12R,3.X2.5*%
%ADD21R,1.4X3.4*%
%ADD23R,1.6X1.8*%
%AMMACRO32*
21,1,.7,.6,0.0,0.0,45.*%
%ADD32MACRO32*%
%ADD13R,.6X.7*%
%ADD16R,.7X.6*%
%ADD15C,2.6*%
%ADD29R,3.7X3.7*%
%ADD36C,.2*%
%ADD37C,.3*%
%ADD38C,.4*%
%ADD39C,.5*%
%ADD40C,.18*%
%ADD41C,.38*%
%ADD42C,.508*%
G75*
%LPD*%
G75*
G36*
G01X3604980Y749980D02*
X3670000D01*
Y650000D01*
X3818840D01*
X3820020Y650280D01*
Y885020D01*
X3820000D01*
Y930000D01*
X3710000Y1040000D01*
Y1344980D01*
X3810020D01*
X3915000Y1240000D01*
Y650000D01*
X4515000D01*
Y794980D01*
X4615020D01*
Y795000D01*
X4630000D01*
X4650000Y815000D01*
X4664980D01*
Y814980D01*
X4750000D01*
Y170000D01*
X2545000D01*
Y960000D01*
X2660000D01*
Y750000D01*
X3604980D01*
Y749980D01*
G37*
G36*
G01X3015000Y1710000D02*
Y1335000D01*
X2545000D01*
Y1710000D01*
X3015000D01*
G37*
G36*
G01Y3455000D02*
Y3090000D01*
X2545000D01*
Y3570000D01*
X4185000D01*
Y3395000D01*
X4235000Y3345000D01*
Y3155000D01*
X4145000D01*
X4100000Y3200000D01*
Y3325000D01*
X4005000Y3420000D01*
X3755020D01*
Y3485020D01*
X3755000D01*
Y3505000D01*
X3740020D01*
Y3505020D01*
X3619980D01*
Y3505000D01*
X3065000D01*
X3015000Y3455000D01*
G37*
G36*
G01X3670000Y795000D02*
X3315000D01*
Y895000D01*
X3670000D01*
Y795000D01*
G37*
G36*
G01X3590000Y1405000D02*
X3330000Y1665000D01*
Y2090000D01*
X3565000D01*
Y2330000D01*
X3634980D01*
Y2264980D01*
X3635000D01*
Y2040000D01*
X3790000Y1885000D01*
X4049980D01*
Y1709980D01*
X4050000D01*
Y1655000D01*
X3835000D01*
Y1510000D01*
X3845000Y1500000D01*
X3869980D01*
Y1499980D01*
X3940020D01*
Y1500000D01*
X4048570D01*
G03X4050000Y1499980I1554J59998D01*
G01X4170000D01*
G03X4171430Y1500000I-124J60018D01*
G01X4195000D01*
Y1430000D01*
X4171430D01*
G03X4170000Y1430020I-1554J-59998D01*
G01X4050000D01*
G03X4048570Y1430000I124J-60018D01*
G01X3975000D01*
X3950000Y1405000D01*
X3810020D01*
Y1405020D01*
X3709980D01*
Y1405000D01*
X3590000D01*
G37*
G36*
G01X3275000Y1955000D02*
X3130000D01*
Y2390000D01*
X3275000D01*
Y1955000D01*
G37*
G36*
G01X4380000Y2755000D02*
X4350020D01*
Y2755020D01*
X4259980D01*
Y2755000D01*
X4210000D01*
X4170000Y2715000D01*
X3385000D01*
X3380000Y2720000D01*
Y3070000D01*
X4340000D01*
X4380000Y3030000D01*
Y2755000D01*
G37*
G36*
G01X3345000Y2795000D02*
X3265020D01*
Y2860020D01*
X3265000D01*
Y2870000D01*
X3225000Y2910000D01*
Y2940000D01*
X3265000Y2980000D01*
X3345000D01*
Y2795000D01*
G37*
G36*
G01X3729980Y3225020D02*
Y3115000D01*
X3390020D01*
Y3225020D01*
X3390000D01*
Y3275000D01*
X3730000D01*
Y3225020D01*
X3729980D01*
G37*
G36*
G01X3800000Y1955000D02*
X3675000Y2080000D01*
Y2264980D01*
X3675020D01*
Y2335020D01*
X3675000D01*
Y2540000D01*
X3780000Y2645000D01*
X3965000D01*
Y2205000D01*
X3980000Y2190000D01*
Y2160020D01*
X3979980D01*
Y2059980D01*
X3980000D01*
Y1955000D01*
X3800000D01*
G37*
G36*
G01X3965000Y700000D02*
Y1355000D01*
X4010000Y1400000D01*
X4200000D01*
Y1225020D01*
X4199980D01*
Y1119980D01*
X4140000Y1060000D01*
Y1040020D01*
X4139980D01*
Y700000D01*
X3965000D01*
G37*
G36*
G01X4225000Y2645000D02*
Y2430000D01*
X4274980D01*
Y2429980D01*
X4345020D01*
Y2430000D01*
X4395000D01*
X4480000Y2345000D01*
X4900000D01*
Y1250000D01*
X4765000D01*
Y1515000D01*
X4595000Y1685000D01*
X4170000D01*
Y1709980D01*
X4170020D01*
Y1880020D01*
X4169980D01*
X4120000Y1930000D01*
X4050000D01*
X4025020Y1954980D01*
Y2030020D01*
X4040000Y2045000D01*
Y2059980D01*
X4040020D01*
Y2160020D01*
X4040000D01*
Y2190000D01*
X4060000Y2210000D01*
Y2645000D01*
X4225000D01*
G37*
G36*
G01X3990000Y3275000D02*
Y3125000D01*
X3790020D01*
Y3225020D01*
X3790000D01*
Y3275000D01*
X3990000D01*
G37*
G36*
G01X4465000Y710000D02*
X4455000Y700000D01*
X4300020D01*
Y1050020D01*
X4325000Y1075000D01*
X4630000D01*
X4655000Y1100000D01*
Y1184980D01*
X4720020D01*
Y1185000D01*
X4900000D01*
Y855000D01*
X4845020D01*
Y855020D01*
X4774980D01*
Y855000D01*
X4735020D01*
Y855020D01*
X4664980D01*
Y855000D01*
X4640000D01*
X4637500Y857500D01*
X4635000Y855000D01*
X4615020D01*
Y855020D01*
X4514980D01*
Y855000D01*
X4490000D01*
X4465000Y830000D01*
Y710000D01*
G37*
G36*
G01X4520000Y1340000D02*
Y1370000D01*
X4460000Y1430000D01*
X4421430D01*
G03X4420000Y1430020I-1554J-59998D01*
G01X4300000D01*
G03X4298570Y1430000I124J-60018D01*
G01X4270000D01*
Y1500000D01*
X4298570D01*
G03X4300000Y1499980I1554J59998D01*
G01X4420000D01*
G03X4421430Y1500000I-124J60018D01*
G01X4600000D01*
X4649980Y1450020D01*
Y1340000D01*
X4520000D01*
G37*
G36*
G01X5350000Y3360000D02*
X5345000D01*
X5295000Y3410000D01*
X4900000D01*
X4875000Y3435000D01*
X4365000D01*
X4315000Y3385000D01*
X4285000D01*
X4220000Y3450000D01*
Y3570000D01*
X5260000D01*
X5395000Y3435000D01*
Y3405000D01*
X5350000Y3360000D01*
G37*
G36*
G01X4680000Y2265000D02*
G02I-80000J0D01*
G37*
G36*
G01Y2465000D02*
G02I-80000J0D01*
G37*
G36*
G01Y2665000D02*
G02I-80000J0D01*
G37*
G36*
G01Y3065000D02*
G02I-80000J0D01*
G37*
G36*
G01Y2865000D02*
G02I-80000J0D01*
G37*
G36*
G01X5015000Y3130000D02*
X4810000Y3335000D01*
X4660020D01*
Y3395000D01*
X4860000D01*
X4925000Y3330000D01*
X4969980D01*
Y3329980D01*
X5070020D01*
Y3330000D01*
X5110000D01*
X5150000Y3370000D01*
X5275000D01*
X5390000Y3255000D01*
X5410000D01*
X5465000Y3200000D01*
X5395000Y3130000D01*
X5015000D01*
G37*
G36*
G01X5200000Y250000D02*
G02I-80000J0D01*
G37*
G36*
G01X5565000Y810000D02*
Y680000D01*
X5075000D01*
X5025000Y730000D01*
Y810000D01*
X5565000D01*
G37*
G36*
G01X5134980Y2020000D02*
X5060000D01*
Y2106890D01*
X5073110Y2120000D01*
X5135000D01*
Y2080020D01*
X5134980D01*
Y2020000D01*
G37*
G36*
G01X4830000Y2785000D02*
X4935000D01*
Y2620000D01*
X4830000D01*
Y2785000D01*
G37*
G36*
G01X4955000Y3060000D02*
X4990000D01*
G02X5025000Y3025000I0J-35000D01*
G01Y2995000D01*
G02X4980000Y2950000I-45000J0D01*
G01X4935000D01*
G02X4895000Y2995000I5313J45000D01*
G01Y3045000D01*
G02X4930000Y3080000I35000J0D01*
G02X4955000Y3060000I0J-25625D01*
G37*
G36*
G01X5810000D02*
Y3124980D01*
X5810020D01*
Y3195020D01*
X5810000D01*
Y3424980D01*
X5810020D01*
Y3495020D01*
X5810000D01*
Y4080000D01*
X5460000D01*
Y3920000D01*
X5660000D01*
Y3225000D01*
X5635000D01*
X5615000Y3245000D01*
Y3275000D01*
X5290000Y3600000D01*
X5055000D01*
Y4510000D01*
X6330000D01*
X6685000Y4155000D01*
Y2175000D01*
X6405000D01*
X6100000Y2480000D01*
Y2579980D01*
X6100020D01*
Y2643480D01*
X6193410D01*
X6230910Y2605980D01*
X6390910D01*
X6424980Y2571910D01*
Y2429980D01*
X6449980D01*
Y2395020D01*
X6434980D01*
Y2324980D01*
X6449980D01*
Y2304980D01*
X6570020D01*
Y2429980D01*
X6595020D01*
Y2620020D01*
X6473090D01*
X6419090Y2674020D01*
X6405020D01*
Y2864980D01*
X6425020D01*
Y2884980D01*
X6440020D01*
Y2955020D01*
X6425020D01*
Y2975020D01*
X6355020D01*
Y3195020D01*
X6154980D01*
Y3153090D01*
X6115980Y3114090D01*
Y3100020D01*
X6054980D01*
Y3100000D01*
X6025020D01*
Y3100020D01*
X5960020D01*
X5945020Y3085020D01*
X5944980D01*
Y3084980D01*
X5926070Y3066070D01*
X5925070Y3065460D01*
G03X5917860Y3060000I24953J-40442D01*
G01X5810000D01*
G37*
G36*
G01X5400000Y250000D02*
G02I-80000J0D01*
G37*
G36*
G01X5430000Y1440000D02*
Y1315000D01*
X5065000D01*
Y1390000D01*
X5115000Y1440000D01*
X5430000D01*
G37*
G36*
G01X5195000Y2290000D02*
G02I-60000J0D01*
G37*
G36*
G01X5800000Y250000D02*
G02I-80000J0D01*
G37*
G36*
G01X5600000D02*
G02I-80000J0D01*
G37*
G36*
G01X6000000D02*
G02I-80000J0D01*
G37*
G36*
G01X6200000D02*
G02I-80000J0D01*
G37*
G36*
G01X5950000Y1920000D02*
X5885000Y1985000D01*
Y2159980D01*
X5885020D01*
Y2230020D01*
X5885000D01*
Y2255000D01*
X6045000D01*
X6160000Y2140000D01*
Y1920000D01*
X5950000D01*
G37*
G36*
G01X6100020Y2800000D02*
Y2885980D01*
X6124090D01*
X6203090Y2964980D01*
X6304980D01*
Y2908090D01*
X6285980Y2889090D01*
Y2850020D01*
X6234980D01*
Y2800000D01*
X6100020D01*
G37*
G36*
G01X6580000Y2010000D02*
G02I-80000J0D01*
G37*
G54D10*
X2600000Y470000D03*
Y240000D03*
Y690000D03*
X2595000Y900000D03*
X2770000Y1400000D03*
X2580000Y1440000D03*
X2560000Y1255000D03*
X2580000Y1630000D03*
X2760000Y3410000D03*
X2580000Y3360000D03*
Y3170000D03*
X2615000Y3525000D03*
X3090000Y470000D03*
X3100000Y240000D03*
X2830000D03*
Y470000D03*
X3110000Y690000D03*
X2830000Y680000D03*
X2960000Y1460000D03*
Y1640000D03*
X2890000Y2775000D03*
X2950000Y3170000D03*
Y3360000D03*
X2915000Y3530000D03*
X3360000Y470000D03*
X3350000Y240000D03*
X3360000Y690000D03*
X3220000Y2010000D03*
Y2330000D03*
Y2170000D03*
X3145000Y2475000D03*
X3365000Y2545000D03*
X3235000Y2555000D03*
X3145000Y2575000D03*
X3300000Y2700000D03*
X3310000Y2870000D03*
X3275000Y2945000D03*
X3190000Y2865000D03*
X3150000Y3540000D03*
X3590000Y240000D03*
Y480000D03*
X3580000Y690000D03*
X3750000Y1100000D03*
X3590000Y840000D03*
X3655000Y1135000D03*
X3635000Y1060000D03*
X3660000Y985000D03*
X3645000Y1310000D03*
X3635000Y1205000D03*
X3485000Y2565000D03*
X3595000Y3540000D03*
X4090000Y390000D03*
X3810000Y380000D03*
X3960000Y240000D03*
X4080000Y580000D03*
X3870000Y730000D03*
X3820000Y570000D03*
X3870000Y1010000D03*
X3850000Y1200000D03*
X3860000Y3490000D03*
X4330000Y420000D03*
X4240000Y230000D03*
X4360000Y580000D03*
X4175000Y2075000D03*
X4250000Y1930000D03*
X4400000Y2155000D03*
X4285000Y2300000D03*
X4170000Y2470000D03*
X4150000Y3200000D03*
X4120000Y3520000D03*
X4700000Y230000D03*
X4510000Y310000D03*
X4690000Y440000D03*
X4560000Y620000D03*
X4685000Y685000D03*
X4540000Y1150000D03*
X4580000Y1730000D03*
X4600000Y2465000D03*
Y2660000D03*
X4450000Y2765000D03*
X4600000Y3065000D03*
Y2860000D03*
X4840000Y1310000D03*
X4770000Y1780000D03*
X4850000Y1575000D03*
Y2000000D03*
X4890000Y2700000D03*
X5015000Y2615000D03*
X4930000Y2475000D03*
X4780000Y2995000D03*
X4950000Y3280000D03*
X5010000Y3190000D03*
X5300000Y720000D03*
X5110000D03*
X5310000Y1035000D03*
X5260000Y1350000D03*
X5110000D03*
X5095000Y2090000D03*
X5210000Y2000000D03*
X5390000Y2065000D03*
X5385000Y1990000D03*
X5125000Y2930000D03*
X5240000Y3250000D03*
X5340000Y3160000D03*
X5400000Y3750000D03*
Y3590000D03*
X5100000Y3650000D03*
X5270000Y3810000D03*
X5100000Y3850000D03*
Y4040000D03*
X5250000Y4360000D03*
X5100000Y4250000D03*
Y4470000D03*
X5500000Y770000D03*
X5435000Y1665000D03*
X5580000Y1940000D03*
X5640000Y2135000D03*
X5730000Y2080000D03*
X5670000Y2195000D03*
X5434090Y3039110D03*
X5630000Y3310000D03*
X5620000Y3640000D03*
Y3480000D03*
X5600000Y3850000D03*
X5560000Y4140000D03*
X5420000Y4210000D03*
X5720000Y4460000D03*
X5420000Y4470000D03*
X6035000Y1035000D03*
X5920000Y1205000D03*
X5951500Y1663500D03*
X5945000Y1535000D03*
X5960000Y2020000D03*
X5790000Y1835000D03*
X6025000Y2170000D03*
X5810000Y2150000D03*
X5835000Y2310000D03*
X5885000Y2380000D03*
X6035000Y2575000D03*
X5860000Y3100000D03*
X5950000Y3025000D03*
X5980000Y2820000D03*
X5860000Y3390000D03*
Y3230000D03*
X6050000Y3210000D03*
X6060000Y3470000D03*
X5860000Y3540000D03*
Y3720000D03*
X6060000Y4030000D03*
X5860000Y4080000D03*
Y3900000D03*
X5880000Y4270000D03*
X6040000Y4470000D03*
X6110000Y1980000D03*
X6330000Y2340000D03*
X6210000Y2460000D03*
X6190000Y2590000D03*
X6260000Y2925000D03*
X6200000Y2865000D03*
X6240000Y3340000D03*
X6210000Y3670000D03*
X6390000Y3520000D03*
X6360000Y4010000D03*
X6090000Y3800000D03*
X6185000Y4225000D03*
X6315000Y4440000D03*
X6650000Y2410000D03*
Y2240000D03*
X6450000D03*
X6650000Y2780000D03*
Y2580000D03*
X6420000Y3080000D03*
X6560000Y2920000D03*
X6620000Y3390000D03*
X6460000Y3270000D03*
X6630000Y3140000D03*
X6420000Y3760000D03*
X6630000Y3660000D03*
X6620000Y3985000D03*
X6525000Y4230000D03*
G54D20*
X3460000Y3245000D03*
X3590000Y3145000D03*
X3670000Y3245000D03*
X3840000D03*
X3935000Y3160000D03*
X4365000Y870000D03*
X4670000Y995000D03*
X4490000D03*
X4590000Y1400000D03*
X4480000Y1460000D03*
X4845000Y975000D03*
Y1130000D03*
X4945000Y3490000D03*
X5120000Y250000D03*
X5320000D03*
X5380000Y2610000D03*
Y2510000D03*
Y2710000D03*
Y2810000D03*
X5245000Y3490000D03*
X5095000D03*
X5720000Y250000D03*
X5520000D03*
X5480000Y2610000D03*
X5580000Y2510000D03*
X5680000Y2610000D03*
X5580000D03*
Y2710000D03*
X5680000Y2510000D03*
X5480000D03*
X5680000Y2710000D03*
X5480000D03*
X5580000Y2810000D03*
X5680000D03*
X5480000D03*
X5920000Y250000D03*
X6120000D03*
G54D11*
X2827500Y812500D03*
Y877500D03*
Y942500D03*
Y1007500D03*
Y1072500D03*
Y1137500D03*
Y1202500D03*
Y1267500D03*
X3422500Y812500D03*
Y1137500D03*
Y1072500D03*
Y1007500D03*
Y942500D03*
Y877500D03*
Y1267500D03*
Y1202500D03*
G54D21*
X4075000Y870000D03*
X4365000D03*
G54D12*
X2760000Y1585000D03*
Y3215000D03*
G54D30*
X5266000Y2782500D03*
Y2747500D03*
Y2712500D03*
Y2677500D03*
Y2642500D03*
Y2607500D03*
Y2572500D03*
Y2537500D03*
Y2502500D03*
Y2817500D03*
X5794000Y2502500D03*
Y2537500D03*
Y2572500D03*
Y2607500D03*
Y2642500D03*
Y2677500D03*
Y2712500D03*
Y2747500D03*
Y2782500D03*
Y2817500D03*
G54D40*
G01X3005000Y1925000D02*
X2610000D01*
X2445000Y1760000D01*
Y1180000D01*
X2552500Y1072500D01*
X2827500D01*
G01X3005000Y1825000D02*
X2580000D01*
X2490000Y1735000D01*
Y1205000D01*
X2540000Y1155000D01*
X2645800D01*
X2693300Y1202500D01*
X2827500D01*
G01X3005000Y1775000D02*
X3120000D01*
X3145000Y1750000D01*
Y1285000D01*
X2997500Y1137500D01*
X2827500D01*
G01Y1007500D02*
X2982500D01*
X3195000Y1220000D01*
Y1790000D01*
X3110000Y1875000D01*
X3005000D01*
G01X3365000Y2545000D02*
X3245000Y2425000D01*
X3005000D01*
G01X3235000Y2555000D02*
X3205000Y2525000D01*
X3005000D01*
G01Y2575000D02*
X3145000D01*
G01X3485000Y2565000D02*
X3425000Y2625000D01*
X3005000D01*
G01X3300000Y2700000D02*
X3257980D01*
X3232980Y2675000D01*
X3005000D01*
G01X3655000Y1135000D02*
X3592980D01*
X3590480Y1137500D01*
X3422500D01*
G01X3635000Y1060000D02*
X3582500Y1007500D01*
X3422500D01*
G01Y942500D02*
X3617500D01*
X3660000Y985000D01*
G01X3645000Y1310000D02*
X3602500Y1267500D01*
X3422500D01*
G01X3635000Y1205000D02*
X3592980D01*
X3590480Y1202500D01*
X3422500D01*
G01X3765000Y715000D02*
X3730000D01*
X3705000Y740000D01*
Y811700D01*
X3691700Y825000D01*
X3640000D01*
G01X3660000Y985000D02*
X3702020D01*
X3765000Y922020D01*
Y825000D01*
G01X4450000Y2765000D02*
X4420000Y2795000D01*
Y3065000D01*
X4370000Y3115000D01*
X4105000D01*
X4035000Y3185000D01*
Y3295000D01*
X3980000Y3350000D01*
X3792000D01*
G01X4600000Y2660000D02*
X4695000Y2565000D01*
X5055000D01*
X5132500Y2642500D01*
X5266000D01*
G01X4600000Y2465000D02*
X4660000Y2525000D01*
X5070000D01*
X5152500Y2607500D01*
X5266000D01*
G01X4600000Y3065000D02*
X4795000Y2870000D01*
X5035000D01*
X5090000Y2815000D01*
Y2790000D01*
X5132500Y2747500D01*
X5266000D01*
G01X4635000Y2825000D02*
X4600000Y2860000D01*
G01X5015000Y2745000D02*
Y2796700D01*
X4986700Y2825000D01*
X4635000D01*
G01X4695000Y3265000D02*
X4815000D01*
X4985000Y3095000D01*
X5378200D01*
X5434090Y3039110D01*
G01X5266000Y2537500D02*
X5194300D01*
X4955000Y2298200D01*
Y780000D01*
G01X4810000D02*
X4955000D01*
G01X5220000Y615000D02*
X5040000D01*
X4955000Y700000D01*
Y780000D01*
G01X5180000Y906500D02*
X5043300D01*
X5005000Y944800D01*
Y1413200D01*
X5128300Y1536500D01*
X5288500D01*
G01X5100000Y1955000D02*
X5043300D01*
X5015000Y1983300D01*
Y2110000D01*
X5070000Y2165000D01*
X5245000D01*
X5302500Y2222500D01*
Y2396000D01*
G01X5015000Y2615000D02*
Y2655000D01*
G01D02*
X5071700D01*
X5094200Y2677500D01*
X5266000D01*
G01X5015000Y2745000D02*
X5071700D01*
X5104200Y2712500D01*
X5266000D01*
G01X4930000Y2475000D02*
X5075000D01*
X5172500Y2572500D01*
X5266000D01*
G01X4780000Y2995000D02*
X4860000Y2915000D01*
X5055000D01*
X5130000Y2840000D01*
Y2815000D01*
X5162500Y2782500D01*
X5266000D01*
G01X5020000Y3020000D02*
X5265000D01*
X5302500Y2982500D01*
Y2924000D01*
G01X5310000Y1035000D02*
X5308500Y1033500D01*
X5180000D01*
G01Y1160500D02*
X5400500D01*
X5530000Y1290000D01*
Y1850000D01*
X5477500Y1902500D01*
Y2396000D01*
G01X5435000Y1665000D02*
X5433500Y1663500D01*
X5288500D01*
G01Y1536500D02*
X5448700D01*
X5490000Y1577800D01*
Y1830010D01*
X5442500Y1877510D01*
Y2396000D01*
G01X5100000Y1955000D02*
Y1818800D01*
X5128300Y1790500D01*
X5288500D01*
G01X5337500Y2192500D02*
Y2396000D01*
G01X5390000Y2065000D02*
Y2109200D01*
X5407500Y2126700D01*
Y2396000D01*
G01X5385000Y1990000D02*
X5335000Y2040000D01*
Y2105000D01*
X5372500Y2142500D01*
Y2396000D01*
G01X5135000Y2335000D02*
Y2410000D01*
X5227500Y2502500D01*
X5266000D01*
G01X5125000Y2930000D02*
X5170000Y2885000D01*
Y2841800D01*
X5194300Y2817500D01*
X5266000D01*
G01X6090000Y595000D02*
X6280000Y785000D01*
Y2130000D01*
X5872500Y2537500D01*
X5794000D01*
G01X5920000Y906500D02*
X5748500D01*
X5570000Y1085000D01*
Y1875000D01*
X5512500Y1932500D01*
Y2396000D01*
G01X5582500D02*
Y2012510D01*
X5630000Y1965010D01*
Y1915000D01*
X5615000Y1900000D01*
Y1425800D01*
X5631300Y1409500D01*
X5791500D01*
G01X5580000Y1940000D02*
X5547500Y1972500D01*
Y2396000D01*
G01X5810000Y2195000D02*
X5805000D01*
X5722500Y2277500D01*
Y2396000D01*
G01X5670000Y2195000D02*
X5652500Y2212500D01*
Y2396000D01*
G01X5640000Y2135000D02*
X5617500Y2157500D01*
Y2396000D01*
G01X5730000Y2080000D02*
Y2210000D01*
X5687500Y2252500D01*
Y2396000D01*
G01X5434090Y3039110D02*
X5477500Y2995700D01*
Y2924000D01*
G01X5722500D02*
Y3045000D01*
G01X5687500Y2924000D02*
Y2987500D01*
X5655000Y3020000D01*
X5645000D01*
G01D02*
Y3005000D01*
X5652500Y2997500D01*
Y2924000D01*
G01X6110000Y540000D02*
X6330000Y760000D01*
Y2135000D01*
X5892500Y2572500D01*
X5794000D01*
G01X5791500Y1409500D02*
X5951700D01*
X6095000Y1266200D01*
Y868500D01*
X6006000Y779500D01*
X5920000D01*
G01X6035000Y1035000D02*
X6033500Y1033500D01*
X5920000D01*
G01X5791500Y1663500D02*
X5951500D01*
G01X5945000Y1535000D02*
X5943500Y1536500D01*
X5791500D01*
G01X5810000Y2195000D02*
Y2150000D01*
G01X5835000Y2310000D02*
X5771800D01*
X5757500Y2324300D01*
Y2396000D01*
G01X5885000Y2380000D02*
Y2460000D01*
X5842500Y2502500D01*
X5794000D01*
G01X6025000Y2610000D02*
X5992500Y2642500D01*
X5794000D01*
G01Y2747500D02*
X5907500D01*
X5980000Y2820000D01*
G01X6210000Y3025000D02*
Y3020000D01*
X6110000Y2920000D01*
X5954990D01*
X5920000Y2885010D01*
Y2830000D01*
X5872500Y2782500D01*
X5794000D01*
G01Y2677500D02*
X6207500D01*
X6245000Y2640000D01*
X6405000D01*
X6510000Y2535000D01*
Y2525000D01*
G01X6025000Y2740000D02*
X6015000D01*
X5987500Y2712500D01*
X5794000D01*
G01X6485000Y2040000D02*
X5917500Y2607500D01*
X5794000D01*
G01X5950000Y3025000D02*
X5786800D01*
X5757500Y2995700D01*
Y2924000D01*
G01X6090000Y3025000D02*
Y2968300D01*
X6076700Y2955000D01*
X5935000D01*
X5880000Y2900000D01*
Y2845000D01*
X5852500Y2817500D01*
X5794000D01*
G01X6320000Y2755000D02*
Y2875000D01*
X6365000Y2920000D01*
G01X6320000Y2755000D02*
X6206700D01*
X6191700Y2740000D01*
X6135000D01*
G01X6300000Y3025000D02*
X6210000D01*
G01Y3135000D02*
X6185000D01*
X6150000Y3100000D01*
Y3070000D01*
X6105000Y3025000D01*
X6090000D01*
G01X6300000Y3135000D02*
X6210000D01*
G01X6485000Y2035000D02*
Y2040000D01*
G01X6510000Y2525000D02*
Y2360000D01*
G54D13*
X2610000Y1365000D03*
Y1255000D03*
X3765000Y825000D03*
Y715000D03*
X3640000D03*
Y825000D03*
X3905000Y1465000D03*
Y1575000D03*
X4310000Y2395000D03*
Y2505000D03*
X4700000Y780000D03*
X4585000Y1150000D03*
X4685000D03*
X4700000Y890000D03*
X4585000Y1260000D03*
X4685000D03*
X4810000Y780000D03*
Y890000D03*
X5730000Y3365000D03*
Y3255000D03*
Y3665000D03*
Y3555000D03*
X6000000Y3135000D03*
Y3025000D03*
X6300000Y3135000D03*
Y3025000D03*
X6090000Y3135000D03*
Y3025000D03*
X6210000Y3135000D03*
Y3025000D03*
G54D22*
X4110000Y1370000D03*
Y1465000D03*
Y1560000D03*
X4360000Y1465000D03*
Y1370000D03*
Y1560000D03*
G54D31*
X5421110Y3203890D03*
X5498890Y3126110D03*
X5563890Y3196110D03*
X5486110Y3273890D03*
G54D41*
G01X5722500Y3045000D02*
Y3147500D01*
X5735000Y3160000D01*
G01X5730000Y3255000D02*
Y3165000D01*
X5735000Y3160000D01*
G01X5730000Y3365000D02*
Y3460000D01*
G01D02*
Y3555000D01*
G01X5735000Y3460000D02*
X5730000D01*
G01Y3665000D02*
Y3980000D01*
X5710000Y4000000D01*
X5680000D01*
G54D32*
X5336110Y3261110D03*
X5413890Y3338890D03*
X5271110Y3326110D03*
X5348890Y3403890D03*
G54D23*
X3970000Y1795000D03*
X4250000D03*
G54D14*
X3005000Y1775000D03*
Y2125000D03*
Y2075000D03*
Y2025000D03*
Y1975000D03*
Y1925000D03*
Y1875000D03*
Y1825000D03*
Y2425000D03*
Y2375000D03*
Y2325000D03*
Y2275000D03*
Y2225000D03*
Y2175000D03*
Y2775000D03*
Y2725000D03*
Y2675000D03*
Y2625000D03*
Y2575000D03*
Y2525000D03*
Y2475000D03*
Y3025000D03*
Y2975000D03*
Y2925000D03*
Y2875000D03*
Y2825000D03*
G54D42*
G01X4360000Y1370000D02*
Y1220000D01*
X4315000Y1175000D01*
G54D15*
X3560000Y1900000D03*
Y2900000D03*
G54D33*
X5350000Y4000000D03*
G54D24*
X3857500Y2300000D03*
X4182500D03*
G54D16*
X3300000Y2825000D03*
X3190000D03*
X3710000Y2300000D03*
X3600000D03*
X3792000Y3350000D03*
X3682000D03*
X3790000Y3450000D03*
X3680000D03*
X4060000Y1985000D03*
X3950000D03*
X4695000Y3365000D03*
X4585000D03*
X4695000Y3265000D03*
X4585000D03*
X5100000Y1955000D03*
Y2045000D03*
X5015000Y2745000D03*
X4905000D03*
Y2655000D03*
X5015000D03*
X5210000Y1955000D03*
Y2045000D03*
X5735000Y3160000D03*
Y3460000D03*
X5920000Y2195000D03*
X5810000D03*
X6025000Y2740000D03*
Y2615000D03*
Y2850000D03*
X5845000Y3160000D03*
Y3460000D03*
X6400000Y2360000D03*
X6135000Y2740000D03*
Y2615000D03*
Y2850000D03*
X6365000Y2920000D03*
X6510000Y2360000D03*
X6475000Y2920000D03*
G54D34*
X5680000Y4000000D03*
G54D25*
X4025000Y2805000D03*
X4120000Y2555000D03*
X3930000D03*
X4300000Y3473500D03*
X4395000Y3266500D03*
X4205000D03*
G54D35*
X6320000Y2755000D03*
Y2525000D03*
X6510000D03*
Y2755000D03*
G54D26*
X5180000Y779500D03*
Y906500D03*
Y1033500D03*
Y1160500D03*
X5920000Y779500D03*
Y1160500D03*
Y1033500D03*
Y906500D03*
G54D17*
X3210000Y3445000D03*
X3460000Y3350000D03*
Y3540000D03*
G54D36*
G01Y3350000D02*
X3682000D01*
G01X3680000Y3450000D02*
Y3352000D01*
X3682000Y3350000D01*
G01X4685000Y1260000D02*
Y1480000D01*
X4605000Y1560000D01*
X4360000D01*
G01X5320000Y515000D02*
X5220000Y615000D01*
G01X5210000Y2045000D02*
X5215000D01*
X5337500Y2167500D01*
Y2192500D01*
G01X5720000Y510000D02*
X5805000Y595000D01*
X6090000D01*
G01X5920000Y495000D02*
X5965000Y540000D01*
X6110000D01*
G54D18*
X3445000Y3175000D03*
X3275000D03*
X3675000D03*
X4095000Y2110000D03*
X3925000D03*
X3845000Y3175000D03*
X4145000Y1175000D03*
X4315000D03*
G54D27*
X5288500Y1409500D03*
Y1536500D03*
Y1663500D03*
Y1790500D03*
X5791500Y1409500D03*
Y1790500D03*
Y1663500D03*
Y1536500D03*
G54D37*
G01X2827500Y812500D02*
X2647500D01*
G01X2827500Y877500D02*
X2647500D01*
G01X2827500Y942500D02*
X2647500D01*
G01X2827500Y1267500D02*
X2622500D01*
X2610000Y1255000D01*
G01D02*
X2560000D01*
G01X3005000Y2125000D02*
X3140000D01*
G01X3005000Y2075000D02*
X3140000D01*
G01X3005000Y2025000D02*
X3140000D01*
G01X3005000Y1975000D02*
X3140000D01*
G01X3005000Y2375000D02*
X3140000D01*
G01X3005000Y2325000D02*
X3140000D01*
G01X3005000Y2275000D02*
X3140000D01*
G01X3005000Y2225000D02*
X3140000D01*
G01X3005000Y2175000D02*
X3140000D01*
G01X3005000Y2475000D02*
X3145000D01*
G01X3005000Y2775000D02*
X2890000D01*
G01X3190000Y2825000D02*
Y2760000D01*
X3155000Y2725000D01*
X3005000D01*
G01Y2925000D02*
X3280000D01*
G01X3005000Y2875000D02*
X3140000D01*
X3190000Y2825000D01*
G01X3005000D02*
X3190000D01*
G01X3210000Y3445000D02*
X3140000Y3375000D01*
Y3057300D01*
X3107700Y3025000D01*
X3005000D01*
G01X3275000Y3175000D02*
Y3075000D01*
X3175000Y2975000D01*
X3005000D01*
G01X3190000Y2825000D02*
Y2865000D01*
G01X3905000Y1575000D02*
X3972300D01*
X3987300Y1560000D01*
X4110000D01*
G01X4395000Y3266500D02*
X4488500D01*
X4490000Y3265000D01*
X4585000D01*
G01Y1150000D02*
X4540000D01*
G01X4585000Y1260000D02*
X4685000D01*
G01X4585000Y3365000D02*
Y3265000D01*
G01X5320000Y250000D02*
Y515000D01*
G01X5720000Y250000D02*
Y510000D01*
G01X5920000Y250000D02*
Y495000D01*
G01X6035000Y2575000D02*
X6025000Y2585000D01*
Y2610000D01*
G01Y2615000D02*
Y2610000D01*
G54D19*
X3760000Y1460000D03*
Y1290000D03*
X4310000Y2640000D03*
Y2810000D03*
X4565000Y740000D03*
Y910000D03*
X5020000Y3275000D03*
Y3445000D03*
G54D28*
X5302500Y2396000D03*
X5337500D03*
X5372500D03*
Y2924000D03*
X5337500D03*
X5302500D03*
X5407500Y2396000D03*
X5442500D03*
X5477500D03*
X5512500D03*
X5547500D03*
X5582500D03*
X5617500D03*
X5652500D03*
X5687500D03*
X5722500D03*
Y2924000D03*
X5687500D03*
X5652500D03*
X5617500D03*
X5582500D03*
X5547500D03*
X5512500D03*
X5477500D03*
X5442500D03*
X5407500D03*
X5757500Y2396000D03*
Y2924000D03*
G54D38*
G01X5210000Y2045000D02*
Y2000000D01*
G01D02*
Y1955000D01*
G01X5520000Y3145000D02*
X5645000Y3020000D01*
G01X5920000Y1160500D02*
Y1205000D01*
G01X5790000Y1835000D02*
X5791500Y1833500D01*
Y1790500D01*
G01X6000000Y3025000D02*
X5950000D01*
G01X6025000Y2850000D02*
X6010000D01*
X5980000Y2820000D01*
G54D29*
X5530000Y2660000D03*
G54D39*
G01X4310000Y2640000D02*
Y2505000D01*
G01X5348890Y3403890D02*
X5413890Y3338890D01*
G01X5486110Y3273890D02*
X5478890D01*
X5413890Y3338890D01*
G01X5498890Y3126110D02*
X5501110D01*
X5520000Y3145000D01*
G01X5563890Y3196110D02*
Y3188890D01*
X5520000Y3145000D01*
M02*
