G04 ================== begin FILE IDENTIFICATION RECORD ==================*
G04 Layout Name:  D:/WorkSpace/SPB_Data/esl/allegro/esl.brd*
G04 Film Name:    VCC*
G04 File Format:  Gerber RS274X*
G04 File Origin:  Cadence Allegro 16.6-P004*
G04 Origin Date:  Tue Sep 10 16:37:25 2019*
G04 *
G04 Layer:  VIA CLASS/VCC*
G04 Layer:  PIN/VCC*
G04 Layer:  ETCH/VCC*
G04 *
G04 Offset:    (0.0000 0.0000)*
G04 Mirror:    No*
G04 Mode:      Positive*
G04 Rotation:  0*
G04 FullContactRelief:  No*
G04 UndefLineWidth:     0.1000*
G04 ================== end FILE IDENTIFICATION RECORD ====================*
%FSLAX25Y25*MOMM*%
%IR0*IPPOS*OFA0.00000B0.00000*MIA0B0*SFA1.00000B1.00000*%
%ADD11C,.6*%
%ADD10C,.45*%
%ADD12C,.9504*%
G75*
%LPD*%
G75*
G36*
G01X5250000Y2475000D02*
X5315000Y2410000D01*
X5670000D01*
X5793920Y2286080D01*
X5794530Y2285090D01*
G03X5810090Y2269530I40470J24910D01*
G01X5811080Y2268920D01*
X5870000Y2210000D01*
Y2100000D01*
X5785000D01*
X5712400Y2172600D01*
X5714600Y2178600D01*
G03X5653600Y2239600I-44600J16400D01*
G01X5647600Y2237400D01*
X5615000Y2270000D01*
X5245000D01*
X4980000Y2535000D01*
Y2655000D01*
X5050000Y2725000D01*
Y3164210D01*
X5051310Y3166510D01*
G03Y3213490I-41310J23490D01*
G01X5050000Y3215790D01*
Y3320000D01*
X4975790D01*
X4973490Y3321310D01*
G03X4926510I-23490J-41310D01*
G01X4924210Y3320000D01*
X4865000D01*
Y2740410D01*
G03Y2659590I25000J-40410D01*
G01Y2067330D01*
G02X4846480Y2047390I-20000J5D01*
G03Y1952610I3520J-47390D01*
G02X4865000Y1932670I-1480J-19945D01*
G01Y1642330D01*
G02X4846480Y1622390I-20000J5D01*
G03Y1527610I3520J-47390D01*
G02X4865000Y1507670I-1480J-19945D01*
G01Y1377330D01*
G02X4843520Y1357390I-20000J5D01*
G03Y1262610I-3520J-47390D01*
G02X4865000Y1242670I1480J-19945D01*
G01Y810000D01*
X5200000Y475000D01*
Y170000D01*
X5080000D01*
X5040000Y210000D01*
Y385000D01*
X4731910Y693090D01*
X4731260Y695860D01*
G03X4695860Y731260I-46260J-10860D01*
G01X4693090Y731910D01*
X4615000Y810000D01*
X3205000D01*
X2855000Y1160000D01*
X2525000D01*
Y1345000D01*
X2950000D01*
X3290000Y1005000D01*
X3592480D01*
G02X3612480Y985000I0J-20000D01*
G03X3707520I47520J0D01*
G02X3727520Y1005000I20000J0D01*
G01X3822120D01*
X3824120Y997610D01*
G03X3894780Y1050540I45876J12386D01*
G01X3890000Y1053470D01*
Y1174210D01*
X3891310Y1176510D01*
G03Y1223490I-41310J23490D01*
G01X3890000Y1225790D01*
Y2505000D01*
X3750000Y2645000D01*
X3357740D01*
G02X3340640Y2675370I0J19999D01*
G03X3259360I-40640J24630D01*
G02X3242260Y2645000I-17100J-10371D01*
G01X3210000D01*
X3060000Y2795000D01*
Y3450000D01*
X3116400Y3506400D01*
G03X3197390Y3543520I33601J33601D01*
G02X3217330Y3565000I19945J1480D01*
G01X3527670D01*
G02X3547610Y3543520I-5J-20000D01*
G03X3642390I47390J-3520D01*
G02X3662330Y3565000I19945J1480D01*
G01X4057280D01*
G02X4075860Y3537600I0J-20000D01*
G03X4164140I44140J-17600D01*
G02X4182720Y3565000I18580J7400D01*
G01X5250000D01*
X5755000Y3060000D01*
X5834210D01*
X5836510Y3058690D01*
G03X5883490I23490J41310D01*
G01X5885790Y3060000D01*
X5985000D01*
X6070000Y2975000D01*
Y2525000D01*
X5900000D01*
Y2705000D01*
X5357500Y3247500D01*
X5288260D01*
X5287110Y3256200D01*
G03X5240000Y3202480I-47110J-6203D01*
G02X5250000Y3192480I0J-10000D01*
G01Y2475000D01*
G37*
G36*
G01X5830000Y1865000D02*
Y1385000D01*
X5985000Y1230000D01*
Y1130000D01*
X5875000D01*
X5705000Y1300000D01*
Y1635000D01*
X5605000Y1735000D01*
X5245000D01*
X5175000Y1805000D01*
Y2055000D01*
X5270000D01*
Y1910000D01*
X5315000Y1865000D01*
X5830000D01*
G37*
%LPC*%
G75*
G36*
G01X3263660Y2880510D02*
G03X3253290Y2902730I-19505J4427D01*
G02X3321340Y2934490I21708J42270D01*
G03X3331710Y2912270I19505J-4427D01*
G02X3263660Y2880510I-21708J-42270D01*
G37*
G36*
G01X3919510Y3212800D02*
G02X3880810Y3169540I15490J-52798D01*
G03X3855490Y3192200I-19693J3471D01*
G02X3894190Y3235460I-15490J52798D01*
G03X3919510Y3212800I19693J-3471D01*
G37*
G36*
G01X4564160Y1448570D02*
G02X4535170Y1395430I25839J-48574D01*
G03X4505840Y1411430I-19932J-1656D01*
G02X4534830Y1464570I-25839J48574D01*
G03X4564160Y1448570I19932J1656D01*
G37*
G54D12*
X3860000Y3490000D03*
X4175000Y2075000D03*
X4250000Y1930000D03*
X4400000Y2155000D03*
X4285000Y2300000D03*
X4170000Y2470000D03*
X4150000Y3200000D03*
X4540000Y1150000D03*
X4580000Y1730000D03*
X4600000Y2465000D03*
Y2660000D03*
X4450000Y2765000D03*
X4600000Y3065000D03*
Y2860000D03*
X4770000Y1780000D03*
X4780000Y2995000D03*
X5125000Y2930000D03*
%LPD*%
G75*
G54D10*
X2600000Y470000D03*
Y240000D03*
Y690000D03*
X2595000Y900000D03*
X2770000Y1400000D03*
X2580000Y1440000D03*
X2560000Y1255000D03*
X2580000Y1630000D03*
X2760000Y3410000D03*
X2580000Y3360000D03*
Y3170000D03*
X2615000Y3525000D03*
X3090000Y470000D03*
X3100000Y240000D03*
X2830000D03*
Y470000D03*
X3110000Y690000D03*
X2830000Y680000D03*
X2960000Y1460000D03*
Y1640000D03*
X2890000Y2775000D03*
X2950000Y3170000D03*
Y3360000D03*
X2915000Y3530000D03*
X3360000Y470000D03*
X3350000Y240000D03*
X3360000Y690000D03*
X3220000Y2010000D03*
Y2330000D03*
Y2170000D03*
X3145000Y2475000D03*
X3365000Y2545000D03*
X3235000Y2555000D03*
X3145000Y2575000D03*
X3300000Y2700000D03*
X3310000Y2870000D03*
X3275000Y2945000D03*
X3190000Y2865000D03*
X3150000Y3540000D03*
X3590000Y240000D03*
Y480000D03*
X3580000Y690000D03*
X3750000Y1100000D03*
X3590000Y840000D03*
X3655000Y1135000D03*
X3635000Y1060000D03*
X3660000Y985000D03*
X3645000Y1310000D03*
X3635000Y1205000D03*
X3485000Y2565000D03*
X3595000Y3540000D03*
X4090000Y390000D03*
X3810000Y380000D03*
X3960000Y240000D03*
X4080000Y580000D03*
X3870000Y730000D03*
X3820000Y570000D03*
X3870000Y1010000D03*
X3850000Y1200000D03*
X3860000Y3490000D03*
X4330000Y420000D03*
X4240000Y230000D03*
X4360000Y580000D03*
X4175000Y2075000D03*
X4250000Y1930000D03*
X4400000Y2155000D03*
X4285000Y2300000D03*
X4170000Y2470000D03*
X4150000Y3200000D03*
X4120000Y3520000D03*
X4700000Y230000D03*
X4510000Y310000D03*
X4690000Y440000D03*
X4560000Y620000D03*
X4685000Y685000D03*
X4540000Y1150000D03*
X4580000Y1730000D03*
X4600000Y2465000D03*
Y2660000D03*
X4450000Y2765000D03*
X4600000Y3065000D03*
Y2860000D03*
X4840000Y1310000D03*
X4770000Y1780000D03*
X4850000Y1575000D03*
Y2000000D03*
X4890000Y2700000D03*
X5015000Y2615000D03*
X4930000Y2475000D03*
X4780000Y2995000D03*
X4950000Y3280000D03*
X5010000Y3190000D03*
X5300000Y720000D03*
X5110000D03*
X5310000Y1035000D03*
X5260000Y1350000D03*
X5110000D03*
X5095000Y2090000D03*
X5210000Y2000000D03*
X5390000Y2065000D03*
X5385000Y1990000D03*
X5125000Y2930000D03*
X5240000Y3250000D03*
X5340000Y3160000D03*
X5400000Y3750000D03*
Y3590000D03*
X5100000Y3650000D03*
X5270000Y3810000D03*
X5100000Y3850000D03*
Y4040000D03*
X5250000Y4360000D03*
X5100000Y4250000D03*
Y4470000D03*
X5500000Y770000D03*
X5435000Y1665000D03*
X5580000Y1940000D03*
X5640000Y2135000D03*
X5730000Y2080000D03*
X5670000Y2195000D03*
X5434090Y3039110D03*
X5630000Y3310000D03*
X5620000Y3640000D03*
Y3480000D03*
X5600000Y3850000D03*
X5560000Y4140000D03*
X5420000Y4210000D03*
X5720000Y4460000D03*
X5420000Y4470000D03*
X6035000Y1035000D03*
X5920000Y1205000D03*
X5951500Y1663500D03*
X5945000Y1535000D03*
X5960000Y2020000D03*
X5790000Y1835000D03*
X6025000Y2170000D03*
X5810000Y2150000D03*
X5835000Y2310000D03*
X5885000Y2380000D03*
X6035000Y2575000D03*
X5860000Y3100000D03*
X5950000Y3025000D03*
X5980000Y2820000D03*
X5860000Y3390000D03*
Y3230000D03*
X6050000Y3210000D03*
X6060000Y3470000D03*
X5860000Y3540000D03*
Y3720000D03*
X6060000Y4030000D03*
X5860000Y4080000D03*
Y3900000D03*
X5880000Y4270000D03*
X6040000Y4470000D03*
X6110000Y1980000D03*
X6330000Y2340000D03*
X6210000Y2460000D03*
X6190000Y2590000D03*
X6260000Y2925000D03*
X6200000Y2865000D03*
X6240000Y3340000D03*
X6210000Y3670000D03*
X6390000Y3520000D03*
X6360000Y4010000D03*
X6090000Y3800000D03*
X6185000Y4225000D03*
X6315000Y4440000D03*
X6650000Y2410000D03*
Y2240000D03*
X6450000D03*
X6650000Y2780000D03*
Y2580000D03*
X6420000Y3080000D03*
X6560000Y2920000D03*
X6620000Y3390000D03*
X6460000Y3270000D03*
X6630000Y3140000D03*
X6420000Y3760000D03*
X6630000Y3660000D03*
X6620000Y3985000D03*
X6525000Y4230000D03*
G54D11*
X3460000Y3245000D03*
X3590000Y3145000D03*
X3670000Y3245000D03*
X3840000D03*
X3935000Y3160000D03*
X4365000Y870000D03*
X4670000Y995000D03*
X4490000D03*
X4590000Y1400000D03*
X4480000Y1460000D03*
X4845000Y975000D03*
Y1130000D03*
X4945000Y3490000D03*
X5120000Y250000D03*
X5320000D03*
X5380000Y2610000D03*
Y2510000D03*
Y2710000D03*
Y2810000D03*
X5245000Y3490000D03*
X5095000D03*
X5720000Y250000D03*
X5520000D03*
X5480000Y2610000D03*
X5580000Y2510000D03*
X5680000Y2610000D03*
X5580000D03*
Y2710000D03*
X5680000Y2510000D03*
X5480000D03*
X5680000Y2710000D03*
X5480000D03*
X5580000Y2810000D03*
X5680000D03*
X5480000D03*
X5920000Y250000D03*
X6120000D03*
M02*
